<svg width="508" height="282" viewBox="0 0 508 282" fill="none" xmlns="http://www.w3.org/2000/svg">
<g clip-path="url(#clip0_334_29)">
<path d="M134.889 21.0446L28.5061 97.4885C6.21554 113.506 1.13014 144.561 17.1475 166.851L17.2059 166.932C33.2232 189.223 64.2779 194.308 86.5684 178.291L192.951 101.847C215.242 85.8296 220.327 54.7749 204.31 32.4844L204.252 32.4032C188.234 10.1127 157.18 5.02729 134.889 21.0446Z" fill="#EA4335" stroke="#1E1E1E" stroke-width="9.6" stroke-miterlimit="10"/>
<path d="M17.2122 108.859L17.1539 108.94C1.13649 131.231 6.22189 162.285 28.5124 178.303L134.895 254.746C157.186 270.764 188.241 265.678 204.258 243.388L204.316 243.307C220.334 221.016 215.248 189.962 192.958 173.944L86.5748 97.5003C64.2842 81.4829 33.2296 86.5683 17.2122 108.859Z" fill="#4285F4" stroke="#1E1E1E" stroke-width="9.6" stroke-miterlimit="10"/>
<path d="M391.715 97.4345L285.332 173.878C263.041 189.896 257.956 220.95 273.973 243.241L274.032 243.322C290.049 265.613 321.104 270.698 343.394 254.681L449.777 178.237C472.068 162.219 477.153 131.165 461.136 108.874L461.077 108.793C445.06 86.5025 414.005 81.4171 391.715 97.4345Z" fill="#F9AB00" stroke="#1E1E1E" stroke-width="9.6" stroke-miterlimit="10"/>
<path d="M274.023 32.4332L273.964 32.5144C257.947 54.8049 263.032 85.8596 285.323 101.877L391.706 178.321C413.996 194.338 445.051 189.253 461.068 166.962L461.127 166.881C477.144 144.591 472.059 113.536 449.768 97.5186L343.385 21.0747C321.095 5.05729 290.04 10.1427 274.023 32.4332Z" fill="#34A853" stroke="#1E1E1E" stroke-width="9.6" stroke-miterlimit="10"/>
</g>
<defs>
<clipPath id="clip0_334_29">
<rect width="508" height="282" fill="white"/>
</clipPath>
</defs>
</svg>
