<svg width="2418" height="283" viewBox="0 0 2418 283" fill="none" xmlns="http://www.w3.org/2000/svg">
    <g clip-path="url(#clip0_334_3)">
    <path d="M711.6 25.4C691.7 14.5 668.1 9 640.7 9H553.3V267.5H640.7C668.1 267.5 691.8 262.1 711.6 251.3C731.5 240.5 746.7 225.3 757.5 205.8C768.2 186.3 773.6 163.8 773.6 138.3C773.6 112.8 768.2 90.3 757.5 71C746.8 51.6 731.5 36.5 711.6 25.5V25.4ZM714.9 181.9C708.5 194.4 699 204.1 686.2 211C673.4 217.9 657.6 221.3 638.5 221.3H602V55.2H638.5C657.5 55.2 673.4 58.6 686.2 65.5C699 72.4 708.5 82 714.9 94.4C721.3 106.8 724.5 121.4 724.5 138.3C724.5 155.2 721.3 169.5 714.9 182V181.9Z" fill="white"/>
    <path d="M941.4 90.2C927.9 81.8 911.3 77.6 891.6 77.6C871.9 77.6 857.1 82.1 842.9 91.1C828.7 100.1 817.5 112.1 809.3 127C801.1 141.9 797 158.2 797 175.7C797 193.2 801.2 211.2 809.5 225.9C817.8 240.6 829.2 252.1 843.8 260.6C858.4 269 874.9 273.2 893.4 273.2C911.9 273.2 931.1 268.8 945 260C959 251.2 970.3 239.2 978.9 224.1L940.6 205.3C936.3 212.8 930.2 219 922.5 223.9C914.8 228.8 905.3 231.3 894 231.3C882.7 231.3 875.6 229.1 867.8 224.6C860 220.1 853.8 213.7 849.2 205.1C846.3 199.7 844.4 193.4 843.4 186.5H981.4C981.6 185.3 981.9 183.3 982.1 180.5C982.3 177.7 982.5 174.4 982.5 170.6C982.5 153.5 979 137.9 972 123.8C965 109.7 954.8 98.5 941.3 90L941.4 90.2ZM845.3 153C846.3 149.6 847.4 146.4 848.9 143.4C853.2 134.9 859.2 128.2 866.8 123.4C874.4 118.6 882.7 116.2 891.9 116.2C901.1 116.2 905.1 117.3 910.5 119.6C915.9 121.9 920.5 124.8 924.4 128.4C928.2 132 931.3 136 933.4 140.3C935.5 144.6 936.8 148.8 937 152.9H845.3V153Z" fill="white"/>
    <path d="M1087.1 203.2H1084.2L1037.6 83.4H983.9L1061.8 267.5H1108.8L1187.5 83.4H1134.4L1087.1 203.2Z" fill="white"/>
    <path d="M1210.8 267.5H1259.5V164.2H1363.1V118H1259.5V55.2H1374.7V9H1210.8V267.5Z" fill="white"/>
    <path d="M1533.3 90.2C1519.8 81.8 1503.2 77.6 1483.5 77.6C1463.8 77.6 1449 82.1 1434.8 91.1C1420.6 100.1 1409.4 112.1 1401.2 127C1393 141.9 1388.9 158.2 1388.9 175.7C1388.9 193.2 1393.1 211.2 1401.4 225.9C1409.7 240.6 1421.1 252.1 1435.7 260.6C1450.3 269 1466.8 273.2 1485.3 273.2C1503.8 273.2 1523 268.8 1536.9 260C1550.9 251.2 1562.2 239.2 1570.8 224.1L1532.5 205.3C1528.2 212.8 1522.1 219 1514.4 223.9C1506.7 228.8 1497.2 231.3 1485.9 231.3C1474.6 231.3 1467.5 229.1 1459.7 224.6C1451.9 220.1 1445.7 213.7 1441.1 205.1C1438.2 199.7 1436.3 193.4 1435.3 186.5H1573.3C1573.5 185.3 1573.8 183.3 1574 180.5C1574.2 177.7 1574.4 174.4 1574.4 170.6C1574.4 153.5 1570.9 137.9 1563.9 123.8C1556.9 109.7 1546.7 98.5 1533.2 90L1533.3 90.2ZM1437.3 153C1438.3 149.6 1439.4 146.4 1440.9 143.4C1445.2 134.9 1451.2 128.2 1458.8 123.4C1466.4 118.6 1474.7 116.2 1483.9 116.2C1493.1 116.2 1497.1 117.3 1502.5 119.6C1507.9 121.9 1512.5 124.8 1516.4 128.4C1520.2 132 1523.3 136 1525.4 140.3C1527.6 144.6 1528.8 148.8 1529 152.9H1437.3V153Z" fill="white"/>
    <path d="M1696.4 157.7L1669.3 151.2C1662.6 149.5 1656.8 147 1652 143.6C1647.2 140.2 1644.8 136.3 1644.8 131.7C1644.8 127.1 1647.2 123.6 1652 120.5C1656.8 117.4 1663.3 115.8 1671.5 115.8C1679.7 115.8 1685 117.2 1691.2 120.1C1697.3 123 1702.3 128 1706.2 135.3L1746.6 117.6C1742.3 108.5 1736.5 100.9 1729.3 95C1722.1 89.1 1713.5 84.7 1703.7 81.8C1693.8 78.9 1682.8 77.5 1670.5 77.5C1658.2 77.5 1645.2 79.8 1634.2 84.4C1623.2 89 1614.6 95.4 1608.2 103.5C1601.8 111.7 1598.6 121.3 1598.6 132.4C1598.6 143.5 1601.1 151 1606 158.6C1610.9 166.2 1617.4 172.4 1625.3 177.4C1633.2 182.3 1641.7 185.8 1650.6 187.7L1672.3 192.4C1677.4 193.4 1682.3 194.6 1687.1 196.2C1691.9 197.8 1695.9 199.9 1699.2 202.7C1702.4 205.5 1704.1 209.3 1704.1 214.1C1704.1 218.9 1701 225.5 1694.7 228C1688.4 230.5 1681.5 231.8 1673.8 231.8C1666.1 231.8 1656.2 229.6 1649.2 225.1C1642.2 220.6 1636.7 214.1 1632.6 205.4L1590.4 223.8C1593.8 232.7 1598.9 240.9 1605.9 248.3C1612.9 255.8 1622 261.8 1633.2 266.4C1644.4 271 1657.9 273.3 1673.8 273.3C1689.7 273.3 1701.4 270.8 1713.2 265.9C1725 261 1734.4 254 1741.4 245C1748.4 236 1751.9 225.4 1751.9 213.4C1751.9 201.4 1747.3 188.4 1738 178.7C1728.7 169.1 1715 162.1 1696.7 157.8L1696.4 157.7Z" fill="white"/>
    <path d="M1879 224.4C1875.6 225.5 1872 226 1868.2 226C1860 226 1854.1 223.9 1850.5 219.7C1846.9 215.5 1845.1 208.9 1845.1 200V123.8H1890.2V83.4H1845.1V31.4H1797.8V83.4H1765.7V123.8H1797.8V208.6C1797.8 227.9 1803.2 243 1814 253.9C1824.8 264.9 1839.8 270.3 1858.8 270.3C1877.8 270.3 1870.2 269.8 1875.6 268.7C1881 267.6 1886.4 266.1 1891.7 264.2V218C1886.6 221.1 1882.4 223.2 1879.1 224.3L1879 224.4Z" fill="white"/>
    <path d="M2276.8 9.29999H2091C2019.53 9.29999 1961.6 67.2343 1961.6 138.7C1961.6 210.166 2019.53 268.1 2091 268.1H2276.8C2348.27 268.1 2406.2 210.166 2406.2 138.7C2406.2 67.2343 2348.27 9.29999 2276.8 9.29999Z" fill="white" stroke="#1E1E1E" stroke-width="9.6" stroke-linejoin="round"/>
    <path d="M2089 98.7968H2119.21C2123.48 98.7968 2127.41 99.7326 2131 101.604C2134.67 103.476 2137.59 106.059 2139.76 109.353C2141.93 112.647 2143.02 116.278 2143.02 120.246C2143.02 124.214 2142.01 127.658 2139.98 130.578C2138.04 133.497 2135.45 135.706 2132.24 137.203V137.877C2136.28 139.299 2139.53 141.658 2142.01 144.952C2144.55 148.246 2145.82 152.102 2145.82 156.519C2145.82 160.936 2144.66 164.866 2142.34 168.31C2140.1 171.754 2137.03 174.449 2133.13 176.396C2129.32 178.267 2125.12 179.203 2120.56 179.203H2089V98.7968ZM2118.65 132.487C2122.24 132.487 2125.12 131.364 2127.29 129.118C2129.54 126.872 2130.66 124.289 2130.66 121.369C2130.66 118.449 2129.58 115.904 2127.41 113.733C2125.31 111.487 2122.54 110.364 2119.1 110.364H2101.58V132.487H2118.65ZM2120.56 167.524C2124.37 167.524 2127.41 166.326 2129.65 163.93C2131.97 161.535 2133.13 158.765 2133.13 155.62C2133.13 152.401 2131.94 149.631 2129.54 147.31C2127.22 144.914 2124.07 143.717 2120.11 143.717H2101.58V167.524H2120.56Z" fill="#1E1E1E"/>
    <path d="M2175.46 181C2171.35 181 2167.68 180.214 2164.46 178.642C2161.24 176.995 2158.73 174.711 2156.93 171.791C2155.14 168.797 2154.24 165.428 2154.24 161.684C2154.24 155.77 2156.45 151.091 2160.86 147.647C2165.36 144.203 2171.01 142.481 2177.82 142.481C2181.19 142.481 2184.22 142.818 2186.92 143.492C2189.61 144.091 2191.75 144.765 2193.32 145.513V142.594C2193.32 139.075 2192.01 136.23 2189.39 134.059C2186.77 131.813 2183.4 130.69 2179.28 130.69C2176.36 130.69 2173.59 131.326 2170.97 132.599C2168.43 133.872 2166.37 135.631 2164.79 137.877L2156.15 131.251C2158.69 127.733 2161.99 125 2166.03 123.053C2170.07 121.107 2174.56 120.134 2179.51 120.134C2187.82 120.134 2194.22 122.193 2198.71 126.31C2203.2 130.353 2205.45 136.08 2205.45 143.492V179.203H2193.32V172.353H2192.76C2191.11 174.824 2188.79 176.882 2185.79 178.529C2182.8 180.176 2179.36 181 2175.46 181ZM2177.6 170.781C2180.59 170.781 2183.29 170.07 2185.68 168.647C2188.08 167.225 2189.95 165.316 2191.3 162.92C2192.64 160.524 2193.32 157.941 2193.32 155.171C2191.6 154.198 2189.57 153.412 2187.25 152.813C2185.01 152.214 2182.65 151.914 2180.18 151.914C2175.54 151.914 2172.13 152.85 2169.96 154.722C2167.79 156.519 2166.7 158.877 2166.7 161.797C2166.7 164.417 2167.71 166.588 2169.74 168.31C2171.76 169.957 2174.38 170.781 2177.6 170.781Z" fill="#1E1E1E"/>
    <path d="M2218.91 121.93H2230.7V130.353H2231.26C2232.53 127.433 2234.74 125.037 2237.89 123.166C2241.03 121.219 2244.36 120.246 2247.88 120.246C2250.65 120.246 2252.97 120.62 2254.84 121.369V134.171C2251.55 132.973 2248.59 132.374 2245.97 132.374C2243.13 132.374 2240.58 133.123 2238.34 134.62C2236.17 136.118 2234.44 138.139 2233.17 140.684C2231.9 143.155 2231.26 145.888 2231.26 148.882V179.203H2218.91V121.93Z" fill="#1E1E1E"/>
    <path d="M2271.39 113.62C2269.06 113.62 2267.08 112.834 2265.43 111.262C2263.86 109.615 2263.08 107.631 2263.08 105.31C2263.08 102.989 2263.86 101.043 2265.43 99.4706C2267.08 97.8235 2269.06 97 2271.39 97C2273.71 97 2275.65 97.8235 2277.23 99.4706C2278.87 101.043 2279.7 102.989 2279.7 105.31C2279.7 107.631 2278.87 109.615 2277.23 111.262C2275.65 112.834 2273.71 113.62 2271.39 113.62ZM2265.21 121.93H2277.56V179.203H2265.21V121.93Z" fill="#1E1E1E"/>
    <path d="M134.889 21.0446L28.5061 97.4885C6.21554 113.506 1.13014 144.561 17.1475 166.851L17.2059 166.932C33.2232 189.223 64.2779 194.308 86.5684 178.291L192.951 101.847C215.242 85.8296 220.327 54.7749 204.31 32.4844L204.252 32.4032C188.234 10.1127 157.18 5.02729 134.889 21.0446Z" fill="#EA4335" stroke="#1E1E1E" stroke-width="9.6" stroke-miterlimit="10"/>
    <path d="M17.2122 108.859L17.1539 108.94C1.13649 131.231 6.22189 162.285 28.5124 178.303L134.895 254.747C157.186 270.764 188.241 265.678 204.258 243.388L204.316 243.307C220.334 221.016 215.248 189.962 192.958 173.944L86.5748 97.5003C64.2842 81.4829 33.2296 86.5683 17.2122 108.859Z" fill="#4285F4" stroke="#1E1E1E" stroke-width="9.6" stroke-miterlimit="10"/>
    <path d="M391.715 97.4345L285.332 173.878C263.041 189.896 257.956 220.95 273.973 243.241L274.032 243.322C290.049 265.613 321.104 270.698 343.394 254.681L449.777 178.237C472.068 162.219 477.153 131.165 461.136 108.874L461.077 108.793C445.06 86.5025 414.005 81.4171 391.715 97.4345Z" fill="#F9AB00" stroke="#1E1E1E" stroke-width="9.6" stroke-miterlimit="10"/>
    <path d="M274.023 32.4332L273.964 32.5144C257.947 54.805 263.032 85.8596 285.323 101.877L391.706 178.321C413.996 194.338 445.051 189.253 461.068 166.962L461.127 166.881C477.144 144.591 472.059 113.536 449.768 97.5186L343.385 21.0747C321.095 5.05733 290.04 10.1427 274.023 32.4332Z" fill="#34A853" stroke="#1E1E1E" stroke-width="9.6" stroke-miterlimit="10"/>
    </g>
    <defs>
    <clipPath id="clip0_334_3">
    <rect width="2417.4" height="282.3" fill="white"/>
    </clipPath>
    </defs>
    </svg>
    