<svg width="436" height="152" viewBox="0 0 436 152" fill="none" xmlns="http://www.w3.org/2000/svg">
<path d="M336.943 107.517H98.6037C87.0612 107.517 77.7041 116.88 77.7041 128.431C77.7041 139.981 87.0612 149.345 98.6037 149.345H336.943C348.485 149.345 357.842 139.981 357.842 128.431C357.842 116.88 348.485 107.517 336.943 107.517Z" fill="white" stroke="#1E1E1E" stroke-width="5" stroke-miterlimit="10"/>
<path d="M239.847 136.392V123.688H241.798V136.392H239.847ZM240.839 121.571C240.459 121.571 240.131 121.442 239.855 121.182C239.585 120.923 239.45 120.612 239.45 120.248C239.45 119.884 239.585 119.572 239.855 119.313C240.131 119.054 240.459 118.924 240.839 118.924C241.219 118.924 241.544 119.054 241.814 119.313C242.09 119.572 242.227 119.884 242.227 120.248C242.227 120.612 242.09 120.923 241.814 121.182C241.544 121.442 241.219 121.571 240.839 121.571Z" fill="#1E1E1E"/>
<path d="M231.187 136.393V123.688H233.071V125.607H233.204C233.435 124.979 233.854 124.469 234.46 124.077C235.066 123.686 235.749 123.49 236.51 123.49C236.653 123.49 236.832 123.493 237.047 123.498C237.262 123.504 237.425 123.512 237.535 123.523V125.508C237.469 125.492 237.317 125.467 237.08 125.434C236.849 125.395 236.603 125.376 236.345 125.376C235.727 125.376 235.176 125.505 234.691 125.764C234.212 126.018 233.832 126.371 233.551 126.823C233.275 127.27 233.138 127.78 233.138 128.353V136.393H231.187Z" fill="#1E1E1E"/>
<path d="M221.808 136.69C221.004 136.69 220.273 136.539 219.618 136.235C218.962 135.927 218.441 135.483 218.056 134.904C217.67 134.319 217.477 133.614 217.477 132.786C217.477 132.059 217.62 131.469 217.907 131.016C218.193 130.559 218.576 130.2 219.056 129.941C219.535 129.682 220.064 129.489 220.643 129.362C221.227 129.23 221.814 129.125 222.403 129.048C223.175 128.949 223.8 128.874 224.279 128.825C224.764 128.77 225.117 128.679 225.337 128.552C225.563 128.425 225.676 128.204 225.676 127.89V127.824C225.676 127.008 225.453 126.374 225.007 125.922C224.566 125.469 223.896 125.243 222.998 125.243C222.067 125.243 221.337 125.447 220.808 125.855C220.279 126.263 219.907 126.699 219.692 127.162L217.841 126.501C218.171 125.729 218.612 125.128 219.163 124.698C219.72 124.262 220.326 123.959 220.982 123.788C221.643 123.611 222.293 123.523 222.932 123.523C223.34 123.523 223.808 123.573 224.337 123.672C224.872 123.766 225.387 123.961 225.883 124.259C226.384 124.557 226.8 125.006 227.131 125.607C227.461 126.208 227.627 127.013 227.627 128.022V136.393H225.676V134.672H225.577C225.445 134.948 225.224 135.243 224.916 135.557C224.607 135.871 224.197 136.139 223.684 136.359C223.172 136.58 222.546 136.69 221.808 136.69ZM222.106 134.937C222.877 134.937 223.527 134.785 224.056 134.482C224.591 134.179 224.993 133.787 225.263 133.307C225.538 132.828 225.676 132.323 225.676 131.794V130.007C225.594 130.107 225.412 130.198 225.131 130.28C224.855 130.358 224.536 130.426 224.172 130.487C223.814 130.542 223.464 130.592 223.122 130.636C222.786 130.675 222.513 130.708 222.304 130.735C221.797 130.801 221.323 130.909 220.882 131.058C220.447 131.201 220.094 131.419 219.824 131.711C219.56 131.998 219.428 132.389 219.428 132.886C219.428 133.564 219.678 134.077 220.18 134.424C220.687 134.766 221.329 134.937 222.106 134.937Z" fill="#1E1E1E"/>
<path d="M203.199 136.392V119.454H209.117C210.296 119.454 211.269 119.658 212.035 120.066C212.8 120.468 213.371 121.011 213.745 121.695C214.12 122.373 214.307 123.126 214.307 123.953C214.307 124.681 214.178 125.282 213.919 125.756C213.666 126.23 213.329 126.605 212.911 126.881C212.497 127.157 212.048 127.361 211.563 127.493V127.658C212.081 127.692 212.602 127.873 213.126 128.204C213.649 128.535 214.087 129.009 214.44 129.627C214.792 130.244 214.969 131 214.969 131.893C214.969 132.742 214.776 133.506 214.39 134.184C214.004 134.862 213.396 135.4 212.563 135.797C211.731 136.194 210.649 136.392 209.315 136.392H203.199ZM205.249 134.573H209.315C210.654 134.573 211.605 134.314 212.167 133.795C212.734 133.272 213.018 132.637 213.018 131.893C213.018 131.32 212.872 130.79 212.58 130.305C212.288 129.814 211.872 129.423 211.332 129.131C210.792 128.833 210.153 128.684 209.414 128.684H205.249V134.573ZM205.249 126.898H209.051C209.668 126.898 210.224 126.776 210.72 126.534C211.222 126.291 211.618 125.949 211.911 125.508C212.208 125.067 212.357 124.549 212.357 123.953C212.357 123.209 212.098 122.577 211.58 122.059C211.062 121.535 210.241 121.273 209.117 121.273H205.249V126.898Z" fill="#1E1E1E"/>
<path d="M431.042 93.0315H423.487C422.845 93.0315 422.21 93.1581 421.618 93.4041C421.025 93.6501 420.487 94.0106 420.034 94.465C419.581 94.9194 419.222 95.4588 418.978 96.0522C418.734 96.6457 418.609 97.2815 418.61 97.9233V124.959C418.607 131.426 416.038 137.628 411.467 142.201C406.896 146.773 400.698 149.343 394.235 149.344H378.957C378.44 149.344 377.944 149.139 377.578 148.773C377.213 148.407 377.007 147.911 377.007 147.394V120.006C377.007 119.488 377.213 118.992 377.578 118.625C377.944 118.259 378.439 118.053 378.957 118.052H389.702C390.995 118.052 392.236 117.538 393.15 116.623C394.065 115.708 394.578 114.467 394.578 113.172V39.1598C394.578 37.8657 394.065 36.6245 393.15 35.7094C392.236 34.7943 390.995 34.2802 389.702 34.2802H378.957C378.439 34.2794 377.944 34.0732 377.578 33.7069C377.213 33.3406 377.007 32.8442 377.007 32.3266V4.95061C377.007 4.43327 377.213 3.93713 377.578 3.57132C377.944 3.20551 378.44 3 378.957 3H394.235C400.701 3.00081 406.902 5.57156 411.474 10.1469C416.047 14.7222 418.616 20.9274 418.616 27.3979V55.6541C418.616 56.9482 419.13 58.1894 420.045 59.1045C420.959 60.0196 422.199 60.5336 423.493 60.5336H431.048C431.565 60.5336 432.061 60.7391 432.427 61.1048C432.793 61.4705 432.999 61.9666 433 62.4843V91.0809C433 91.3377 432.949 91.5919 432.85 91.829C432.751 92.0661 432.607 92.2813 432.425 92.4625C432.243 92.6437 432.027 92.7872 431.79 92.8848C431.552 92.9824 431.298 93.0323 431.042 93.0315Z" fill="#EA4335" stroke="#1E1E1E" stroke-width="5" stroke-miterlimit="10"/>
<path d="M352.013 77.8131C351.305 78.0371 350.567 78.1479 349.824 78.1413C348.173 78.1413 346.982 77.716 346.251 76.8654C345.519 76.0148 345.155 74.6858 345.157 72.8783V57.4882H354.275V49.3146H345.157V38.8041H335.603V49.3146H329.112V57.4882H335.603V74.6388C335.603 78.5236 336.697 81.5773 338.886 83.7999C341.074 86.0224 344.088 87.1286 347.927 87.1184C349.068 87.1226 350.207 87.0126 351.326 86.7902C352.43 86.5668 353.515 86.2592 354.572 85.8701V76.5373C353.771 77.0608 352.913 77.489 352.013 77.8131Z" fill="#1E1E1E"/>
<path d="M315.117 64.3489L309.643 63.0362C308.393 62.7441 307.206 62.2243 306.143 61.5027C305.169 60.8218 304.682 60.0193 304.684 59.0951C304.684 58.218 305.171 57.4635 306.143 56.8317C307.116 56.1999 308.429 55.884 310.082 55.884C311.458 55.8747 312.82 56.1734 314.066 56.7581C315.304 57.3408 316.313 58.3631 317.091 59.8251L325.259 56.249C324.45 54.4839 323.254 52.924 321.759 51.6853C320.23 50.4581 318.469 49.5526 316.582 49.0231C314.398 48.4125 312.138 48.1171 309.87 48.146C307.36 48.1155 304.868 48.5868 302.542 49.5322C300.485 50.3428 298.674 51.6757 297.289 53.3997C296 55.0651 295.319 57.1211 295.358 59.227C295.322 61.0999 295.842 62.9413 296.854 64.5176C297.854 66.0623 299.187 67.3638 300.755 68.3268C302.324 69.31 304.052 70.0136 305.861 70.4062L310.235 71.3539C311.247 71.5476 312.246 71.8036 313.226 72.1206C314.122 72.3937 314.955 72.8408 315.678 73.4364C316.005 73.7197 316.264 74.0737 316.434 74.4717C316.605 74.8696 316.683 75.3011 316.662 75.7335C316.698 76.3448 316.531 76.9508 316.189 77.4584C315.847 77.966 315.348 78.347 314.768 78.5429C313.42 79.0699 311.982 79.3303 310.535 79.3096C308.786 79.3511 307.063 78.8822 305.576 77.9602C304.099 76.9813 302.935 75.597 302.223 73.9731L293.675 77.7056C294.383 79.5507 295.448 81.2373 296.811 82.668C298.363 84.2705 300.246 85.5159 302.328 86.3177C304.589 87.2399 307.324 87.7019 310.532 87.704C313.256 87.7407 315.959 87.2318 318.483 86.2073C320.717 85.3208 322.679 83.861 324.171 81.9749C325.581 80.1491 326.327 77.8966 326.286 75.5894C326.307 74.2931 326.07 73.0056 325.588 71.8022C325.106 70.5988 324.389 69.5038 323.478 68.5813C321.599 66.6368 318.812 65.226 315.117 64.3489Z" fill="#1E1E1E"/>
<path d="M282.173 50.6916C279.441 48.9945 276.086 48.146 272.108 48.146C268.411 48.146 265.13 49.0589 262.263 50.8848C259.417 52.6824 257.082 55.1824 255.481 58.1444C253.825 61.1629 252.971 64.5556 252.998 67.9986C252.998 71.7935 253.837 75.1744 255.514 78.1412C257.146 81.0631 259.541 83.4857 262.444 85.1492C265.386 86.8504 268.729 87.702 272.472 87.704C276.604 87.704 280.077 86.8156 282.893 85.0388C285.748 83.2275 288.104 80.731 289.749 77.7762L282.016 73.9823C281.125 75.5106 279.878 76.8006 278.381 77.7424C276.825 78.7402 274.904 79.2381 272.619 79.2361C270.768 79.2613 268.943 78.7957 267.329 77.8866C265.725 76.9614 264.422 75.5931 263.575 73.9455C262.963 72.771 262.557 71.5002 262.374 70.1884H290.264C290.313 69.9431 290.362 69.5444 290.411 68.9831C290.46 68.4219 290.485 67.7563 290.485 66.9773C290.526 63.7046 289.802 60.4675 288.37 57.5248C286.989 54.7084 284.84 52.3397 282.173 50.6916ZM262.75 63.4012C262.941 62.7341 263.194 62.0862 263.504 61.4659C264.317 59.8116 265.565 58.4108 267.115 57.4144C268.628 56.4472 270.389 55.9401 272.184 55.9546C273.466 55.9334 274.74 56.169 275.93 56.6477C276.965 57.0724 277.916 57.6778 278.74 58.4357C279.486 59.1242 280.102 59.9406 280.561 60.8464C280.975 61.6393 281.224 62.5087 281.29 63.4012H262.75Z" fill="#1E1E1E"/>
<path d="M217.007 86.5356H226.854V65.6617H247.785V56.3197H226.854V43.6223H250.117V34.2803H217.007V86.5356Z" fill="#1E1E1E"/>
<path d="M192.028 73.5438H191.445L182.036 49.3146H171.168L186.922 86.5356H196.404L212.302 49.3146H201.581L192.028 73.5438Z" fill="#1E1E1E"/>
<path d="M162.592 50.6916C159.869 48.9884 156.514 48.1368 152.527 48.1368C148.831 48.1368 145.549 49.0498 142.68 50.8757C139.835 52.6744 137.499 55.1741 135.897 58.1352C134.241 61.1567 133.385 64.5524 133.411 67.9987C133.411 71.7935 134.25 75.1744 135.928 78.1412C137.559 81.0631 139.955 83.4857 142.858 85.1493C145.8 86.8504 149.143 87.702 152.886 87.7041C157.017 87.7041 160.491 86.8157 163.307 85.0388C166.171 83.2311 168.538 80.7343 170.19 77.7762L162.458 73.9824C161.564 75.5125 160.312 76.8028 158.81 77.7425C157.257 78.7403 155.338 79.2382 153.051 79.2361C151.2 79.2613 149.375 78.7957 147.761 77.8866C146.157 76.9614 144.854 75.5931 144.007 73.9456C143.395 72.771 142.989 71.5003 142.805 70.1885H170.696C170.745 69.9431 170.794 69.5444 170.843 68.9832C170.892 68.4219 170.917 67.7564 170.917 66.9774C170.957 63.7044 170.232 60.4673 168.799 57.5249C167.416 54.7064 165.265 52.3373 162.592 50.6916ZM143.167 63.392C143.358 62.7249 143.61 62.077 143.921 61.4568C144.733 59.8025 145.982 58.4016 147.532 57.4053C149.045 56.4381 150.806 55.9309 152.601 55.9454C153.886 55.923 155.163 56.1587 156.355 56.6385C157.39 57.0632 158.34 57.6686 159.163 58.4266C159.916 59.1128 160.539 59.9295 161.002 60.8372C161.417 61.6301 161.665 62.4996 161.731 63.392H143.167Z" fill="#1E1E1E"/>
<path d="M116.171 37.6018C112.161 35.3875 107.384 34.2803 101.843 34.2803H84.1892V86.5356H101.843C107.384 86.5356 112.162 85.4407 116.175 83.2509C120.093 81.1536 123.312 77.9553 125.437 74.0499C127.601 70.1099 128.682 65.5605 128.682 60.4018C128.682 55.2431 127.603 50.7081 125.443 46.7967C123.301 42.9029 120.082 39.7103 116.171 37.6018ZM116.827 69.2378C115.556 71.7518 113.532 73.8061 111.038 75.1142C108.459 76.5005 105.25 77.1936 101.411 77.1936H94.0551V43.6377H101.411C105.25 43.6377 108.459 44.3308 111.038 45.7171C113.526 47.0133 115.552 49.049 116.837 51.5444C118.124 54.0491 118.767 57.0046 118.767 60.411C118.761 63.7684 118.115 66.7106 116.827 69.2378Z" fill="#1E1E1E"/>
<path d="M4.94928 93.0315H12.5073C13.1486 93.0319 13.7835 93.1588 14.3758 93.4049C14.968 93.651 15.5059 94.0116 15.9588 94.4659C16.4117 94.9202 16.7706 95.4594 17.0151 96.0527C17.2596 96.6459 17.3848 97.2816 17.3836 97.9233V124.959C17.3848 128.162 18.0166 131.334 19.2428 134.294C20.469 137.253 22.2657 139.941 24.5303 142.206C26.7949 144.47 29.483 146.266 32.4412 147.491C35.3993 148.716 38.5696 149.346 41.771 149.344H57.0496C57.3056 149.344 57.559 149.294 57.7955 149.196C58.032 149.098 58.2469 148.954 58.4279 148.773C58.6089 148.592 58.7525 148.377 58.8505 148.14C58.9484 147.904 58.9989 147.65 58.9989 147.394V120.006C58.9989 119.488 58.7936 118.992 58.4281 118.625C58.0626 118.259 57.5668 118.053 57.0496 118.052H46.2979C45.0046 118.052 43.7643 117.538 42.8498 116.623C41.9354 115.708 41.4216 114.467 41.4216 113.172V39.1598C41.4216 37.8657 41.9354 36.6245 42.8498 35.7094C43.7643 34.7943 45.0046 34.2802 46.2979 34.2802H57.0434C57.5607 34.2794 58.0565 34.0732 58.422 33.7069C58.7874 33.3406 58.9927 32.8442 58.9927 32.3266V4.95061C58.9927 4.43327 58.7873 3.93713 58.4218 3.57132C58.0562 3.20551 57.5604 3 57.0434 3H41.771C38.5687 2.9992 35.3976 3.62967 32.4388 4.85542C29.48 6.08117 26.7915 7.87818 24.5269 10.1438C22.2622 12.4094 20.4658 15.0993 19.2401 18.0598C18.0144 21.0203 17.3836 24.1934 17.3836 27.3979V55.6541C17.3828 56.948 16.8688 58.1886 15.9545 59.1036C15.0402 60.0185 13.8003 60.5328 12.5073 60.5336H4.94928C4.4323 60.5336 3.93649 60.7392 3.57093 61.105C3.20537 61.4708 3 61.9669 3 62.4843V91.0809C3 91.5982 3.20537 92.0943 3.57093 92.4601C3.93649 92.826 4.4323 93.0315 4.94928 93.0315Z" fill="#EA4335" stroke="#1E1E1E" stroke-width="5" stroke-miterlimit="10"/>
</svg>
