<svg width="1440" height="546" viewBox="0 0 1440 546" fill="none" xmlns="http://www.w3.org/2000/svg">
<path d="M356.118 493.607L595.918 356.866L356.118 493.607Z" fill="#F9AB00"/>
<path d="M356.118 493.607L595.918 356.866" stroke="#F9AB00" stroke-miterlimit="10"/>
<path d="M374.067 494.817L595.515 361.706L374.067 494.817Z" fill="#F9AB00"/>
<path d="M374.067 494.817L595.515 361.706" stroke="#F9AB00" stroke-miterlimit="10"/>
<path d="M399.479 494.212L596.321 365.942L399.479 494.212Z" fill="#F9AB00"/>
<path d="M399.479 494.212L596.321 365.942" stroke="#F9AB00" stroke-miterlimit="10"/>
<path d="M422.27 495.624L597.128 369.976L422.27 495.624Z" fill="#F9AB00"/>
<path d="M422.27 495.624L597.128 369.976" stroke="#F9AB00" stroke-miterlimit="10"/>
<path d="M445.866 496.834L596.12 377.236L445.866 496.834Z" fill="#F9AB00"/>
<path d="M445.866 496.834L596.12 377.236" stroke="#F9AB00" stroke-miterlimit="10"/>
<path d="M467.245 494.01L597.33 381.875L467.245 494.01Z" fill="#F9AB00"/>
<path d="M467.245 494.01L597.33 381.875" stroke="#F9AB00" stroke-miterlimit="10"/>
<path d="M484.791 495.422L597.733 388.934L484.791 495.422Z" fill="#F9AB00"/>
<path d="M484.791 495.422L597.733 388.934" stroke="#F9AB00" stroke-miterlimit="10"/>
<path d="M499.312 499.859L600.153 395.387L499.312 499.859Z" fill="#F9AB00"/>
<path d="M499.312 499.859L600.153 395.387" stroke="#F9AB00" stroke-miterlimit="10"/>
<path d="M518.875 495.624L603.582 399.824L518.875 495.624Z" fill="#F9AB00"/>
<path d="M518.875 495.624L603.582 399.824" stroke="#F9AB00" stroke-miterlimit="10"/>
<path d="M612.658 393.169L764.928 495.624L612.658 393.169Z" fill="#F9AB00"/>
<path d="M612.658 393.169L764.928 495.624" stroke="#F9AB00" stroke-miterlimit="10"/>
<path d="M796.592 495.22L611.649 387.119L796.592 495.22Z" fill="#F9AB00"/>
<path d="M796.592 495.22L611.649 387.119" stroke="#F9AB00" stroke-miterlimit="10"/>
<path d="M827.046 494.615L617.498 384.093L827.046 494.615Z" fill="#F9AB00"/>
<path d="M827.046 494.615L617.498 384.093" stroke="#F9AB00" stroke-miterlimit="10"/>
<path d="M994.442 498.649L618.506 356.664L994.442 498.649Z" fill="#F9AB00"/>
<path d="M994.442 498.649L618.506 356.664" stroke="#F9AB00" stroke-miterlimit="10"/>
<path d="M969.636 498.649L618.91 361.505L969.636 498.649Z" fill="#F9AB00"/>
<path d="M969.636 498.649L618.91 361.505" stroke="#F9AB00" stroke-miterlimit="10"/>
<path d="M942.61 499.254L618.103 365.942L942.61 499.254Z" fill="#F9AB00"/>
<path d="M942.61 499.254L618.103 365.942" stroke="#F9AB00" stroke-miterlimit="10"/>
<path d="M899.853 496.43L617.296 369.976L899.853 496.43Z" fill="#F9AB00"/>
<path d="M899.853 496.43L617.296 369.976" stroke="#F9AB00" stroke-miterlimit="10"/>
<path d="M864.761 496.027L618.305 377.034L864.761 496.027Z" fill="#F9AB00"/>
<path d="M864.761 496.027L618.305 377.034" stroke="#F9AB00" stroke-miterlimit="10"/>
<path d="M617.095 402.85L733.264 498.649L617.095 402.85Z" fill="#F9AB00"/>
<path d="M617.095 402.85L733.264 498.649" stroke="#F9AB00" stroke-miterlimit="10"/>
<path d="M701.599 502.279L616.893 406.279L701.599 502.279Z" fill="#F9AB00"/>
<path d="M701.599 502.279L616.893 406.279" stroke="#F9AB00" stroke-miterlimit="10"/>
<path fill-rule="evenodd" clip-rule="evenodd" d="M1010.17 511.556H646.54L656.221 545.237H626.17L620.927 511.556H593.296L588.052 545.237H558.002L567.682 511.556H342L355.916 493.001H573.128L594.305 419.589V325H619.918V419.589L641.095 493.001H1027.32L1010.17 511.556ZM618.305 493.001L609.834 437.337H604.389L596.12 493.001H618.305Z" fill="#F9AB00" stroke="#F9AB00" stroke-miterlimit="10"/>
<path d="M256.881 268.563C256.881 278.805 248.576 287.109 238.058 287.109C227.816 287.109 219.511 278.805 219.511 268.563C219.511 258.044 227.816 249.74 238.058 249.74C248.576 249.74 256.881 258.044 256.881 268.563Z" fill="#4285F4"/>
<path d="M236.12 269.671L235.013 271.609L238.058 268.564L236.12 269.671Z" stroke="#4285F4" stroke-miterlimit="10"/>
<path d="M238.057 268.564L236.673 268.841L236.12 269.671L238.057 268.564Z" stroke="#4285F4" stroke-miterlimit="10"/>
<path d="M388.919 181.368C381.168 168.081 372.033 156.178 361.238 145.383L238.057 268.563L388.919 181.368Z" stroke="#4285F4" stroke-miterlimit="10"/>
<path d="M237.78 268.286L237.227 268.01L236.95 268.286H237.78Z" stroke="#4285F4" stroke-miterlimit="10"/>
<path d="M237.781 268.287L238.059 268.564" stroke="#4285F4" stroke-miterlimit="10"/>
<path d="M237.781 268.287L238.059 268.565L237.504 268.01L237.781 268.287Z" stroke="#4285F4" stroke-miterlimit="10"/>
<path d="M237.505 268.01L237.227 267.733V268.01L237.782 268.288L237.505 268.01Z" stroke="#4285F4" stroke-miterlimit="10"/>
<path d="M239.164 264.134L238.057 266.071V268.563L239.164 264.134Z" stroke="#4285F4" stroke-miterlimit="10"/>
<path d="M238.058 268.564V266.072L237.781 266.903L238.058 268.564Z" stroke="#4285F4" stroke-miterlimit="10"/>
<path d="M238.058 268.563L237.781 266.903L237.504 267.456V268.01L238.058 268.563Z" stroke="#4285F4" stroke-miterlimit="10"/>
<path d="M237.505 267.456L237.227 267.734L237.505 268.011V267.456Z" stroke="#4285F4" stroke-miterlimit="10"/>
<path d="M237.78 268.287H236.95V268.563H238.057L237.78 268.287Z" stroke="#4285F4" stroke-miterlimit="10"/>
<path d="M238.059 268.564L237.781 268.287" stroke="#4285F4" stroke-miterlimit="10"/>
<path d="M238.057 268.564H236.95L236.673 268.841L238.057 268.564Z" stroke="#4285F4" stroke-miterlimit="10"/>
<path d="M406.358 223.443L238.057 268.564M238.057 268.564H412.171C412.171 236.73 403.867 207.112 388.919 181.368L238.057 268.564Z" stroke="#4285F4" stroke-miterlimit="10"/>
<path d="M238.057 268.564L406.358 313.407M238.057 268.564L388.919 355.482C403.867 330.016 412.171 300.12 412.171 268.564H238.057Z" stroke="#4285F4" stroke-miterlimit="10"/>
<path d="M238.057 268.564V268.841" stroke="#4285F4" stroke-miterlimit="10"/>
<path d="M238.057 268.841V268.564" stroke="#4285F4" stroke-miterlimit="10"/>
<path d="M238.058 268.841L193.214 436.588M238.058 268.841V268.564L235.013 271.609M238.058 268.841V442.678C190.17 442.678 146.433 423.024 115.154 391.468L235.013 271.609M235.013 271.609L150.032 417.211" stroke="#4285F4" stroke-miterlimit="10"/>
<path d="M238.335 269.119L238.057 268.564V268.841L238.335 269.119Z" stroke="#4285F4" stroke-miterlimit="10"/>
<path d="M238.334 269.117L325.529 418.595M238.334 269.117L283.177 436.588M238.334 269.117L238.057 268.841V442.678C286.222 442.678 329.681 423.024 361.238 391.468L238.057 268.564L238.334 269.117Z" stroke="#4285F4" stroke-miterlimit="10"/>
<path d="M361.238 391.468C372.033 380.949 381.168 368.769 388.919 355.482L238.057 268.564L361.238 391.468Z" stroke="#4285F4" stroke-miterlimit="10"/>
<path d="M236.12 269.67L87.4727 355.482C94.9465 368.769 104.358 380.948 115.154 391.467L235.013 271.608L236.12 269.67Z" stroke="#4285F4" stroke-miterlimit="10"/>
<path d="M236.673 268.841L70.0334 313.407M236.673 268.841L236.95 268.564H63.9436C63.9436 300.12 72.5247 330.016 87.4725 355.482L236.12 269.671L236.673 268.841Z" stroke="#4285F4" stroke-miterlimit="10"/>
<path d="M239.164 264.134L283.177 100.262M239.164 264.134L324.976 117.424C299.232 102.753 269.614 94.449 238.057 94.449V266.072L239.164 264.134Z" stroke="#4285F4" stroke-miterlimit="10"/>
<path d="M237.781 266.902L193.214 100.262M237.781 266.902L238.058 266.072V94.449C206.224 94.449 176.052 103.03 150.309 118.255L237.504 267.456L237.781 266.902Z" stroke="#4285F4" stroke-miterlimit="10"/>
<path d="M237.504 267.456L150.309 118.255C137.299 125.729 125.673 134.863 115.154 145.382L237.227 267.733L237.504 267.456Z" stroke="#4285F4" stroke-miterlimit="10"/>
<path d="M237.227 267.733L115.154 145.383C104.358 156.178 94.9465 168.081 87.4727 181.368L237.227 268.01V267.733Z" stroke="#4285F4" stroke-miterlimit="10"/>
<path d="M236.95 268.287L70.0334 223.443M236.95 268.287L237.227 268.01L87.4725 181.368C72.5247 207.112 63.9436 236.73 63.9436 268.564H236.95V268.287Z" stroke="#4285F4" stroke-miterlimit="10"/>
<path d="M238.057 268.563L361.238 145.382C350.442 134.587 338.263 125.175 324.976 117.425L239.164 264.134L238.057 268.563Z" stroke="#4285F4" stroke-miterlimit="10"/>
<path d="M292.312 70.3667C284.838 68.1522 277.087 71.4739 273.212 77.8405L305.322 86.4217C304.768 78.9478 299.786 72.3043 292.312 70.3667Z" fill="#4285F4"/>
<path d="M249.683 76.1797H255.219C253.005 69.2594 246.361 64 238.611 64C230.86 64 224.216 69.2594 222.002 76.1797H226.708C230.399 75.9951 234.182 75.9029 238.057 75.9029C241.932 75.9029 245.808 75.9951 249.683 76.1797Z" fill="#4285F4"/>
<path d="M184.078 70.3667C176.328 72.3043 171.345 78.9478 171.068 86.4217L203.178 77.8405C199.026 71.4739 191.552 68.1522 184.078 70.3667Z" fill="#4285F4"/>
<path d="M155.844 93.0651C150.308 88.0825 142.004 86.9753 135.36 90.8506C128.717 94.726 125.395 102.477 127.056 109.674L155.844 93.0651Z" fill="#4285F4"/>
<path d="M118.198 117.425C111.831 113.55 103.527 114.103 97.7137 119.363C91.9006 124.622 90.5166 132.926 93.5615 139.57L108.232 126.283C108.602 126.098 108.878 125.822 109.063 125.453L118.198 117.425Z" fill="#4285F4"/>
<path d="M430.994 254.722V287.94C438.191 285.725 443.174 279.082 443.174 271.331C443.174 263.58 438.191 256.937 430.994 254.722Z" fill="#4285F4"/>
<path d="M80.2751 155.901C73.078 154.24 65.3273 157.285 61.4519 164.205C57.5766 170.849 58.6838 179.153 63.6664 184.413L80.2751 155.901Z" fill="#4285F4"/>
<path d="M47.8878 232.854L56.4689 200.744C49.2719 201.021 42.6284 206.004 40.4139 213.477C38.4762 221.228 41.798 228.702 47.8878 232.854Z" fill="#4285F4"/>
<path d="M45.1196 251.954C38.1993 254.169 32.9399 260.535 32.9399 268.563C32.9399 276.314 38.1993 282.68 45.1196 284.895V251.954Z" fill="#4285F4"/>
<path d="M39.5831 322.541C41.7976 330.015 48.441 334.998 55.9149 335.275L47.3338 303.441C40.9671 307.317 37.6454 315.067 39.5831 322.541Z" fill="#4285F4"/>
<path d="M60.6211 372.09C64.4964 378.734 72.2471 381.779 79.4442 380.395L63.1124 351.606C57.853 357.143 56.7457 365.447 60.6211 372.09Z" fill="#4285F4"/>
<path d="M96.8828 417.211C102.419 422.747 110.723 423.854 117.367 420.256L93.8379 397.003C90.5162 403.37 91.6234 411.674 96.8828 417.211Z" fill="#4285F4"/>
<path d="M134.529 445.999C141.45 449.874 149.477 448.767 155.013 443.784L126.225 427.176C124.841 434.373 127.886 442.123 134.529 445.999Z" fill="#4285F4"/>
<path d="M184.078 466.76C191.552 468.697 199.026 465.376 203.178 459.009L171.068 450.705C171.345 457.902 176.328 464.545 184.078 466.76Z" fill="#4285F4"/>
<path d="M221.448 460.393C223.663 467.036 230.03 472.019 237.78 472.019C245.254 472.019 251.621 467.313 254.112 460.393C248.945 460.762 243.593 460.946 238.057 460.946C232.521 460.946 226.985 460.762 221.448 460.393Z" fill="#4285F4"/>
<path d="M292.588 467.037C300.062 465.099 305.045 458.455 305.322 450.981L273.212 459.563C277.364 465.929 284.838 468.974 292.588 467.037Z" fill="#4285F4"/>
<path d="M321.377 443.784C326.913 448.767 334.94 449.874 341.861 445.999C348.504 442.123 351.549 434.373 349.888 427.176L321.377 443.784Z" fill="#4285F4"/>
<path d="M384.213 393.958C377.939 401.156 371.295 407.799 364.283 413.889C370.926 417.487 378.954 416.38 384.49 410.844C390.026 405.308 391.133 397.003 387.535 390.637L384.213 393.958Z" fill="#4285F4"/>
<path d="M396.393 380.118C403.59 381.502 411.341 378.457 415.216 371.814C419.092 364.893 417.707 356.866 412.725 351.33L396.393 380.118Z" fill="#4285F4"/>
<path d="M427.395 306.209L418.814 338.319C426.288 338.042 432.931 333.06 435.146 325.586C437.083 317.835 433.762 310.361 427.395 306.209Z" fill="#4285F4"/>
<path d="M428.226 233.685C434.316 229.533 437.637 222.059 435.7 214.308C433.762 206.834 427.118 201.852 419.645 201.575L423.52 216.246C424.073 218.276 424.627 220.213 425.181 222.059L428.226 233.685Z" fill="#4285F4"/>
<path d="M414.939 164.759C411.064 157.838 403.313 154.793 396.116 156.454L412.725 185.243C417.707 179.706 418.814 171.402 414.939 164.759Z" fill="#4285F4"/>
<path d="M385.32 125.175C379.784 119.639 371.48 118.809 365.113 122.13L388.365 145.659C391.964 139.016 390.856 130.711 385.32 125.175Z" fill="#4285F4"/>
<path d="M341.585 91.1275C334.941 87.2521 326.637 88.6361 321.101 93.6187L349.889 110.227C351.55 103.03 348.228 95.2796 341.585 91.1275Z" fill="#4285F4"/>
<path d="M384.213 393.958C413.278 360.187 430.718 316.451 430.718 268.563C430.718 252.508 428.78 237.006 425.181 222.059C424.628 220.213 424.074 218.276 423.52 216.246C401.929 138.739 332.727 81.162 249.683 76.1794H226.708C181.588 78.9476 140.62 96.9403 109.063 125.452C108.879 125.821 108.602 126.098 108.233 126.282C69.7564 161.437 45.6738 212.093 45.6738 268.563C45.6738 369.045 122.904 451.812 221.449 460.393C221.264 460.208 221.172 460.024 221.172 459.839H254.389C254.205 460.024 254.112 460.208 254.112 460.393C296.188 456.794 334.111 439.909 364.283 413.888L384.213 393.958Z" stroke="#4285F4" stroke-miterlimit="10"/>
<path d="M238.057 75.9031C234.181 75.9031 230.398 75.9953 226.708 76.1799H249.683C245.807 75.9953 241.932 75.9031 238.057 75.9031Z" fill="#4285F4"/>
<path d="M221.171 459.839C221.171 460.024 221.264 460.208 221.448 460.393C226.984 460.762 232.521 460.946 238.057 460.946C243.593 460.946 248.945 460.762 254.112 460.393C254.112 460.208 254.204 460.024 254.389 459.839H221.171Z" fill="#4285F4"/>
<path d="M384.213 393.958L364.283 413.888C371.295 407.798 377.939 401.155 384.213 393.958Z" fill="#4285F4"/>
<path d="M80.2751 541.775L238.057 268.563" stroke="#4285F4" stroke-width="2" stroke-miterlimit="10"/>
<path d="M395.839 541.498L238.057 268.563" stroke="#4285F4" stroke-width="2" stroke-miterlimit="10"/>
<path d="M476.391 545.097H0L56.4694 491.949H419.645L476.391 545.097Z" fill="#4285F4" stroke="#4285F4" stroke-width="0.8" stroke-miterlimit="10"/>
<path d="M1269.99 413.634V453.296H1265.58V398.944L1183.32 351.518V433.57H1179.33V289.821L1118.9 234L1058.25 289.821V433.57H1054.26V351.518L972 398.944V544.582L1058.25 545.002H1179.33L1227.18 544.792V545.002H1309.44V544.582H1352.25V413.634H1269.99Z" fill="#EA4335"/>
<path d="M1108.82 308.078C1148.7 287.512 1147.02 321.089 1109.45 296.956C1147.02 321.089 1117.22 336.618 1119.32 291.709C1117.22 336.618 1088.89 318.361 1128.76 297.795C1088.89 318.361 1090.57 284.784 1128.13 309.127C1090.57 284.784 1120.37 269.255 1118.27 314.164C1120.37 269.255 1148.7 287.512 1108.82 308.078Z" fill="white"/>
<path d="M1113.65 292.969C1134.22 332.841 1100.64 331.372 1124.77 293.598C1100.64 331.372 1085.11 301.363 1130.02 303.461C1085.11 301.363 1103.37 273.033 1123.93 312.905C1103.37 273.033 1136.94 274.712 1112.81 312.485C1136.94 274.712 1152.47 304.511 1107.56 302.412C1152.47 304.511 1134.22 332.841 1113.65 292.969Z" fill="white"/>
<path fill-rule="evenodd" clip-rule="evenodd" d="M1118.9 323.397C1107.56 323.397 1098.33 314.164 1098.33 303.042C1098.33 291.71 1107.56 282.476 1118.9 282.476C1130.02 282.476 1139.25 291.71 1139.25 303.042C1139.25 314.164 1130.02 323.397 1118.9 323.397ZM1118.9 284.575C1108.61 284.575 1100.43 292.759 1100.43 303.042C1100.43 313.115 1108.61 321.299 1118.9 321.299C1128.97 321.299 1137.15 313.115 1137.15 303.042C1137.15 292.759 1128.97 284.575 1118.9 284.575Z" fill="white"/>
<path d="M1015.44 398.524C1011.45 398.524 1008.3 401.672 1008.3 405.45V428.743H1022.36V405.45C1022.36 401.672 1019.22 398.524 1015.44 398.524Z" fill="white"/>
<path d="M1118.69 398.524C1114.91 398.524 1111.76 401.672 1111.76 405.45V428.743H1125.82V405.45C1125.82 401.672 1122.67 398.524 1118.69 398.524Z" fill="white"/>
<path d="M1221.72 398.524C1217.95 398.524 1214.8 401.672 1214.8 405.45V428.743H1228.86V405.45C1228.86 401.672 1225.71 398.524 1221.72 398.524Z" fill="white"/>
<path d="M1118.69 490.44C1112.39 490.44 1107.35 494.427 1107.35 499.464V529.682H1130.23V499.464C1130.23 494.427 1125.19 490.44 1118.69 490.44Z" fill="white"/>
<path d="M1084.69 374.392H1080.91V347.74H1084.69V374.392Z" fill="white"/>
<path d="M1091.62 374.392H1087.84V347.74H1091.62V374.392Z" fill="white"/>
<path d="M1149.54 374.392H1145.97V347.74H1149.54V374.392Z" fill="white"/>
<path d="M1156.46 374.392H1152.89V347.74H1156.46V374.392Z" fill="white"/>
<path d="M1308.39 469.665H1304.83V443.013H1308.39V469.665Z" fill="white"/>
<path d="M1315.32 469.665H1311.75V443.013H1315.32V469.665Z" fill="white"/>
<path d="M1310.07 490.44C1303.78 490.44 1298.74 494.427 1298.74 499.464V529.682H1321.61V499.464C1321.61 494.427 1316.58 490.44 1310.07 490.44Z" fill="white"/>
<path d="M1026.98 529.682H1003.9V490.44H1026.98V529.682Z" fill="white" stroke="white" stroke-width="0.4" stroke-miterlimit="10"/>
<path d="M1233.27 529.682H1210.18V490.44H1233.27V529.682Z" fill="white" stroke="white" stroke-width="0.4" stroke-miterlimit="10"/>
<path fill-rule="evenodd" clip-rule="evenodd" d="M1440.06 541.917C1440.06 543.503 1439 544.825 1437.41 544.825H1354.68C1353.09 544.825 1351.77 543.503 1352.03 541.917L1368.42 111.584C1368.42 110.263 1369.48 109.205 1371.07 109.205H1371.86C1373.18 109.205 1374.5 107.884 1374.5 106.298C1374.24 104.712 1373.18 103.654 1371.86 103.654H1370.8C1370.01 103.654 1369.22 103.126 1368.69 102.597L1363.14 94.9313C1361.81 93.081 1363.14 90.702 1365.25 90.702H1374.24C1375.82 90.702 1376.88 89.6447 1376.88 88.0587V84.358C1376.88 84.1818 1376.88 83.9175 1376.88 83.565L1373.18 69.8198C1372.65 68.2338 1373.97 66.6477 1375.82 66.6477C1377.15 66.6477 1378.47 65.3261 1378.47 63.7401L1378.2 33.0775C1378.2 32.3727 1378.47 31.7559 1379 31.2272L1392.21 15.6316C1392.56 15.103 1392.74 14.4862 1392.74 13.7813V0.564697H1399.08V13.7813C1399.08 14.4862 1399.35 15.103 1399.88 15.6316L1413.09 31.2272C1413.62 31.7559 1413.89 32.3727 1413.89 33.0775L1413.62 63.7401C1413.62 65.3261 1414.68 66.6477 1416.27 66.6477C1417.85 66.6477 1419.17 68.2338 1418.91 69.8198L1415.21 83.565C1415.03 83.9175 1414.94 84.1818 1414.94 84.358V88.0587C1414.94 89.6447 1416.27 90.702 1417.85 90.702H1426.58C1428.95 90.702 1430.01 93.081 1428.69 94.9313L1423.4 102.597C1422.87 103.126 1422.08 103.654 1421.02 103.654H1420.23C1418.91 103.654 1417.59 104.712 1417.59 106.298C1417.59 107.884 1418.65 109.205 1420.23 109.205H1421.02C1422.35 109.205 1423.67 110.263 1423.67 111.584L1440.06 541.917ZM1398.56 437.506C1398.56 435.127 1396.71 433.277 1394.06 433.277C1391.68 433.277 1389.83 435.127 1389.83 437.506V452.308H1398.56V437.506ZM1398.56 366.136C1398.56 363.757 1396.71 361.643 1394.06 361.643C1391.68 361.643 1389.83 363.757 1389.83 366.136V380.674H1398.56V366.136ZM1398.56 294.766C1398.56 292.387 1396.71 290.537 1394.06 290.537C1391.68 290.537 1389.83 292.387 1389.83 294.766V309.569H1398.56V294.766ZM1398.56 223.397C1398.56 221.018 1396.71 218.903 1394.06 218.903C1391.68 218.903 1389.83 221.018 1389.83 223.397V237.935H1398.56V223.397ZM1398.56 152.291C1398.56 149.648 1396.71 147.798 1394.06 147.798C1391.68 147.798 1389.83 149.648 1389.83 152.291V166.83H1398.56V152.291ZM1401.73 43.6508C1401.73 40.4789 1399.08 37.8355 1395.65 37.8355C1392.48 38.0999 1390.1 41.0075 1390.1 44.1795V62.9471C1390.1 63.1233 1390.1 63.2114 1390.1 63.2114H1399.35C1399.61 63.2114 1401.73 62.9471 1401.73 62.9471V43.6508Z" fill="#34A853"/>
<path d="M1367.37 111.32H1423.67" stroke="white" stroke-width="0.4" stroke-miterlimit="10"/>
<path d="M1374.77 111.32L1362.87 544.825" stroke="white" stroke-width="0.4" stroke-miterlimit="10"/>
<path d="M1417.59 111.32L1429.48 544.825" stroke="white" stroke-width="0.4" stroke-miterlimit="10"/>
</svg>
