<svg width="1440" height="545" viewBox="0 0 1440 545" fill="none" xmlns="http://www.w3.org/2000/svg">
    <mask id="mask0_357_6" style="mask-type:alpha" maskUnits="userSpaceOnUse" x="-2" y="0" width="1443" height="546">
    <mask id="path-1-inside-1_357_6" fill="white">
    <path fill-rule="evenodd" clip-rule="evenodd" d="M1437.41 544.825C1439 544.825 1440.06 543.503 1440.06 541.917L1423.67 111.584C1423.67 111.563 1423.67 111.541 1423.67 111.52H1417.79L1429.68 544.819L1429.49 544.825H1437.41ZM1429.28 544.825L1417.39 111.52H1374.96L1363.07 544.825H1429.28ZM1362.87 544.825H1354.68C1353.09 544.825 1351.77 543.503 1352.03 541.917L1368.42 111.584C1368.42 111.563 1368.42 111.541 1368.42 111.52H1374.56L1362.67 544.819L1362.87 544.825ZM1368.47 111.12H1374.77H1417.59H1423.61C1423.35 110.023 1422.19 109.205 1421.02 109.205H1420.23C1418.65 109.205 1417.59 107.884 1417.59 106.298C1417.59 104.712 1418.91 103.654 1420.23 103.654H1421.02C1422.08 103.654 1422.87 103.126 1423.4 102.597L1428.69 94.9313C1430.01 93.081 1428.95 90.702 1426.58 90.702H1417.85C1416.27 90.702 1414.94 89.6447 1414.94 88.0587V84.358C1414.94 84.1818 1415.03 83.9175 1415.21 83.565L1418.91 69.8198C1419.17 68.2338 1417.85 66.6477 1416.27 66.6477C1414.68 66.6477 1413.62 65.3261 1413.62 63.7401L1413.89 33.0775C1413.89 32.3727 1413.62 31.7559 1413.09 31.2272L1399.88 15.6316C1399.35 15.103 1399.08 14.4862 1399.08 13.7813V0.564697H1392.74V13.7813C1392.74 14.4862 1392.56 15.103 1392.21 15.6316L1379 31.2272C1378.47 31.7559 1378.2 32.3727 1378.2 33.0775L1378.47 63.7401C1378.47 65.3261 1377.15 66.6477 1375.82 66.6477C1373.97 66.6477 1372.65 68.2338 1373.18 69.8198L1376.88 83.565V84.358V88.0587C1376.88 89.6447 1375.82 90.702 1374.24 90.702H1365.25C1363.14 90.702 1361.81 93.081 1363.14 94.9313L1368.69 102.597C1369.22 103.126 1370.01 103.654 1370.8 103.654H1371.86C1373.18 103.654 1374.24 104.712 1374.5 106.298C1374.5 107.884 1373.18 109.205 1371.86 109.205H1371.07C1369.67 109.205 1368.68 110.023 1368.47 111.12ZM1394.06 433.277C1396.71 433.277 1398.56 435.127 1398.56 437.506V452.308H1389.83V437.506C1389.83 435.127 1391.68 433.277 1394.06 433.277ZM1394.06 361.643C1396.71 361.643 1398.56 363.757 1398.56 366.136V380.674H1389.83V366.136C1389.83 363.757 1391.68 361.643 1394.06 361.643ZM1394.06 290.537C1396.71 290.537 1398.56 292.387 1398.56 294.766V309.569H1389.83V294.766C1389.83 292.387 1391.68 290.537 1394.06 290.537ZM1394.06 218.903C1396.71 218.903 1398.56 221.018 1398.56 223.397V237.935H1389.83V223.397C1389.83 221.018 1391.68 218.903 1394.06 218.903ZM1394.06 147.798C1396.71 147.798 1398.56 149.648 1398.56 152.291V166.83H1389.83V152.291C1389.83 149.648 1391.68 147.798 1394.06 147.798ZM1395.65 37.8355C1399.08 37.8355 1401.73 40.4789 1401.73 43.6508V62.9471C1401.73 62.9471 1399.61 63.2114 1399.35 63.2114H1390.1V62.9471V44.1795C1390.1 41.0075 1392.48 38.0999 1395.65 37.8355Z"/>
    </mask>
    <path fill-rule="evenodd" clip-rule="evenodd" d="M1437.41 544.825C1439 544.825 1440.06 543.503 1440.06 541.917L1423.67 111.584C1423.67 111.563 1423.67 111.541 1423.67 111.52H1417.79L1429.68 544.819L1429.49 544.825H1437.41ZM1429.28 544.825L1417.39 111.52H1374.96L1363.07 544.825H1429.28ZM1362.87 544.825H1354.68C1353.09 544.825 1351.77 543.503 1352.03 541.917L1368.42 111.584C1368.42 111.563 1368.42 111.541 1368.42 111.52H1374.56L1362.67 544.819L1362.87 544.825ZM1368.47 111.12H1374.77H1417.59H1423.61C1423.35 110.023 1422.19 109.205 1421.02 109.205H1420.23C1418.65 109.205 1417.59 107.884 1417.59 106.298C1417.59 104.712 1418.91 103.654 1420.23 103.654H1421.02C1422.08 103.654 1422.87 103.126 1423.4 102.597L1428.69 94.9313C1430.01 93.081 1428.95 90.702 1426.58 90.702H1417.85C1416.27 90.702 1414.94 89.6447 1414.94 88.0587V84.358C1414.94 84.1818 1415.03 83.9175 1415.21 83.565L1418.91 69.8198C1419.17 68.2338 1417.85 66.6477 1416.27 66.6477C1414.68 66.6477 1413.62 65.3261 1413.62 63.7401L1413.89 33.0775C1413.89 32.3727 1413.62 31.7559 1413.09 31.2272L1399.88 15.6316C1399.35 15.103 1399.08 14.4862 1399.08 13.7813V0.564697H1392.74V13.7813C1392.74 14.4862 1392.56 15.103 1392.21 15.6316L1379 31.2272C1378.47 31.7559 1378.2 32.3727 1378.2 33.0775L1378.47 63.7401C1378.47 65.3261 1377.15 66.6477 1375.82 66.6477C1373.97 66.6477 1372.65 68.2338 1373.18 69.8198L1376.88 83.565V84.358V88.0587C1376.88 89.6447 1375.82 90.702 1374.24 90.702H1365.25C1363.14 90.702 1361.81 93.081 1363.14 94.9313L1368.69 102.597C1369.22 103.126 1370.01 103.654 1370.8 103.654H1371.86C1373.18 103.654 1374.24 104.712 1374.5 106.298C1374.5 107.884 1373.18 109.205 1371.86 109.205H1371.07C1369.67 109.205 1368.68 110.023 1368.47 111.12ZM1394.06 433.277C1396.71 433.277 1398.56 435.127 1398.56 437.506V452.308H1389.83V437.506C1389.83 435.127 1391.68 433.277 1394.06 433.277ZM1394.06 361.643C1396.71 361.643 1398.56 363.757 1398.56 366.136V380.674H1389.83V366.136C1389.83 363.757 1391.68 361.643 1394.06 361.643ZM1394.06 290.537C1396.71 290.537 1398.56 292.387 1398.56 294.766V309.569H1389.83V294.766C1389.83 292.387 1391.68 290.537 1394.06 290.537ZM1394.06 218.903C1396.71 218.903 1398.56 221.018 1398.56 223.397V237.935H1389.83V223.397C1389.83 221.018 1391.68 218.903 1394.06 218.903ZM1394.06 147.798C1396.71 147.798 1398.56 149.648 1398.56 152.291V166.83H1389.83V152.291C1389.83 149.648 1391.68 147.798 1394.06 147.798ZM1395.65 37.8355C1399.08 37.8355 1401.73 40.4789 1401.73 43.6508V62.9471C1401.73 62.9471 1399.61 63.2114 1399.35 63.2114H1390.1V62.9471V44.1795C1390.1 41.0075 1392.48 38.0999 1395.65 37.8355Z" fill="black"/>
    <path d="M1440.06 541.917H1441.06V541.898L1441.06 541.879L1440.06 541.917ZM1423.67 111.584H1422.67V111.603L1422.67 111.622L1423.67 111.584ZM1423.67 111.52L1424.67 111.488L1424.63 110.52H1423.67V111.52ZM1417.79 111.52V110.52H1416.77L1416.79 111.547L1417.79 111.52ZM1429.68 544.819L1429.71 545.819L1430.71 545.792L1430.68 544.792L1429.68 544.819ZM1429.49 544.825L1429.46 543.825L1429.49 545.825V544.825ZM1429.28 544.825V545.825H1430.31L1430.28 544.797L1429.28 544.825ZM1417.39 111.52L1418.39 111.493L1418.37 110.52H1417.39V111.52ZM1374.96 111.52V110.52H1373.99L1373.96 111.493L1374.96 111.52ZM1363.07 544.825L1362.07 544.797L1362.04 545.825H1363.07V544.825ZM1362.87 544.825V545.825L1362.89 543.825L1362.87 544.825ZM1352.03 541.917L1353.02 542.082L1353.03 542.019L1353.03 541.955L1352.03 541.917ZM1368.42 111.584L1369.42 111.622L1369.42 111.603V111.584H1368.42ZM1368.42 111.52V110.52H1367.45L1367.42 111.494L1368.42 111.52ZM1374.56 111.52L1375.56 111.547L1375.59 110.52H1374.56V111.52ZM1362.67 544.819L1361.67 544.792L1361.64 545.792L1362.64 545.819L1362.67 544.819ZM1368.47 111.12L1367.49 110.926L1367.25 112.12H1368.47V111.12ZM1423.61 111.12V112.12H1424.88L1424.59 110.887L1423.61 111.12ZM1423.4 102.597L1424.11 103.304L1424.18 103.24L1424.23 103.165L1423.4 102.597ZM1428.69 94.9313L1427.88 94.3501L1427.87 94.3568L1427.87 94.3636L1428.69 94.9313ZM1415.21 83.565L1416.1 84.0122L1416.15 83.9222L1416.17 83.825L1415.21 83.565ZM1418.91 69.8198L1419.88 70.0797L1419.89 70.0325L1419.9 69.9842L1418.91 69.8198ZM1413.62 63.7401L1412.62 63.7315V63.7401H1413.62ZM1413.89 33.0775L1414.89 33.0862V33.0775H1413.89ZM1413.09 31.2272L1412.33 31.8738L1412.36 31.9052L1412.39 31.9343L1413.09 31.2272ZM1399.88 15.6316L1400.64 14.9851L1400.61 14.9537L1400.59 14.9245L1399.88 15.6316ZM1399.08 0.564697H1400.08V-0.435303H1399.08V0.564697ZM1392.74 0.564697V-0.435303H1391.74V0.564697H1392.74ZM1392.21 15.6316L1392.98 16.2781L1393.01 16.2342L1393.04 16.1863L1392.21 15.6316ZM1379 31.2272L1379.7 31.9343L1379.73 31.9052L1379.76 31.8738L1379 31.2272ZM1378.2 33.0775H1377.2L1377.2 33.0862L1378.2 33.0775ZM1378.47 63.7401H1379.47L1379.47 63.7315L1378.47 63.7401ZM1373.18 69.8198L1374.15 69.5598L1374.14 69.5314L1374.13 69.5035L1373.18 69.8198ZM1376.88 83.565H1377.88V83.4328L1377.85 83.3051L1376.88 83.565ZM1363.14 94.9313L1362.32 95.5126L1362.33 95.5178L1363.14 94.9313ZM1368.69 102.597L1367.88 103.183L1367.92 103.248L1367.98 103.304L1368.69 102.597ZM1374.5 106.298H1375.5V106.215L1375.49 106.133L1374.5 106.298ZM1398.56 452.308V453.308H1399.56V452.308H1398.56ZM1389.83 452.308H1388.83V453.308H1389.83V452.308ZM1398.56 380.674V381.674H1399.56V380.674H1398.56ZM1389.83 380.674H1388.83V381.674H1389.83V380.674ZM1398.56 309.569V310.569H1399.56V309.569H1398.56ZM1389.83 309.569H1388.83V310.569H1389.83V309.569ZM1398.56 237.935V238.935H1399.56V237.935H1398.56ZM1389.83 237.935H1388.83V238.935H1389.83V237.935ZM1398.56 166.83V167.83H1399.56V166.83H1398.56ZM1389.83 166.83H1388.83V167.83H1389.83V166.83ZM1395.65 37.8355V36.8355H1395.61L1395.57 36.839L1395.65 37.8355ZM1401.73 62.9471L1401.85 63.9394L1402.73 63.8299V62.9471H1401.73ZM1390.1 63.2114H1389.1V64.2114H1390.1V63.2114ZM1439.06 541.917C1439.06 543.08 1438.33 543.825 1437.41 543.825V545.825C1439.67 545.825 1441.06 543.926 1441.06 541.917H1439.06ZM1422.67 111.622L1439.06 541.955L1441.06 541.879L1424.67 111.546L1422.67 111.622ZM1422.67 111.553C1422.67 111.563 1422.67 111.573 1422.67 111.584H1424.67C1424.67 111.552 1424.67 111.52 1424.67 111.488L1422.67 111.553ZM1423.67 110.52H1417.79V112.52H1423.67V110.52ZM1416.79 111.547L1428.68 544.847L1430.68 544.792L1418.79 111.493L1416.79 111.547ZM1429.66 543.82L1429.46 543.825L1429.52 545.824L1429.71 545.819L1429.66 543.82ZM1437.41 543.825H1429.49V545.825H1437.41V543.825ZM1430.28 544.797L1418.39 111.493L1416.39 111.547L1428.28 544.852L1430.28 544.797ZM1417.39 110.52H1374.96V112.52H1417.39V110.52ZM1373.96 111.493L1362.07 544.797L1364.07 544.852L1375.96 111.547L1373.96 111.493ZM1429.28 543.825H1363.07V545.825H1429.28V543.825ZM1362.87 543.825H1354.68V545.825H1362.87V543.825ZM1354.68 543.825C1353.6 543.825 1352.87 542.958 1353.02 542.082L1351.05 541.753C1350.66 544.048 1352.58 545.825 1354.68 545.825V543.825ZM1353.03 541.955L1369.42 111.622L1367.42 111.546L1351.03 541.879L1353.03 541.955ZM1369.42 111.584C1369.42 111.571 1369.42 111.559 1369.42 111.546L1367.42 111.494C1367.42 111.524 1367.42 111.554 1367.42 111.584H1369.42ZM1374.56 110.52H1368.42V112.52H1374.56V110.52ZM1363.67 544.847L1375.56 111.547L1373.56 111.493L1361.67 544.792L1363.67 544.847ZM1362.89 543.825L1362.7 543.82L1362.64 545.819L1362.84 545.824L1362.89 543.825ZM1368.47 112.12H1374.77V110.12H1368.47V112.12ZM1374.77 112.12H1417.59V110.12H1374.77V112.12ZM1417.59 112.12H1423.61V110.12H1417.59V112.12ZM1421.02 110.205C1421.79 110.205 1422.5 110.768 1422.64 111.353L1424.59 110.887C1424.2 109.279 1422.58 108.205 1421.02 108.205V110.205ZM1420.23 110.205H1421.02V108.205H1420.23V110.205ZM1416.59 106.298C1416.59 108.306 1417.97 110.205 1420.23 110.205V108.205C1419.32 108.205 1418.59 107.461 1418.59 106.298H1416.59ZM1420.23 102.654C1418.42 102.654 1416.59 104.095 1416.59 106.298H1418.59C1418.59 105.328 1419.4 104.654 1420.23 104.654V102.654ZM1421.02 102.654H1420.23V104.654H1421.02V102.654ZM1422.7 101.89C1422.28 102.309 1421.72 102.654 1421.02 102.654V104.654C1422.44 104.654 1423.47 103.942 1424.11 103.304L1422.7 101.89ZM1427.87 94.3636L1422.58 102.029L1424.23 103.165L1429.51 95.499L1427.87 94.3636ZM1426.58 91.702C1427.4 91.702 1427.9 92.0957 1428.12 92.5555C1428.35 93.031 1428.34 93.7014 1427.88 94.3501L1429.5 95.5126C1430.36 94.3109 1430.49 92.8666 1429.92 91.6901C1429.35 90.4978 1428.13 89.702 1426.58 89.702V91.702ZM1417.85 91.702H1426.58V89.702H1417.85V91.702ZM1413.94 88.0587C1413.94 90.3182 1415.84 91.702 1417.85 91.702V89.702C1416.69 89.702 1415.94 88.9711 1415.94 88.0587H1413.94ZM1413.94 84.358V88.0587H1415.94V84.358H1413.94ZM1414.31 83.1178C1414.13 83.4783 1413.94 83.9271 1413.94 84.358H1415.94C1415.94 84.4211 1415.93 84.4259 1415.96 84.3437C1415.98 84.2706 1416.03 84.1619 1416.1 84.0122L1414.31 83.1178ZM1417.94 69.5598L1414.24 83.305L1416.17 83.825L1419.88 70.0797L1417.94 69.5598ZM1416.27 67.6477C1417.22 67.6477 1418.09 68.6624 1417.92 69.6554L1419.9 69.9842C1420.26 67.8052 1418.49 65.6477 1416.27 65.6477V67.6477ZM1412.62 63.7401C1412.62 65.7488 1414.01 67.6477 1416.27 67.6477V65.6477C1415.35 65.6477 1414.62 64.9034 1414.62 63.7401H1412.62ZM1412.89 33.0689L1412.62 63.7315L1414.62 63.7487L1414.89 33.0862L1412.89 33.0689ZM1412.39 31.9343C1412.74 32.2881 1412.89 32.6552 1412.89 33.0775H1414.89C1414.89 32.0901 1414.51 31.2237 1413.8 30.5201L1412.39 31.9343ZM1399.12 16.2781L1412.33 31.8738L1413.86 30.5807L1400.64 14.9851L1399.12 16.2781ZM1398.08 13.7813C1398.08 14.7687 1398.47 15.6351 1399.17 16.3387L1400.59 14.9245C1400.23 14.5708 1400.08 14.2037 1400.08 13.7813H1398.08ZM1398.08 0.564697V13.7813H1400.08V0.564697H1398.08ZM1392.74 1.5647H1399.08V-0.435303H1392.74V1.5647ZM1393.74 13.7813V0.564697H1391.74V13.7813H1393.74ZM1393.04 16.1863C1393.52 15.4756 1393.74 14.661 1393.74 13.7813H1391.74C1391.74 14.3113 1391.61 14.7304 1391.38 15.0769L1393.04 16.1863ZM1379.76 31.8738L1392.98 16.2781L1391.45 14.9851L1378.23 30.5807L1379.76 31.8738ZM1379.2 33.0775C1379.2 32.6553 1379.35 32.2882 1379.7 31.9343L1378.29 30.5201C1377.59 31.2236 1377.2 32.09 1377.2 33.0775H1379.2ZM1379.47 63.7315L1379.2 33.0689L1377.2 33.0862L1377.47 63.7487L1379.47 63.7315ZM1375.82 67.6477C1377.76 67.6477 1379.47 65.8166 1379.47 63.7401H1377.47C1377.47 64.8356 1376.53 65.6477 1375.82 65.6477V67.6477ZM1374.13 69.5035C1373.87 68.713 1374.49 67.6477 1375.82 67.6477V65.6477C1373.45 65.6477 1371.44 67.7545 1372.23 70.136L1374.13 69.5035ZM1377.85 83.3051L1374.15 69.5598L1372.21 70.0797L1375.92 83.825L1377.85 83.3051ZM1377.88 84.358V83.565H1375.88V84.358H1377.88ZM1377.88 88.0587V84.358H1375.88V88.0587H1377.88ZM1374.24 91.702C1375.26 91.702 1376.19 91.3575 1376.86 90.6822C1377.54 90.0068 1377.88 89.0789 1377.88 88.0587H1375.88C1375.88 88.6244 1375.7 89.0182 1375.45 89.268C1375.2 89.5178 1374.8 89.702 1374.24 89.702V91.702ZM1365.25 91.702H1374.24V89.702H1365.25V91.702ZM1363.95 94.3501C1363.11 93.1716 1363.94 91.702 1365.25 91.702V89.702C1362.33 89.702 1360.52 92.9903 1362.32 95.5126L1363.95 94.3501ZM1369.5 102.01L1363.95 94.3448L1362.33 95.5178L1367.88 103.183L1369.5 102.01ZM1370.8 102.654C1370.41 102.654 1369.86 102.354 1369.39 101.89L1367.98 103.304C1368.57 103.898 1369.61 104.654 1370.8 104.654V102.654ZM1371.86 102.654H1370.8V104.654H1371.86V102.654ZM1375.49 106.133C1375.17 104.214 1373.81 102.654 1371.86 102.654V104.654C1372.55 104.654 1373.31 105.209 1373.52 106.462L1375.49 106.133ZM1371.86 110.205C1373.79 110.205 1375.5 108.374 1375.5 106.298H1373.5C1373.5 107.393 1372.57 108.205 1371.86 108.205V110.205ZM1371.07 110.205H1371.86V108.205H1371.07V110.205ZM1369.45 111.314C1369.56 110.746 1370.08 110.205 1371.07 110.205V108.205C1369.26 108.205 1367.81 109.301 1367.49 110.926L1369.45 111.314ZM1399.56 437.506C1399.56 434.535 1397.22 432.277 1394.06 432.277V434.277C1396.19 434.277 1397.56 435.719 1397.56 437.506H1399.56ZM1399.56 452.308V437.506H1397.56V452.308H1399.56ZM1389.83 453.308H1398.56V451.308H1389.83V453.308ZM1388.83 437.506V452.308H1390.83V437.506H1388.83ZM1394.06 432.277C1391.13 432.277 1388.83 434.575 1388.83 437.506H1390.83C1390.83 435.679 1392.24 434.277 1394.06 434.277V432.277ZM1399.56 366.136C1399.56 363.244 1397.3 360.643 1394.06 360.643V362.643C1396.12 362.643 1397.56 364.271 1397.56 366.136H1399.56ZM1399.56 380.674V366.136H1397.56V380.674H1399.56ZM1389.83 381.674H1398.56V379.674H1389.83V381.674ZM1388.83 366.136V380.674H1390.83V366.136H1388.83ZM1394.06 360.643C1391.05 360.643 1388.83 363.285 1388.83 366.136H1390.83C1390.83 364.229 1392.31 362.643 1394.06 362.643V360.643ZM1399.56 294.766C1399.56 291.795 1397.22 289.537 1394.06 289.537V291.537C1396.19 291.537 1397.56 292.979 1397.56 294.766H1399.56ZM1399.56 309.569V294.766H1397.56V309.569H1399.56ZM1389.83 310.569H1398.56V308.569H1389.83V310.569ZM1388.83 294.766V309.569H1390.83V294.766H1388.83ZM1394.06 289.537C1391.13 289.537 1388.83 291.835 1388.83 294.766H1390.83C1390.83 292.94 1392.24 291.537 1394.06 291.537V289.537ZM1399.56 223.397C1399.56 220.504 1397.3 217.903 1394.06 217.903V219.903C1396.12 219.903 1397.56 221.531 1397.56 223.397H1399.56ZM1399.56 237.935V223.397H1397.56V237.935H1399.56ZM1389.83 238.935H1398.56V236.935H1389.83V238.935ZM1388.83 223.397V237.935H1390.83V223.397H1388.83ZM1394.06 217.903C1391.05 217.903 1388.83 220.546 1388.83 223.397H1390.83C1390.83 221.49 1392.31 219.903 1394.06 219.903V217.903ZM1399.56 152.291C1399.56 150.73 1399.01 149.344 1398.01 148.346C1397.01 147.348 1395.62 146.798 1394.06 146.798V148.798C1395.14 148.798 1396.01 149.172 1396.59 149.76C1397.18 150.348 1397.56 151.209 1397.56 152.291H1399.56ZM1399.56 166.83V152.291H1397.56V166.83H1399.56ZM1389.83 167.83H1398.56V165.83H1389.83V167.83ZM1388.83 152.291V166.83H1390.83V152.291H1388.83ZM1394.06 146.798C1391.09 146.798 1388.83 149.136 1388.83 152.291H1390.83C1390.83 150.16 1392.28 148.798 1394.06 148.798V146.798ZM1402.73 43.6508C1402.73 39.8978 1399.61 36.8355 1395.65 36.8355V38.8355C1398.56 38.8355 1400.73 41.0599 1400.73 43.6508H1402.73ZM1402.73 62.9471V43.6508H1400.73V62.9471H1402.73ZM1399.35 64.2114C1399.48 64.2114 1399.73 64.1867 1399.94 64.1646C1400.18 64.1392 1400.47 64.1056 1400.75 64.0724C1401.04 64.0391 1401.31 64.0059 1401.52 63.981C1401.62 63.9685 1401.7 63.9581 1401.76 63.9509C1401.79 63.9472 1401.81 63.9444 1401.83 63.9424C1401.84 63.9414 1401.84 63.9407 1401.85 63.9402C1401.85 63.9399 1401.85 63.9397 1401.85 63.9396C1401.85 63.9395 1401.85 63.9395 1401.85 63.9394C1401.85 63.9394 1401.85 63.9394 1401.85 63.9394C1401.85 63.9394 1401.85 63.9394 1401.85 63.9394C1401.85 63.9394 1401.85 63.9394 1401.73 62.9471C1401.6 61.9548 1401.6 61.9548 1401.6 61.9548C1401.6 61.9548 1401.6 61.9548 1401.6 61.9548C1401.6 61.9548 1401.6 61.9548 1401.6 61.9549C1401.6 61.9549 1401.6 61.9549 1401.6 61.955C1401.6 61.9551 1401.6 61.9553 1401.6 61.9555C1401.59 61.956 1401.59 61.9568 1401.58 61.9577C1401.57 61.9596 1401.54 61.9625 1401.51 61.966C1401.46 61.9732 1401.37 61.9835 1401.27 61.9958C1401.07 62.0205 1400.8 62.0533 1400.52 62.0861C1400.24 62.119 1399.96 62.1515 1399.73 62.1756C1399.61 62.1877 1399.52 62.1974 1399.44 62.2038C1399.35 62.2116 1399.33 62.2114 1399.35 62.2114V64.2114ZM1390.1 64.2114H1399.35V62.2114H1390.1V64.2114ZM1389.1 62.9471V63.2114H1391.1V62.9471H1389.1ZM1389.1 44.1795V62.9471H1391.1V44.1795H1389.1ZM1395.57 36.839C1391.81 37.1517 1389.1 40.5524 1389.1 44.1795H1391.1C1391.1 41.4626 1393.14 39.048 1395.73 38.8321L1395.57 36.839Z" fill="white" mask="url(#path-1-inside-1_357_6)"/>
    <mask id="path-3-inside-2_357_6" fill="white">
    <path fill-rule="evenodd" clip-rule="evenodd" d="M1269.99 453.296V413.634H1352.25V544.582H1309.44V545.002H1227.18V544.792L1179.33 545.002H1058.25L972 544.582V398.944L1054.26 351.518V433.57H1058.25V289.821L1118.9 234L1179.33 289.821V433.57H1183.32V351.518L1265.58 398.944V453.296H1269.99ZM1118.9 323.397C1107.56 323.397 1098.33 314.164 1098.33 303.042C1098.33 291.71 1107.56 282.476 1118.9 282.476C1130.02 282.476 1139.25 291.71 1139.25 303.042C1139.25 314.164 1130.02 323.397 1118.9 323.397ZM1111.8 285.962C1113.76 285.159 1115.89 284.68 1118.13 284.59C1116.76 286.618 1116.1 291.703 1118.56 299.961C1118.51 300.346 1118.45 300.725 1118.39 301.098C1118.18 300.785 1117.97 300.466 1117.76 300.14C1116.58 291.629 1113.88 287.27 1111.8 285.962ZM1117.19 300.69C1110.86 294.684 1108.87 289.867 1109.04 287.379C1107.18 288.54 1105.56 290.022 1104.23 291.75C1106.71 291.849 1111.24 294.283 1116.53 301.068C1116.87 301.244 1117.21 301.415 1117.54 301.58C1117.43 301.287 1117.31 300.99 1117.19 300.69ZM1116.09 301.646C1107.76 299.667 1103.67 296.581 1102.55 294.381C1101.55 296.269 1100.88 298.356 1100.59 300.572C1102.73 299.436 1107.78 299.277 1115.61 302.443C1116.08 302.422 1116.54 302.397 1117 302.368C1116.7 302.129 1116.4 301.888 1116.09 301.646ZM1115.82 303.167C1107.57 305.629 1102.48 304.975 1100.44 303.621C1100.51 305.869 1100.99 308.016 1101.8 309.989C1103.12 307.888 1107.48 305.176 1115.98 303.975C1116.31 303.762 1116.63 303.549 1116.95 303.338C1116.58 303.279 1116.2 303.222 1115.82 303.167ZM1116.41 304.588C1110.5 310.899 1105.75 312.916 1103.26 312.784C1104.42 314.602 1105.89 316.204 1107.61 317.514C1107.7 315.023 1110.16 310.436 1117.07 305.088C1117.23 304.771 1117.38 304.458 1117.54 304.148C1117.17 304.289 1116.79 304.436 1116.41 304.588ZM1116.33 321.126C1114.15 320.829 1112.09 320.16 1110.23 319.185C1112.41 318.077 1115.46 314.061 1117.44 305.887C1117.71 305.545 1117.97 305.212 1118.23 304.886C1118.25 305.207 1118.27 305.532 1118.29 305.862C1115.08 313.778 1115.21 318.901 1116.33 321.126ZM1125.81 319.941C1123.85 320.744 1121.73 321.216 1119.5 321.289C1120.84 319.188 1121.46 314.1 1119.02 305.919C1119.08 305.531 1119.13 305.15 1119.19 304.776C1119.4 305.089 1119.61 305.408 1119.82 305.734C1121.01 314.28 1123.72 318.644 1125.81 319.941ZM1133.4 314.125C1132.06 315.871 1130.42 317.37 1128.54 318.539C1128.71 316.083 1126.74 311.331 1120.48 305.41C1120.36 305.102 1120.24 304.797 1120.12 304.496C1120.5 304.688 1120.89 304.888 1121.28 305.094C1126.51 311.701 1130.97 314.055 1133.4 314.125ZM1137.01 305.337C1136.73 307.55 1136.06 309.64 1135.06 311.533C1133.95 309.304 1129.78 306.144 1121.19 304.157C1120.92 303.944 1120.66 303.732 1120.41 303.521C1120.82 303.493 1121.24 303.469 1121.67 303.448C1129.69 306.705 1134.85 306.516 1137.01 305.337ZM1135.78 295.962C1136.57 297.911 1137.05 300.032 1137.14 302.261C1135.09 300.901 1130.01 300.248 1121.77 302.707C1121.38 302.652 1121 302.595 1120.63 302.536C1120.94 302.328 1121.26 302.119 1121.59 301.91C1130.09 300.723 1134.46 298.036 1135.78 295.962ZM1129.98 288.343C1131.72 289.686 1133.22 291.341 1134.39 293.229C1131.96 293.091 1127.29 295.043 1121.48 301.162C1121.04 301.342 1120.6 301.513 1120.17 301.678C1120.34 301.339 1120.51 300.996 1120.69 300.649C1127.48 295.348 1129.9 290.809 1129.98 288.343ZM1121.17 284.715C1123.39 284.991 1125.48 285.668 1127.38 286.673C1125.18 287.773 1122.06 291.873 1120.07 300.286C1119.83 300.59 1119.6 300.887 1119.36 301.178C1119.34 300.854 1119.32 300.525 1119.31 300.191C1122.58 292.069 1122.37 286.87 1121.17 284.715ZM1008.3 405.45C1008.3 401.672 1011.45 398.525 1015.44 398.525C1019.22 398.525 1022.36 401.672 1022.36 405.45V428.743H1008.3V405.45ZM1118.69 398.525C1114.91 398.525 1111.76 401.672 1111.76 405.45V428.743H1125.82V405.45C1125.82 401.672 1122.67 398.525 1118.69 398.525ZM1214.8 405.45C1214.8 401.672 1217.95 398.525 1221.72 398.525C1225.71 398.525 1228.86 401.672 1228.86 405.45V428.743H1214.8V405.45ZM1118.69 490.44C1112.39 490.44 1107.35 494.427 1107.35 499.464V529.683H1130.23V499.464C1130.23 494.427 1125.19 490.44 1118.69 490.44ZM1080.91 374.391H1084.69V347.74H1080.91V374.391ZM1091.62 374.391H1087.84V347.74H1091.62V374.391ZM1145.97 374.391H1149.54V347.74H1145.97V374.391ZM1156.46 374.391H1152.89V347.74H1156.46V374.391ZM1304.83 469.665H1308.39V443.013H1304.83V469.665ZM1315.32 469.665H1311.75V443.013H1315.32V469.665ZM1298.74 499.464C1298.74 494.427 1303.78 490.44 1310.07 490.44C1316.58 490.44 1321.61 494.427 1321.61 499.464V529.683H1298.74V499.464ZM1026.98 529.683H1003.9V490.44H1026.98V529.683ZM1210.18 529.683H1233.27V490.44H1210.18V529.683Z"/>
    </mask>
    <path fill-rule="evenodd" clip-rule="evenodd" d="M1269.99 453.296V413.634H1352.25V544.582H1309.44V545.002H1227.18V544.792L1179.33 545.002H1058.25L972 544.582V398.944L1054.26 351.518V433.57H1058.25V289.821L1118.9 234L1179.33 289.821V433.57H1183.32V351.518L1265.58 398.944V453.296H1269.99ZM1118.9 323.397C1107.56 323.397 1098.33 314.164 1098.33 303.042C1098.33 291.71 1107.56 282.476 1118.9 282.476C1130.02 282.476 1139.25 291.71 1139.25 303.042C1139.25 314.164 1130.02 323.397 1118.9 323.397ZM1111.8 285.962C1113.76 285.159 1115.89 284.68 1118.13 284.59C1116.76 286.618 1116.1 291.703 1118.56 299.961C1118.51 300.346 1118.45 300.725 1118.39 301.098C1118.18 300.785 1117.97 300.466 1117.76 300.14C1116.58 291.629 1113.88 287.27 1111.8 285.962ZM1117.19 300.69C1110.86 294.684 1108.87 289.867 1109.04 287.379C1107.18 288.54 1105.56 290.022 1104.23 291.75C1106.71 291.849 1111.24 294.283 1116.53 301.068C1116.87 301.244 1117.21 301.415 1117.54 301.58C1117.43 301.287 1117.31 300.99 1117.19 300.69ZM1116.09 301.646C1107.76 299.667 1103.67 296.581 1102.55 294.381C1101.55 296.269 1100.88 298.356 1100.59 300.572C1102.73 299.436 1107.78 299.277 1115.61 302.443C1116.08 302.422 1116.54 302.397 1117 302.368C1116.7 302.129 1116.4 301.888 1116.09 301.646ZM1115.82 303.167C1107.57 305.629 1102.48 304.975 1100.44 303.621C1100.51 305.869 1100.99 308.016 1101.8 309.989C1103.12 307.888 1107.48 305.176 1115.98 303.975C1116.31 303.762 1116.63 303.549 1116.95 303.338C1116.58 303.279 1116.2 303.222 1115.82 303.167ZM1116.41 304.588C1110.5 310.899 1105.75 312.916 1103.26 312.784C1104.42 314.602 1105.89 316.204 1107.61 317.514C1107.7 315.023 1110.16 310.436 1117.07 305.088C1117.23 304.771 1117.38 304.458 1117.54 304.148C1117.17 304.289 1116.79 304.436 1116.41 304.588ZM1116.33 321.126C1114.15 320.829 1112.09 320.16 1110.23 319.185C1112.41 318.077 1115.46 314.061 1117.44 305.887C1117.71 305.545 1117.97 305.212 1118.23 304.886C1118.25 305.207 1118.27 305.532 1118.29 305.862C1115.08 313.778 1115.21 318.901 1116.33 321.126ZM1125.81 319.941C1123.85 320.744 1121.73 321.216 1119.5 321.289C1120.84 319.188 1121.46 314.1 1119.02 305.919C1119.08 305.531 1119.13 305.15 1119.19 304.776C1119.4 305.089 1119.61 305.408 1119.82 305.734C1121.01 314.28 1123.72 318.644 1125.81 319.941ZM1133.4 314.125C1132.06 315.871 1130.42 317.37 1128.54 318.539C1128.71 316.083 1126.74 311.331 1120.48 305.41C1120.36 305.102 1120.24 304.797 1120.12 304.496C1120.5 304.688 1120.89 304.888 1121.28 305.094C1126.51 311.701 1130.97 314.055 1133.4 314.125ZM1137.01 305.337C1136.73 307.55 1136.06 309.64 1135.06 311.533C1133.95 309.304 1129.78 306.144 1121.19 304.157C1120.92 303.944 1120.66 303.732 1120.41 303.521C1120.82 303.493 1121.24 303.469 1121.67 303.448C1129.69 306.705 1134.85 306.516 1137.01 305.337ZM1135.78 295.962C1136.57 297.911 1137.05 300.032 1137.14 302.261C1135.09 300.901 1130.01 300.248 1121.77 302.707C1121.38 302.652 1121 302.595 1120.63 302.536C1120.94 302.328 1121.26 302.119 1121.59 301.91C1130.09 300.723 1134.46 298.036 1135.78 295.962ZM1129.98 288.343C1131.72 289.686 1133.22 291.341 1134.39 293.229C1131.96 293.091 1127.29 295.043 1121.48 301.162C1121.04 301.342 1120.6 301.513 1120.17 301.678C1120.34 301.339 1120.51 300.996 1120.69 300.649C1127.48 295.348 1129.9 290.809 1129.98 288.343ZM1121.17 284.715C1123.39 284.991 1125.48 285.668 1127.38 286.673C1125.18 287.773 1122.06 291.873 1120.07 300.286C1119.83 300.59 1119.6 300.887 1119.36 301.178C1119.34 300.854 1119.32 300.525 1119.31 300.191C1122.58 292.069 1122.37 286.87 1121.17 284.715ZM1008.3 405.45C1008.3 401.672 1011.45 398.525 1015.44 398.525C1019.22 398.525 1022.36 401.672 1022.36 405.45V428.743H1008.3V405.45ZM1118.69 398.525C1114.91 398.525 1111.76 401.672 1111.76 405.45V428.743H1125.82V405.45C1125.82 401.672 1122.67 398.525 1118.69 398.525ZM1214.8 405.45C1214.8 401.672 1217.95 398.525 1221.72 398.525C1225.71 398.525 1228.86 401.672 1228.86 405.45V428.743H1214.8V405.45ZM1118.69 490.44C1112.39 490.44 1107.35 494.427 1107.35 499.464V529.683H1130.23V499.464C1130.23 494.427 1125.19 490.44 1118.69 490.44ZM1080.91 374.391H1084.69V347.74H1080.91V374.391ZM1091.62 374.391H1087.84V347.74H1091.62V374.391ZM1145.97 374.391H1149.54V347.74H1145.97V374.391ZM1156.46 374.391H1152.89V347.74H1156.46V374.391ZM1304.83 469.665H1308.39V443.013H1304.83V469.665ZM1315.32 469.665H1311.75V443.013H1315.32V469.665ZM1298.74 499.464C1298.74 494.427 1303.78 490.44 1310.07 490.44C1316.58 490.44 1321.61 494.427 1321.61 499.464V529.683H1298.74V499.464ZM1026.98 529.683H1003.9V490.44H1026.98V529.683ZM1210.18 529.683H1233.27V490.44H1210.18V529.683Z" fill="black"/>
    <path d="M1269.99 413.634V412.634H1268.99V413.634H1269.99ZM1269.99 453.296V454.296H1270.99V453.296H1269.99ZM1352.25 413.634H1353.25V412.634H1352.25V413.634ZM1352.25 544.582V545.582H1353.25V544.582H1352.25ZM1309.44 544.582V543.582H1308.44V544.582H1309.44ZM1309.44 545.002V546.002H1310.44V545.002H1309.44ZM1227.18 545.002H1226.18V546.002H1227.18V545.002ZM1227.18 544.792H1228.18V543.788L1227.18 543.792L1227.18 544.792ZM1179.33 545.002V546.002H1179.34L1179.33 545.002ZM1058.25 545.002L1058.24 546.002H1058.25V545.002ZM972 544.582H971V545.577L971.995 545.582L972 544.582ZM972 398.944L971.501 398.078L971 398.367V398.944H972ZM1054.26 351.518H1055.26V349.787L1053.76 350.651L1054.26 351.518ZM1054.26 433.57H1053.26V434.57H1054.26V433.57ZM1058.25 433.57V434.57H1059.25V433.57H1058.25ZM1058.25 289.821L1057.57 289.085L1057.25 289.382V289.821H1058.25ZM1118.9 234L1119.58 233.265L1118.9 232.64L1118.22 233.264L1118.9 234ZM1179.33 289.821H1180.33V289.383L1180.01 289.086L1179.33 289.821ZM1179.33 433.57H1178.33V434.57H1179.33V433.57ZM1183.32 433.57V434.57H1184.32V433.57H1183.32ZM1183.32 351.518L1183.82 350.651L1182.32 349.787V351.518H1183.32ZM1265.58 398.944H1266.58V398.367L1266.08 398.078L1265.58 398.944ZM1265.58 453.296H1264.58V454.296H1265.58V453.296ZM1118.13 284.59L1118.96 285.149L1120.06 283.512L1118.09 283.591L1118.13 284.59ZM1111.8 285.962L1111.42 285.037L1109.62 285.775L1111.27 286.809L1111.8 285.962ZM1118.56 299.961L1119.55 300.102L1119.58 299.885L1119.52 299.675L1118.56 299.961ZM1118.39 301.098L1117.56 301.652L1118.98 303.784L1119.38 301.254L1118.39 301.098ZM1117.76 300.14L1116.77 300.278L1116.8 300.495L1116.92 300.68L1117.76 300.14ZM1109.04 287.379L1110.04 287.445L1110.17 285.493L1108.51 286.531L1109.04 287.379ZM1117.19 300.69L1118.12 300.32L1118.04 300.116L1117.88 299.964L1117.19 300.69ZM1104.23 291.75L1103.44 291.141L1102.26 292.672L1104.19 292.75L1104.23 291.75ZM1116.53 301.068L1115.74 301.683L1115.87 301.856L1116.07 301.957L1116.53 301.068ZM1117.54 301.58L1117.1 302.476L1119.39 303.613L1118.47 301.224L1117.54 301.58ZM1102.55 294.381L1103.44 293.926L1102.56 292.208L1101.66 293.916L1102.55 294.381ZM1116.09 301.646L1116.71 300.858L1116.53 300.723L1116.32 300.673L1116.09 301.646ZM1100.59 300.572L1099.6 300.443L1099.35 302.362L1101.06 301.456L1100.59 300.572ZM1115.61 302.443L1115.23 303.37L1115.44 303.451L1115.65 303.442L1115.61 302.443ZM1117 302.368L1117.06 303.366L1119.61 303.204L1117.63 301.591L1117 302.368ZM1100.44 303.621L1100.99 302.787L1099.38 301.718L1099.44 303.652L1100.44 303.621ZM1115.82 303.167L1115.96 302.177L1115.74 302.146L1115.53 302.209L1115.82 303.167ZM1101.8 309.989L1100.88 310.372L1101.62 312.163L1102.65 310.52L1101.8 309.989ZM1115.98 303.975L1116.12 304.965L1116.33 304.934L1116.52 304.816L1115.98 303.975ZM1116.95 303.338L1117.51 304.17L1119.64 302.751L1117.11 302.35L1116.95 303.338ZM1103.26 312.784L1103.31 311.785L1101.37 311.682L1102.41 313.321L1103.26 312.784ZM1116.41 304.588L1116.04 303.66L1115.83 303.743L1115.68 303.905L1116.41 304.588ZM1107.61 317.514L1107 318.309L1108.53 319.48L1108.6 317.55L1107.61 317.514ZM1117.07 305.088L1117.68 305.879L1117.86 305.741L1117.96 305.541L1117.07 305.088ZM1117.54 304.148L1118.43 304.588L1119.55 302.313L1117.18 303.214L1117.54 304.148ZM1110.23 319.185L1109.78 318.294L1108.05 319.173L1109.77 320.071L1110.23 319.185ZM1116.33 321.126L1116.19 322.117L1118.08 322.373L1117.22 320.676L1116.33 321.126ZM1117.44 305.887L1116.65 305.273L1116.52 305.443L1116.47 305.651L1117.44 305.887ZM1118.23 304.886L1119.23 304.825L1119.07 302.25L1117.45 304.259L1118.23 304.886ZM1118.29 305.862L1119.21 306.237L1119.3 306.033L1119.28 305.814L1118.29 305.862ZM1119.5 321.289L1118.66 320.752L1117.64 322.35L1119.54 322.288L1119.5 321.289ZM1125.81 319.941L1126.19 320.866L1128 320.124L1126.34 319.092L1125.81 319.941ZM1119.02 305.919L1118.03 305.778L1118 305.995L1118.06 306.204L1119.02 305.919ZM1119.19 304.776L1120.03 304.222L1118.61 302.09L1118.21 304.619L1119.19 304.776ZM1119.82 305.734L1120.81 305.596L1120.78 305.378L1120.66 305.194L1119.82 305.734ZM1128.54 318.539L1127.55 318.472L1127.42 320.423L1129.07 319.387L1128.54 318.539ZM1133.4 314.125L1134.19 314.733L1135.38 313.181L1133.43 313.125L1133.4 314.125ZM1120.48 305.41L1119.55 305.782L1119.63 305.986L1119.79 306.136L1120.48 305.41ZM1120.12 304.496L1120.57 303.603L1118.25 302.437L1119.19 304.856L1120.12 304.496ZM1121.28 305.094L1122.07 304.474L1121.94 304.308L1121.75 304.21L1121.28 305.094ZM1135.06 311.533L1134.16 311.978L1135.03 313.728L1135.94 312L1135.06 311.533ZM1137.01 305.337L1138 305.462L1138.25 303.525L1136.53 304.459L1137.01 305.337ZM1121.19 304.157L1120.57 304.938L1120.74 305.08L1120.97 305.131L1121.19 304.157ZM1120.41 303.521L1120.34 302.523L1117.82 302.692L1119.77 304.293L1120.41 303.521ZM1121.67 303.448L1122.05 302.521L1121.84 302.438L1121.62 302.449L1121.67 303.448ZM1137.14 302.261L1136.58 303.094L1138.22 304.178L1138.14 302.221L1137.14 302.261ZM1135.78 295.962L1136.7 295.585L1135.97 293.794L1134.93 295.425L1135.78 295.962ZM1121.77 302.707L1121.63 303.697L1121.84 303.727L1122.05 303.665L1121.77 302.707ZM1120.63 302.536L1120.08 301.703L1117.94 303.122L1120.47 303.523L1120.63 302.536ZM1121.59 301.91L1121.45 300.92L1121.23 300.95L1121.05 301.069L1121.59 301.91ZM1134.39 293.229L1134.33 294.227L1136.25 294.336L1135.24 292.702L1134.39 293.229ZM1129.98 288.343L1130.59 287.551L1129.04 286.359L1128.98 288.311L1129.98 288.343ZM1121.48 301.162L1121.86 302.089L1122.06 302.008L1122.21 301.851L1121.48 301.162ZM1120.17 301.678L1119.28 301.234L1118.14 303.525L1120.53 302.612L1120.17 301.678ZM1120.69 300.649L1120.08 299.861L1119.9 299.996L1119.8 300.191L1120.69 300.649ZM1127.38 286.673L1127.83 287.568L1129.57 286.699L1127.85 285.789L1127.38 286.673ZM1121.17 284.715L1121.29 283.722L1119.33 283.479L1120.29 285.202L1121.17 284.715ZM1120.07 300.286L1120.86 300.901L1120.99 300.728L1121.04 300.516L1120.07 300.286ZM1119.36 301.178L1118.37 301.242L1118.53 303.806L1120.14 301.806L1119.36 301.178ZM1119.31 300.191L1118.38 299.816L1118.3 300.021L1118.31 300.241L1119.31 300.191ZM1022.36 428.743V429.743H1023.36V428.743H1022.36ZM1008.3 428.743H1007.3V429.743H1008.3V428.743ZM1111.76 428.743H1110.76V429.743H1111.76V428.743ZM1125.82 428.743V429.743H1126.82V428.743H1125.82ZM1228.86 428.743V429.743H1229.86V428.743H1228.86ZM1214.8 428.743H1213.8V429.743H1214.8V428.743ZM1107.35 529.683H1106.35V530.683H1107.35V529.683ZM1130.23 529.683V530.683H1131.23V529.683H1130.23ZM1084.69 374.391V375.391H1085.69V374.391H1084.69ZM1080.91 374.391H1079.91V375.391H1080.91V374.391ZM1084.69 347.74H1085.69V346.74H1084.69V347.74ZM1080.91 347.74V346.74H1079.91V347.74H1080.91ZM1087.84 374.391H1086.84V375.391H1087.84V374.391ZM1091.62 374.391V375.391H1092.62V374.391H1091.62ZM1087.84 347.74V346.74H1086.84V347.74H1087.84ZM1091.62 347.74H1092.62V346.74H1091.62V347.74ZM1149.54 374.391V375.391H1150.54V374.391H1149.54ZM1145.97 374.391H1144.97V375.391H1145.97V374.391ZM1149.54 347.74H1150.54V346.74H1149.54V347.74ZM1145.97 347.74V346.74H1144.97V347.74H1145.97ZM1152.89 374.391H1151.89V375.391H1152.89V374.391ZM1156.46 374.391V375.391H1157.46V374.391H1156.46ZM1152.89 347.74V346.74H1151.89V347.74H1152.89ZM1156.46 347.74H1157.46V346.74H1156.46V347.74ZM1308.39 469.665V470.665H1309.39V469.665H1308.39ZM1304.83 469.665H1303.83V470.665H1304.83V469.665ZM1308.39 443.013H1309.39V442.013H1308.39V443.013ZM1304.83 443.013V442.013H1303.83V443.013H1304.83ZM1311.75 469.665H1310.75V470.665H1311.75V469.665ZM1315.32 469.665V470.665H1316.32V469.665H1315.32ZM1311.75 443.013V442.013H1310.75V443.013H1311.75ZM1315.32 443.013H1316.32V442.013H1315.32V443.013ZM1321.61 529.683V530.683H1322.61V529.683H1321.61ZM1298.74 529.683H1297.74V530.683H1298.74V529.683ZM1003.9 529.683H1002.9V530.683H1003.9V529.683ZM1026.98 529.683V530.683H1027.98V529.683H1026.98ZM1003.9 490.44V489.44H1002.9V490.44H1003.9ZM1026.98 490.44H1027.98V489.44H1026.98V490.44ZM1233.27 529.683V530.683H1234.27V529.683H1233.27ZM1210.18 529.683H1209.18V530.683H1210.18V529.683ZM1233.27 490.44H1234.27V489.44H1233.27V490.44ZM1210.18 490.44V489.44H1209.18V490.44H1210.18ZM1268.99 413.634V453.296H1270.99V413.634H1268.99ZM1352.25 412.634H1269.99V414.634H1352.25V412.634ZM1353.25 544.582V413.634H1351.25V544.582H1353.25ZM1309.44 545.582H1352.25V543.582H1309.44V545.582ZM1310.44 545.002V544.582H1308.44V545.002H1310.44ZM1227.18 546.002H1309.44V544.002H1227.18V546.002ZM1226.18 544.792V545.002H1228.18V544.792H1226.18ZM1179.34 546.002L1227.19 545.792L1227.18 543.792L1179.33 544.002L1179.34 546.002ZM1058.25 546.002H1179.33V544.002H1058.25V546.002ZM971.995 545.582L1058.24 546.002L1058.25 544.002L972.005 543.582L971.995 545.582ZM971 398.944V544.582H973V398.944H971ZM1053.76 350.651L971.501 398.078L972.499 399.811L1054.76 352.384L1053.76 350.651ZM1055.26 433.57V351.518H1053.26V433.57H1055.26ZM1058.25 432.57H1054.26V434.57H1058.25V432.57ZM1057.25 289.821V433.57H1059.25V289.821H1057.25ZM1118.22 233.264L1057.57 289.085L1058.93 290.557L1119.57 234.736L1118.22 233.264ZM1180.01 289.086L1119.58 233.265L1118.22 234.735L1178.66 290.555L1180.01 289.086ZM1180.33 433.57V289.821H1178.33V433.57H1180.33ZM1183.32 432.57H1179.33V434.57H1183.32V432.57ZM1182.32 351.518V433.57H1184.32V351.518H1182.32ZM1266.08 398.078L1183.82 350.651L1182.82 352.384L1265.08 399.811L1266.08 398.078ZM1266.58 453.296V398.944H1264.58V453.296H1266.58ZM1269.99 452.296H1265.58V454.296H1269.99V452.296ZM1097.33 303.042C1097.33 314.723 1107.02 324.397 1118.9 324.397V322.397C1108.11 322.397 1099.33 313.605 1099.33 303.042H1097.33ZM1118.9 281.476C1107.01 281.476 1097.33 291.157 1097.33 303.042H1099.33C1099.33 292.262 1108.12 283.476 1118.9 283.476V281.476ZM1140.25 303.042C1140.25 291.164 1130.58 281.476 1118.9 281.476V283.476C1129.46 283.476 1138.25 292.255 1138.25 303.042H1140.25ZM1118.9 324.397C1130.57 324.397 1140.25 314.716 1140.25 303.042H1138.25C1138.25 313.612 1129.47 322.397 1118.9 322.397V324.397ZM1118.09 283.591C1115.73 283.685 1113.48 284.189 1111.42 285.037L1112.18 286.887C1114.03 286.128 1116.04 285.674 1118.17 285.589L1118.09 283.591ZM1119.52 299.675C1118.31 295.619 1117.88 292.385 1117.91 289.95C1117.93 287.489 1118.43 285.935 1118.96 285.149L1117.3 284.031C1116.46 285.274 1115.94 287.275 1115.91 289.928C1115.88 292.607 1116.35 296.044 1117.6 300.247L1119.52 299.675ZM1119.38 301.254C1119.44 300.876 1119.5 300.492 1119.55 300.102L1117.57 299.82C1117.52 300.2 1117.46 300.574 1117.4 300.941L1119.38 301.254ZM1116.92 300.68C1117.14 301.011 1117.35 301.334 1117.56 301.652L1119.22 300.544C1119.02 300.236 1118.81 299.921 1118.61 299.599L1116.92 300.68ZM1111.27 286.809C1112.08 287.319 1113.17 288.543 1114.21 290.773C1115.24 292.981 1116.19 296.098 1116.77 300.278L1118.76 300.001C1118.15 295.671 1117.16 292.353 1116.02 289.927C1114.9 287.523 1113.6 285.912 1112.33 285.115L1111.27 286.809ZM1108.04 287.312C1107.94 288.828 1108.49 290.853 1109.81 293.203C1111.13 295.576 1113.28 298.359 1116.51 301.415L1117.88 299.964C1114.77 297.014 1112.76 294.386 1111.55 292.227C1110.33 290.046 1109.97 288.418 1110.04 287.445L1108.04 287.312ZM1105.02 292.359C1106.28 290.725 1107.82 289.324 1109.57 288.226L1108.51 286.531C1106.55 287.755 1104.84 289.318 1103.44 291.141L1105.02 292.359ZM1117.32 300.453C1114.63 297 1112.1 294.62 1109.9 293.082C1107.71 291.558 1105.78 290.811 1104.27 290.751L1104.19 292.75C1105.16 292.788 1106.73 293.308 1108.75 294.722C1110.76 296.122 1113.14 298.351 1115.74 301.683L1117.32 300.453ZM1117.99 300.685C1117.66 300.522 1117.32 300.353 1116.99 300.179L1116.07 301.957C1116.42 302.135 1116.76 302.308 1117.1 302.476L1117.99 300.685ZM1116.26 301.059C1116.38 301.355 1116.5 301.648 1116.61 301.937L1118.47 301.224C1118.36 300.926 1118.24 300.624 1118.12 300.32L1116.26 301.059ZM1101.66 294.836C1102.34 296.174 1103.82 297.616 1106.11 298.959C1108.42 300.314 1111.62 301.612 1115.86 302.618L1116.32 300.673C1112.23 299.701 1109.22 298.467 1107.12 297.234C1105 295.989 1103.88 294.789 1103.44 293.926L1101.66 294.836ZM1101.58 300.702C1101.86 298.604 1102.49 296.631 1103.43 294.846L1101.66 293.916C1100.61 295.908 1099.9 298.108 1099.6 300.443L1101.58 300.702ZM1115.98 301.516C1112 299.904 1108.68 299.122 1106.05 298.898C1103.45 298.676 1101.43 298.994 1100.12 299.688L1101.06 301.456C1101.89 301.014 1103.47 300.685 1105.88 300.891C1108.27 301.094 1111.39 301.816 1115.23 303.37L1115.98 301.516ZM1116.93 301.37C1116.49 301.398 1116.03 301.423 1115.56 301.444L1115.65 303.442C1116.13 303.421 1116.6 303.395 1117.06 303.366L1116.93 301.37ZM1115.47 302.433C1115.78 302.671 1116.07 302.909 1116.37 303.145L1117.63 301.591C1117.33 301.348 1117.02 301.104 1116.71 300.858L1115.47 302.433ZM1099.89 304.454C1101.13 305.281 1103.14 305.799 1105.79 305.825C1108.47 305.851 1111.9 305.378 1116.1 304.125L1115.53 302.209C1111.48 303.418 1108.25 303.849 1105.81 303.825C1103.35 303.801 1101.79 303.314 1100.99 302.787L1099.89 304.454ZM1102.73 309.607C1101.96 307.743 1101.5 305.715 1101.44 303.589L1099.44 303.652C1099.51 306.023 1100.02 308.288 1100.88 310.372L1102.73 309.607ZM1115.84 302.985C1111.51 303.596 1108.2 304.598 1105.77 305.74C1103.37 306.872 1101.76 308.181 1100.96 309.458L1102.65 310.52C1103.17 309.697 1104.4 308.599 1106.62 307.549C1108.83 306.51 1111.94 305.555 1116.12 304.965L1115.84 302.985ZM1116.4 302.505C1116.09 302.714 1115.76 302.923 1115.44 303.133L1116.52 304.816C1116.85 304.6 1117.18 304.385 1117.51 304.17L1116.4 302.505ZM1115.68 304.157C1116.06 304.211 1116.43 304.267 1116.8 304.325L1117.11 302.35C1116.73 302.29 1116.35 302.232 1115.96 302.177L1115.68 304.157ZM1103.2 313.782C1104.72 313.863 1106.72 313.295 1109.05 311.971C1111.39 310.634 1114.13 308.483 1117.14 305.272L1115.68 303.905C1112.78 307.004 1110.19 309.017 1108.06 310.233C1105.9 311.462 1104.29 311.837 1103.31 311.785L1103.2 313.782ZM1108.21 316.719C1106.59 315.48 1105.2 313.966 1104.1 312.247L1102.41 313.321C1103.63 315.239 1105.19 316.928 1107 318.309L1108.21 316.719ZM1116.46 304.297C1112.94 307.018 1110.52 309.572 1108.96 311.798C1107.41 314.004 1106.66 315.961 1106.61 317.477L1108.6 317.55C1108.64 316.575 1109.16 314.994 1110.6 312.946C1112.02 310.919 1114.29 308.506 1117.68 305.879L1116.46 304.297ZM1116.64 303.709C1116.49 304.014 1116.33 304.323 1116.18 304.635L1117.96 305.541C1118.12 305.22 1118.28 304.902 1118.43 304.588L1116.64 303.709ZM1116.78 305.517C1117.16 305.366 1117.53 305.222 1117.89 305.083L1117.18 303.214C1116.8 303.357 1116.42 303.505 1116.04 303.66L1116.78 305.517ZM1109.77 320.071C1111.73 321.099 1113.9 321.804 1116.19 322.117L1116.46 320.135C1114.4 319.854 1112.45 319.221 1110.69 318.299L1109.77 320.071ZM1116.47 305.651C1115.5 309.664 1114.27 312.615 1113.05 314.676C1111.82 316.757 1110.63 317.86 1109.78 318.294L1110.68 320.077C1112.01 319.402 1113.44 317.943 1114.77 315.695C1116.11 313.428 1117.4 310.283 1118.41 306.122L1116.47 305.651ZM1117.45 304.259C1117.19 304.589 1116.92 304.927 1116.65 305.273L1118.23 306.5C1118.49 306.163 1118.75 305.834 1119.01 305.514L1117.45 304.259ZM1119.28 305.814C1119.27 305.48 1119.25 305.15 1119.23 304.825L1117.23 304.948C1117.25 305.264 1117.27 305.584 1117.29 305.909L1119.28 305.814ZM1117.22 320.676C1116.78 319.796 1116.46 318.17 1116.68 315.718C1116.9 313.288 1117.64 310.125 1119.21 306.237L1117.36 305.486C1115.73 309.515 1114.93 312.871 1114.69 315.538C1114.45 318.183 1114.76 320.231 1115.44 321.576L1117.22 320.676ZM1119.54 322.288C1121.88 322.212 1124.13 321.713 1126.19 320.866L1125.43 319.016C1123.58 319.774 1121.57 320.221 1119.47 320.289L1119.54 322.288ZM1118.06 306.204C1119.26 310.222 1119.69 313.44 1119.68 315.877C1119.66 318.338 1119.19 319.923 1118.66 320.752L1120.35 321.826C1121.15 320.554 1121.66 318.545 1121.68 315.891C1121.7 313.214 1121.22 309.797 1119.98 305.633L1118.06 306.204ZM1118.21 304.619C1118.14 304.999 1118.09 305.385 1118.03 305.778L1120.01 306.059C1120.07 305.677 1120.12 305.302 1120.18 304.933L1118.21 304.619ZM1120.66 305.194C1120.45 304.863 1120.24 304.539 1120.03 304.222L1118.36 305.33C1118.57 305.638 1118.77 305.953 1118.98 306.275L1120.66 305.194ZM1126.34 319.092C1125.53 318.587 1124.43 317.366 1123.39 315.132C1122.35 312.92 1121.4 309.793 1120.81 305.596L1118.83 305.872C1119.44 310.221 1120.43 313.549 1121.57 315.98C1122.7 318.388 1124.01 319.998 1125.28 320.79L1126.34 319.092ZM1129.07 319.387C1131.05 318.154 1132.78 316.574 1134.19 314.733L1132.61 313.517C1131.34 315.168 1129.78 316.586 1128.01 317.691L1129.07 319.387ZM1119.79 306.136C1122.87 309.044 1124.85 311.634 1126.05 313.763C1127.26 315.914 1127.61 317.516 1127.55 318.472L1129.54 318.606C1129.64 317.106 1129.1 315.104 1127.79 312.784C1126.48 310.443 1124.35 307.697 1121.17 304.683L1119.79 306.136ZM1119.19 304.856C1119.3 305.161 1119.43 305.47 1119.55 305.782L1121.41 305.037C1121.29 304.733 1121.17 304.433 1121.05 304.136L1119.19 304.856ZM1121.75 304.21C1121.35 304 1120.96 303.798 1120.57 303.603L1119.67 305.389C1120.05 305.579 1120.43 305.776 1120.82 305.979L1121.75 304.21ZM1133.43 313.125C1132.48 313.098 1130.95 312.605 1128.95 311.236C1126.98 309.882 1124.63 307.717 1122.07 304.474L1120.5 305.715C1123.16 309.078 1125.65 311.393 1127.82 312.885C1129.97 314.363 1131.89 315.082 1133.37 315.124L1133.43 313.125ZM1135.94 312C1137 310.002 1137.71 307.796 1138 305.462L1136.02 305.213C1135.76 307.303 1135.12 309.277 1134.17 311.067L1135.94 312ZM1120.97 305.131C1125.19 306.107 1128.28 307.362 1130.43 308.618C1132.6 309.886 1133.73 311.11 1134.16 311.978L1135.95 311.089C1135.28 309.728 1133.77 308.257 1131.44 306.891C1129.08 305.512 1125.79 304.193 1121.42 303.182L1120.97 305.131ZM1119.77 304.293C1120.03 304.507 1120.3 304.722 1120.57 304.938L1121.81 303.375C1121.55 303.165 1121.29 302.956 1121.04 302.749L1119.77 304.293ZM1121.62 302.449C1121.19 302.47 1120.76 302.495 1120.34 302.523L1120.47 304.519C1120.88 304.491 1121.3 304.467 1121.72 304.447L1121.62 302.449ZM1136.53 304.459C1135.69 304.917 1134.08 305.264 1131.62 305.059C1129.18 304.857 1125.99 304.121 1122.05 302.521L1121.29 304.374C1125.38 306.032 1128.77 306.83 1131.45 307.053C1134.11 307.273 1136.17 306.936 1137.49 306.215L1136.53 304.459ZM1138.14 302.221C1138.04 299.875 1137.54 297.64 1136.7 295.585L1134.85 296.34C1135.6 298.183 1136.05 300.19 1136.14 302.302L1138.14 302.221ZM1122.05 303.665C1126.1 302.458 1129.33 302.027 1131.76 302.052C1134.23 302.077 1135.79 302.564 1136.58 303.094L1137.69 301.428C1136.44 300.598 1134.44 300.079 1131.79 300.052C1129.11 300.025 1125.68 300.497 1121.48 301.748L1122.05 303.665ZM1120.47 303.523C1120.85 303.583 1121.24 303.641 1121.63 303.697L1121.91 301.717C1121.53 301.663 1121.15 301.606 1120.79 301.548L1120.47 303.523ZM1121.05 301.069C1120.72 301.281 1120.39 301.492 1120.08 301.703L1121.19 303.368C1121.49 303.164 1121.81 302.958 1122.13 302.751L1121.05 301.069ZM1134.93 295.425C1134.42 296.236 1133.19 297.323 1130.95 298.362C1128.74 299.391 1125.63 300.337 1121.45 300.92L1121.73 302.9C1126.05 302.297 1129.37 301.305 1131.8 300.175C1134.2 299.056 1135.82 297.762 1136.62 296.5L1134.93 295.425ZM1135.24 292.702C1134.01 290.712 1132.43 288.968 1130.59 287.551L1129.37 289.136C1131.02 290.405 1132.43 291.97 1133.54 293.755L1135.24 292.702ZM1122.21 301.851C1125.06 298.847 1127.6 296.897 1129.69 295.721C1131.81 294.532 1133.38 294.173 1134.33 294.227L1134.44 292.23C1132.96 292.146 1130.99 292.695 1128.71 293.978C1126.41 295.272 1123.72 297.358 1120.76 300.473L1122.21 301.851ZM1120.53 302.612C1120.97 302.445 1121.41 302.271 1121.86 302.089L1121.1 300.235C1120.67 300.412 1120.24 300.582 1119.81 300.744L1120.53 302.612ZM1119.8 300.191C1119.62 300.543 1119.45 300.89 1119.28 301.234L1121.07 302.121C1121.23 301.787 1121.4 301.449 1121.58 301.107L1119.8 300.191ZM1128.98 288.311C1128.95 289.273 1128.44 290.836 1127.03 292.862C1125.64 294.868 1123.41 297.257 1120.08 299.861L1121.31 301.437C1124.76 298.739 1127.14 296.209 1128.67 294.004C1130.19 291.819 1130.93 289.879 1130.98 288.376L1128.98 288.311ZM1127.85 285.789C1125.85 284.728 1123.63 284.014 1121.29 283.722L1121.04 285.707C1123.14 285.968 1125.12 286.607 1126.92 287.557L1127.85 285.789ZM1121.04 300.516C1122.02 296.384 1123.26 293.354 1124.51 291.244C1125.76 289.113 1126.97 287.997 1127.83 287.568L1126.94 285.778C1125.59 286.449 1124.14 287.932 1122.78 290.23C1121.42 292.548 1120.11 295.775 1119.1 300.056L1121.04 300.516ZM1120.14 301.806C1120.38 301.511 1120.62 301.209 1120.86 300.901L1119.28 299.671C1119.05 299.971 1118.82 300.264 1118.58 300.551L1120.14 301.806ZM1118.31 300.241C1118.32 300.579 1118.34 300.913 1118.37 301.242L1120.36 301.114C1120.34 300.794 1120.32 300.47 1120.31 300.141L1118.31 300.241ZM1120.29 285.202C1120.76 286.036 1121.12 287.648 1120.92 290.136C1120.72 292.598 1119.99 295.828 1118.38 299.816L1120.23 300.565C1121.9 296.432 1122.7 293.002 1122.91 290.295C1123.13 287.614 1122.78 285.549 1122.04 284.228L1120.29 285.202ZM1015.44 397.525C1010.92 397.525 1007.3 401.101 1007.3 405.45H1009.3C1009.3 402.244 1011.99 399.525 1015.44 399.525V397.525ZM1023.36 405.45C1023.36 401.12 1019.77 397.525 1015.44 397.525V399.525C1018.66 399.525 1021.36 402.225 1021.36 405.45H1023.36ZM1023.36 428.743V405.45H1021.36V428.743H1023.36ZM1008.3 429.743H1022.36V427.743H1008.3V429.743ZM1007.3 405.45V428.743H1009.3V405.45H1007.3ZM1112.76 405.45C1112.76 402.225 1115.46 399.525 1118.69 399.525V397.525C1114.36 397.525 1110.76 401.12 1110.76 405.45H1112.76ZM1112.76 428.743V405.45H1110.76V428.743H1112.76ZM1125.82 427.743H1111.76V429.743H1125.82V427.743ZM1124.82 405.45V428.743H1126.82V405.45H1124.82ZM1118.69 399.525C1122.14 399.525 1124.82 402.244 1124.82 405.45H1126.82C1126.82 401.101 1123.21 397.525 1118.69 397.525V399.525ZM1221.72 397.525C1217.39 397.525 1213.8 401.12 1213.8 405.45H1215.8C1215.8 402.225 1218.5 399.525 1221.72 399.525V397.525ZM1229.86 405.45C1229.86 401.101 1226.24 397.525 1221.72 397.525V399.525C1225.18 399.525 1227.86 402.244 1227.86 405.45H1229.86ZM1229.86 428.743V405.45H1227.86V428.743H1229.86ZM1214.8 429.743H1228.86V427.743H1214.8V429.743ZM1213.8 405.45V428.743H1215.8V405.45H1213.8ZM1108.35 499.464C1108.35 495.181 1112.72 491.44 1118.69 491.44V489.44C1112.07 489.44 1106.35 493.673 1106.35 499.464H1108.35ZM1108.35 529.683V499.464H1106.35V529.683H1108.35ZM1130.23 528.683H1107.35V530.683H1130.23V528.683ZM1129.23 499.464V529.683H1131.23V499.464H1129.23ZM1118.69 491.44C1124.88 491.44 1129.23 495.192 1129.23 499.464H1131.23C1131.23 493.663 1125.51 489.44 1118.69 489.44V491.44ZM1084.69 373.391H1080.91V375.391H1084.69V373.391ZM1083.69 347.74V374.391H1085.69V347.74H1083.69ZM1080.91 348.74H1084.69V346.74H1080.91V348.74ZM1081.91 374.391V347.74H1079.91V374.391H1081.91ZM1087.84 375.391H1091.62V373.391H1087.84V375.391ZM1086.84 347.74V374.391H1088.84V347.74H1086.84ZM1091.62 346.74H1087.84V348.74H1091.62V346.74ZM1092.62 374.391V347.74H1090.62V374.391H1092.62ZM1149.54 373.391H1145.97V375.391H1149.54V373.391ZM1148.54 347.74V374.391H1150.54V347.74H1148.54ZM1145.97 348.74H1149.54V346.74H1145.97V348.74ZM1146.97 374.391V347.74H1144.97V374.391H1146.97ZM1152.89 375.391H1156.46V373.391H1152.89V375.391ZM1151.89 347.74V374.391H1153.89V347.74H1151.89ZM1156.46 346.74H1152.89V348.74H1156.46V346.74ZM1157.46 374.391V347.74H1155.46V374.391H1157.46ZM1308.39 468.665H1304.83V470.665H1308.39V468.665ZM1307.39 443.013V469.665H1309.39V443.013H1307.39ZM1304.83 444.013H1308.39V442.013H1304.83V444.013ZM1305.83 469.665V443.013H1303.83V469.665H1305.83ZM1311.75 470.665H1315.32V468.665H1311.75V470.665ZM1310.75 443.013V469.665H1312.75V443.013H1310.75ZM1315.32 442.013H1311.75V444.013H1315.32V442.013ZM1316.32 469.665V443.013H1314.32V469.665H1316.32ZM1310.07 489.44C1303.45 489.44 1297.74 493.673 1297.74 499.464H1299.74C1299.74 495.181 1304.1 491.44 1310.07 491.44V489.44ZM1322.61 499.464C1322.61 493.663 1316.89 489.44 1310.07 489.44V491.44C1316.26 491.44 1320.61 495.192 1320.61 499.464H1322.61ZM1322.61 529.683V499.464H1320.61V529.683H1322.61ZM1298.74 530.683H1321.61V528.683H1298.74V530.683ZM1297.74 499.464V529.683H1299.74V499.464H1297.74ZM1003.9 530.683H1026.98V528.683H1003.9V530.683ZM1002.9 490.44V529.683H1004.9V490.44H1002.9ZM1026.98 489.44H1003.9V491.44H1026.98V489.44ZM1027.98 529.683V490.44H1025.98V529.683H1027.98ZM1233.27 528.683H1210.18V530.683H1233.27V528.683ZM1232.27 490.44V529.683H1234.27V490.44H1232.27ZM1210.18 491.44H1233.27V489.44H1210.18V491.44ZM1211.18 529.683V490.44H1209.18V529.683H1211.18Z" fill="white" mask="url(#path-3-inside-2_357_6)"/>
    <path d="M318.117 491.607L557.917 354.866L318.117 491.607Z" fill="black"/>
    <path d="M318.117 491.607L557.917 354.866" stroke="white" stroke-miterlimit="10"/>
    <path d="M336.067 492.817L557.515 359.706L336.067 492.817Z" fill="black"/>
    <path d="M336.067 492.817L557.515 359.706" stroke="white" stroke-miterlimit="10"/>
    <path d="M361.479 492.212L558.321 363.942L361.479 492.212Z" fill="black"/>
    <path d="M361.479 492.212L558.321 363.942" stroke="white" stroke-miterlimit="10"/>
    <path d="M384.27 493.624L559.128 367.976L384.27 493.624Z" fill="black"/>
    <path d="M384.27 493.624L559.128 367.976" stroke="white" stroke-miterlimit="10"/>
    <path d="M407.866 494.834L558.12 375.236L407.866 494.834Z" fill="black"/>
    <path d="M407.866 494.834L558.12 375.236" stroke="white" stroke-miterlimit="10"/>
    <path d="M429.245 492.01L559.33 379.875L429.245 492.01Z" fill="black"/>
    <path d="M429.245 492.01L559.33 379.875" stroke="white" stroke-miterlimit="10"/>
    <path d="M446.791 493.422L559.733 386.934L446.791 493.422Z" fill="black"/>
    <path d="M446.791 493.422L559.733 386.934" stroke="white" stroke-miterlimit="10"/>
    <path d="M461.312 497.859L562.154 393.387L461.312 497.859Z" fill="black"/>
    <path d="M461.312 497.859L562.154 393.387" stroke="white" stroke-miterlimit="10"/>
    <path d="M480.875 493.624L565.582 397.824L480.875 493.624Z" fill="black"/>
    <path d="M480.875 493.624L565.582 397.824" stroke="white" stroke-miterlimit="10"/>
    <path d="M574.658 391.169L726.928 493.624L574.658 391.169Z" fill="black"/>
    <path d="M574.658 391.169L726.928 493.624" stroke="white" stroke-miterlimit="10"/>
    <path d="M758.592 493.22L573.649 385.119L758.592 493.22Z" fill="black"/>
    <path d="M758.592 493.22L573.649 385.119" stroke="white" stroke-miterlimit="10"/>
    <path d="M789.046 492.615L579.498 382.093L789.046 492.615Z" fill="black"/>
    <path d="M789.046 492.615L579.498 382.093" stroke="white" stroke-miterlimit="10"/>
    <path d="M956.443 496.649L580.507 354.664L956.443 496.649Z" fill="black"/>
    <path d="M956.443 496.649L580.507 354.664" stroke="white" stroke-miterlimit="10"/>
    <path d="M931.636 496.649L580.91 359.505L931.636 496.649Z" fill="black"/>
    <path d="M931.636 496.649L580.91 359.505" stroke="white" stroke-miterlimit="10"/>
    <path d="M904.609 497.254L580.103 363.942L904.609 497.254Z" fill="black"/>
    <path d="M904.609 497.254L580.103 363.942" stroke="white" stroke-miterlimit="10"/>
    <path d="M861.853 494.43L579.296 367.976L861.853 494.43Z" fill="black"/>
    <path d="M861.853 494.43L579.296 367.976" stroke="white" stroke-miterlimit="10"/>
    <path d="M826.761 494.027L580.305 375.034L826.761 494.027Z" fill="black"/>
    <path d="M826.761 494.027L580.305 375.034" stroke="white" stroke-miterlimit="10"/>
    <path d="M579.095 400.85L695.264 496.649L579.095 400.85Z" fill="black"/>
    <path d="M579.095 400.85L695.264 496.649" stroke="white" stroke-miterlimit="10"/>
    <path d="M663.599 500.279L578.893 404.279L663.599 500.279Z" fill="black"/>
    <path d="M663.599 500.279L578.893 404.279" stroke="white" stroke-miterlimit="10"/>
    <path fill-rule="evenodd" clip-rule="evenodd" d="M972.173 509.556H608.54L618.221 543.237H588.17L582.927 509.556H555.296L550.052 543.237H520.002L529.682 509.556H304L317.916 491.001H535.128L556.305 417.589V323H581.918V417.589L603.095 491.001H989.316L972.173 509.556ZM580.305 491.001L571.834 435.337H566.389L558.12 491.001H580.305Z" fill="black" stroke="white" stroke-miterlimit="10"/>
    <path d="M256.881 267.563C256.881 277.805 248.576 286.109 238.058 286.109C227.816 286.109 219.511 277.805 219.511 267.563C219.511 257.044 227.816 248.74 238.058 248.74C248.576 248.74 256.881 257.044 256.881 267.563Z" fill="black"/>
    <path d="M292.312 69.3666C284.838 67.1521 277.087 70.4739 273.212 76.8405L305.322 85.4217C304.768 77.9478 299.786 71.3043 292.312 69.3666Z" fill="black"/>
    <path d="M249.683 75.1797H255.219C253.005 68.2594 246.361 63 238.611 63C230.86 63 224.216 68.2594 222.002 75.1797H226.708C230.399 74.9951 234.182 74.9029 238.057 74.9029C241.932 74.9029 245.808 74.9951 249.683 75.1797Z" fill="black"/>
    <path d="M184.078 69.3666C176.328 71.3043 171.345 77.9478 171.068 85.4217L203.178 76.8405C199.026 70.4739 191.552 67.1521 184.078 69.3666Z" fill="black"/>
    <path d="M155.845 92.0651C150.308 87.0825 142.004 85.9753 135.361 89.8506C128.717 93.726 125.395 101.477 127.056 108.674L155.845 92.0651Z" fill="black"/>
    <path d="M118.198 116.425C111.831 112.55 103.527 113.103 97.7136 118.363C91.9006 123.622 90.5166 131.926 93.5615 138.57L108.232 125.283C108.602 125.098 108.878 124.822 109.063 124.453L118.198 116.425Z" fill="black"/>
    <path d="M430.994 253.723V286.94C438.191 284.725 443.174 278.082 443.174 270.331C443.174 262.58 438.191 255.937 430.994 253.723Z" fill="black"/>
    <path d="M80.2751 154.901C73.078 153.24 65.3273 156.285 61.4519 163.205C57.5766 169.849 58.6838 178.153 63.6664 183.413L80.2751 154.901Z" fill="black"/>
    <path d="M47.8878 231.854L56.4689 199.744C49.2719 200.021 42.6284 205.004 40.4139 212.477C38.4762 220.228 41.798 227.702 47.8878 231.854Z" fill="black"/>
    <path d="M45.1197 250.954C38.1994 253.169 32.94 259.536 32.94 267.563C32.94 275.314 38.1994 281.68 45.1197 283.895V250.954Z" fill="black"/>
    <path d="M39.5831 321.541C41.7976 329.015 48.4411 333.998 55.915 334.275L47.3338 302.441C40.9672 306.317 37.6455 314.067 39.5831 321.541Z" fill="black"/>
    <path d="M60.6212 371.09C64.4966 377.734 72.2473 380.779 79.4444 379.395L63.1125 350.606C57.8531 356.143 56.7459 364.447 60.6212 371.09Z" fill="black"/>
    <path d="M96.883 416.211C102.419 421.747 110.723 422.854 117.367 419.256L93.838 396.003C90.5163 402.37 91.6236 410.674 96.883 416.211Z" fill="black"/>
    <path d="M134.529 444.999C141.45 448.874 149.477 447.767 155.013 442.784L126.225 426.175C124.841 433.373 127.886 441.123 134.529 444.999Z" fill="black"/>
    <path d="M184.078 465.76C191.552 467.697 199.026 464.375 203.178 458.009L171.068 449.705C171.345 456.902 176.328 463.545 184.078 465.76Z" fill="black"/>
    <path d="M221.448 459.392C223.663 466.036 230.03 471.018 237.78 471.018C245.254 471.018 251.621 466.313 254.112 459.392C248.945 459.762 243.593 459.946 238.057 459.946C232.521 459.946 226.985 459.762 221.448 459.392Z" fill="black"/>
    <path d="M292.589 466.037C300.062 464.099 305.045 457.455 305.322 449.982L273.212 458.563C277.364 464.929 284.838 467.974 292.589 466.037Z" fill="black"/>
    <path d="M321.377 442.784C326.913 447.767 334.94 448.874 341.861 444.999C348.504 441.123 351.549 433.373 349.888 426.175L321.377 442.784Z" fill="black"/>
    <path d="M384.213 392.958C377.939 400.156 371.295 406.799 364.283 412.889C370.926 416.487 378.954 415.38 384.49 409.844C390.026 404.308 391.133 396.003 387.535 389.637L384.213 392.958Z" fill="black"/>
    <path d="M396.393 379.118C403.59 380.502 411.341 377.457 415.216 370.813C419.091 363.893 417.707 355.866 412.725 350.329L396.393 379.118Z" fill="black"/>
    <path d="M427.395 305.209L418.814 337.319C426.288 337.042 432.931 332.06 435.146 324.586C437.083 316.835 433.762 309.361 427.395 305.209Z" fill="black"/>
    <path d="M428.226 232.685C434.316 228.533 437.637 221.059 435.7 213.308C433.762 205.834 427.118 200.852 419.645 200.575L423.52 215.246C424.073 217.276 424.627 219.213 425.181 221.059L428.226 232.685Z" fill="black"/>
    <path d="M414.939 163.759C411.064 156.838 403.313 153.794 396.116 155.454L412.725 184.243C417.707 178.707 418.814 170.402 414.939 163.759Z" fill="black"/>
    <path d="M385.32 124.175C379.784 118.639 371.48 117.809 365.113 121.13L388.365 144.659C391.964 138.016 390.856 129.712 385.32 124.175Z" fill="black"/>
    <path d="M341.585 90.1276C334.941 86.2522 326.637 87.6363 321.101 92.6189L349.889 109.228C351.55 102.03 348.228 94.2797 341.585 90.1276Z" fill="black"/>
    <path d="M238.057 74.9029C234.182 74.9029 230.399 74.9951 226.708 75.1797H249.683C245.808 74.9951 241.932 74.9029 238.057 74.9029Z" fill="black"/>
    <path d="M221.172 458.839C221.172 459.024 221.264 459.208 221.448 459.392C226.985 459.762 232.521 459.946 238.057 459.946C243.593 459.946 248.945 459.762 254.112 459.392C254.112 459.208 254.204 459.024 254.389 458.839H221.172Z" fill="black"/>
    <path d="M364.283 412.889L384.213 392.958C377.939 400.156 371.295 406.799 364.283 412.889Z" fill="black"/>
    <path d="M476.391 544.097H0L56.4694 490.949H419.645L476.391 544.097Z" fill="black"/>
    <path d="M236.12 268.671L235.013 270.609M236.12 268.671L238.058 267.564M236.12 268.671L236.673 267.841M236.12 268.671L87.4725 354.482M235.013 270.609L238.058 267.564M235.013 270.609L150.032 416.211M235.013 270.609L115.154 390.468M238.058 267.564L236.673 267.841M238.058 267.564L361.238 144.383M238.058 267.564L388.919 180.368M238.058 267.564L238.057 265.072M238.058 267.564L239.164 263.134M238.058 267.564L237.781 265.903M238.058 267.564L237.504 267.01M238.058 267.564L236.95 267.564M238.058 267.564L237.78 267.287M238.058 267.564L406.358 222.443M238.058 267.564L412.171 267.564M238.058 267.564L406.358 312.407M238.058 267.564L388.919 354.482M238.058 267.564L238.057 267.841M238.058 267.564L238.335 268.119L238.057 267.841M238.058 267.564L361.238 390.468M238.058 267.564L238.334 268.117M236.673 267.841L236.95 267.564M236.673 267.841L70.0333 312.407M388.919 180.368C381.168 167.081 372.034 155.178 361.238 144.383M388.919 180.368C403.867 206.111 412.171 235.73 412.171 267.564M361.238 144.383C350.442 133.587 338.263 124.175 324.976 116.424M237.78 267.287L237.227 267.01M237.78 267.287H236.95M237.78 267.287L238.059 267.564M237.227 267.01L236.95 267.287M237.227 267.01L237.227 266.733M237.227 267.01L237.782 267.288L237.505 267.01M237.227 267.01L87.4725 180.368M236.95 267.287V267.564M236.95 267.287L70.0333 222.443M238.059 267.564L237.504 267.01M238.059 267.564L238.058 265.072L237.781 265.903M238.059 267.564L237.781 265.903M237.504 267.01V266.456M237.505 267.01L237.227 266.733M237.505 267.01V266.456M237.227 266.733L237.505 266.456M237.227 266.733L115.154 144.382M239.164 263.134L238.057 265.072M239.164 263.134L283.177 99.2622M239.164 263.134L324.976 116.424M238.057 265.072V93.4492M238.057 265.072L237.781 265.903M237.781 265.903L237.504 266.456M237.781 265.903L193.214 99.2622M237.504 266.456L150.308 117.255M237.505 266.456L150.308 117.255M236.95 267.564L63.9435 267.564M412.171 267.564C412.171 299.12 403.867 329.016 388.919 354.482M388.919 354.482C381.168 367.769 372.034 379.949 361.238 390.468M238.057 267.841L193.214 435.588M238.057 267.841L238.058 441.678M238.057 267.841L238.334 268.117M115.154 390.468C146.433 422.024 190.169 441.678 238.058 441.678M115.154 390.468C104.358 379.949 94.9464 367.769 87.4725 354.482M238.058 441.678C286.223 441.678 329.681 422.024 361.238 390.468M238.334 268.117L325.529 417.595M238.334 268.117L283.177 435.588M87.4725 354.482C72.5247 329.015 63.9435 299.12 63.9435 267.564M63.9435 267.564C63.9435 235.731 72.5247 206.111 87.4725 180.368M324.976 116.424C299.232 101.754 269.614 93.4492 238.057 93.4492M238.057 93.4492C206.224 93.4492 176.052 102.03 150.308 117.255M150.308 117.255C137.298 124.729 125.672 133.864 115.154 144.382M115.154 144.382C104.358 155.178 94.9464 167.081 87.4725 180.368M249.683 75.1797H255.219C253.005 68.2594 246.361 63 238.611 63C230.86 63 224.216 68.2594 222.002 75.1797H226.708M249.683 75.1797C245.808 74.9951 241.932 74.9029 238.057 74.9029C234.182 74.9029 230.399 74.9951 226.708 75.1797M249.683 75.1797C332.726 80.1622 401.929 137.739 423.52 215.246M249.683 75.1797H226.708M226.708 75.1797C181.588 77.9478 140.619 95.9411 109.063 124.453M108.232 125.283L93.5615 138.57C90.5166 131.926 91.9006 123.622 97.7136 118.363C103.527 113.103 111.831 112.55 118.198 116.425L109.063 124.453M108.232 125.283C108.602 125.098 108.878 124.822 109.063 124.453M108.232 125.283C69.7558 160.438 45.6738 211.094 45.6738 267.563C45.6738 368.045 122.904 450.811 221.448 459.392M221.448 459.392C223.663 466.036 230.03 471.018 237.78 471.018C245.254 471.018 251.621 466.313 254.112 459.392M221.448 459.392C226.985 459.762 232.521 459.946 238.057 459.946C243.593 459.946 248.945 459.762 254.112 459.392M221.448 459.392C221.264 459.208 221.172 459.024 221.172 458.839H254.389C254.204 459.024 254.112 459.208 254.112 459.392M254.112 459.392C296.187 455.794 334.11 438.909 364.283 412.889M384.213 392.958C377.939 400.156 371.295 406.799 364.283 412.889M384.213 392.958L387.535 389.637C391.133 396.003 390.026 404.308 384.49 409.844C378.954 415.38 370.926 416.487 364.283 412.889M384.213 392.958C413.278 359.188 430.717 315.451 430.717 267.563C430.717 251.508 428.779 236.007 425.181 221.059M384.213 392.958L364.283 412.889M423.52 215.246L419.645 200.575C427.118 200.852 433.762 205.834 435.7 213.308C437.637 221.059 434.316 228.533 428.226 232.685L425.181 221.059M423.52 215.246C424.073 217.276 424.627 219.213 425.181 221.059M80.2751 540.775L238.057 267.563L395.839 540.498M256.881 267.563C256.881 277.805 248.576 286.109 238.058 286.109C227.816 286.109 219.511 277.805 219.511 267.563C219.511 257.044 227.816 248.74 238.058 248.74C248.576 248.74 256.881 257.044 256.881 267.563ZM292.312 69.3666C284.838 67.1521 277.087 70.4739 273.212 76.8405L305.322 85.4217C304.768 77.9478 299.786 71.3043 292.312 69.3666ZM184.078 69.3666C176.328 71.3043 171.345 77.9478 171.068 85.4217L203.178 76.8405C199.026 70.4739 191.552 67.1521 184.078 69.3666ZM155.845 92.0651C150.308 87.0825 142.004 85.9753 135.361 89.8506C128.717 93.726 125.395 101.477 127.056 108.674L155.845 92.0651ZM430.994 253.723V286.94C438.191 284.725 443.174 278.082 443.174 270.331C443.174 262.58 438.191 255.937 430.994 253.723ZM80.2751 154.901C73.078 153.24 65.3273 156.285 61.4519 163.205C57.5766 169.849 58.6838 178.153 63.6664 183.413L80.2751 154.901ZM47.8878 231.854L56.4689 199.744C49.2719 200.021 42.6284 205.004 40.4139 212.477C38.4762 220.228 41.798 227.702 47.8878 231.854ZM45.1197 250.954C38.1994 253.169 32.94 259.536 32.94 267.563C32.94 275.314 38.1994 281.68 45.1197 283.895V250.954ZM39.5831 321.541C41.7976 329.015 48.4411 333.998 55.915 334.275L47.3338 302.441C40.9672 306.317 37.6455 314.067 39.5831 321.541ZM60.6212 371.09C64.4966 377.734 72.2473 380.779 79.4444 379.395L63.1125 350.606C57.8531 356.143 56.7459 364.447 60.6212 371.09ZM96.883 416.211C102.419 421.747 110.723 422.854 117.367 419.256L93.838 396.003C90.5163 402.37 91.6236 410.674 96.883 416.211ZM134.529 444.999C141.45 448.874 149.477 447.767 155.013 442.784L126.225 426.175C124.841 433.373 127.886 441.123 134.529 444.999ZM184.078 465.76C191.552 467.697 199.026 464.375 203.178 458.009L171.068 449.705C171.345 456.902 176.328 463.545 184.078 465.76ZM292.589 466.037C300.062 464.099 305.045 457.455 305.322 449.982L273.212 458.563C277.364 464.929 284.838 467.974 292.589 466.037ZM321.377 442.784C326.913 447.767 334.94 448.874 341.861 444.999C348.504 441.123 351.549 433.373 349.888 426.175L321.377 442.784ZM396.393 379.118C403.59 380.502 411.341 377.457 415.216 370.813C419.091 363.893 417.707 355.866 412.725 350.329L396.393 379.118ZM427.395 305.209L418.814 337.319C426.288 337.042 432.931 332.06 435.146 324.586C437.083 316.835 433.762 309.361 427.395 305.209ZM414.939 163.759C411.064 156.838 403.313 153.794 396.116 155.454L412.725 184.243C417.707 178.707 418.814 170.402 414.939 163.759ZM385.32 124.175C379.784 118.639 371.48 117.809 365.113 121.13L388.365 144.659C391.964 138.016 390.856 129.712 385.32 124.175ZM341.585 90.1276C334.941 86.2522 326.637 87.6363 321.101 92.6189L349.889 109.228C351.55 102.03 348.228 94.2797 341.585 90.1276ZM476.391 544.097H0L56.4694 490.949H419.645L476.391 544.097Z" stroke="white" stroke-width="0.8" stroke-miterlimit="10"/>
    </mask>
    <g mask="url(#mask0_357_6)">
    <rect x="-222.304" y="191.072" width="1608.4" height="1123.02" rx="20" transform="rotate(-26.6451 -222.304 191.072)" fill="url(#paint0_linear_357_6)"/>
    </g>
    <defs>
    <linearGradient id="paint0_linear_357_6" x1="-205.299" y1="714.748" x2="1223.64" y2="1178.12" gradientUnits="userSpaceOnUse">
    <stop stop-color="#4285F4"/>
    <stop offset="0.255496" stop-color="#4285F3"/>
    <stop offset="0.371022" stop-color="#34A853"/>
    <stop offset="0.569758" stop-color="#34A853"/>
    <stop offset="0.682106" stop-color="#F9AB00"/>
    <stop offset="0.803386" stop-color="#F9AB00"/>
    <stop offset="0.925784" stop-color="#EA4335"/>
    <stop offset="1" stop-color="#EA4335"/>
    </linearGradient>
    </defs>
    </svg>
    