<svg xmlns="http://www.w3.org/2000/svg" version="1.1" xmlns:xlink="http://www.w3.org/1999/xlink" width="512"
    height="512" x="0" y="0" viewBox="0 0 512 512" style="enable-background:new 0 0 512 512" xml:space="preserve"
    class="">
    <g>
        <path
            d="M197.913 440H39.001c10.054-35.013 42.386-59.76 79.409-59.78l.048.001.047-.001c37.022.021 69.353 24.767 79.407 59.78zm-79.454-156.58c-24.073 0-43.657 19.585-43.657 43.657s19.558 43.63 43.61 43.656l.047-.001.048.001c24.051-.026 43.61-19.599 43.61-43.656s-19.584-43.657-43.656-43.657zm351.598 168.182H41.944c-6.503 0-11.794 5.291-11.794 11.793v25.929c0 .908.768 1.675 1.676 1.675h448.349c.908 0 1.676-.767 1.676-1.675v-25.929c0-6.503-5.291-11.793-11.794-11.793zM72.882 96.338c18.871 0 34.224-15.352 34.224-34.223S91.753 27.892 72.882 27.892 38.659 43.245 38.659 62.115s15.353 34.223 34.223 34.223zM36.181 274.804h73.403a6.037 6.037 0 0 0 6.03-6.03v-79.169l-16.483 8.546c-3.313 1.718-7.026 2.591-10.773 2.591-2.503 0-5.021-.39-7.443-1.178-6.008-1.954-10.83-6.056-13.577-11.551-2.466-4.93-3.195-10.528-2.057-15.763a5 5 0 1 1 9.771 2.126c-.665 3.057-.24 6.226 1.229 9.165 1.541 3.081 4.285 5.395 7.726 6.514 3.521 1.145 7.356.86 10.522-.782l23.216-12.036 58.702-30.435c8.214-4.258 8.792-12.14 5.721-18.062-3.144-6.063-9.993-10.275-18.203-6.016l-47.855 24.811-1.273-6.564c-3.893-20.068-21.536-34.633-41.953-34.633-23.562 0-42.731 19.169-42.731 42.732v119.704a6.037 6.037 0 0 0 6.03 6.03zM256 353.55h.055c24.059-.029 43.625-19.61 43.625-43.677s-19.594-43.679-43.679-43.679-43.677 19.594-43.677 43.679 19.563 43.647 43.623 43.677h.054zm137.505 17.144.048.001c24.063-.026 43.631-19.609 43.631-43.678s-19.593-43.679-43.678-43.679-43.679 19.594-43.679 43.679 19.569 43.651 43.631 43.678l.047-.001zM481.851 54.47v130.368c0 18.456-15.015 33.47-33.471 33.47H195.817c-18.456 0-33.471-15.015-33.471-33.47v-19.461l18.703-9.697c11.542-5.984 14.539-17.043 11.94-26.56l52.32-61.174a5 5 0 1 0-7.6-6.5l-49.697 58.107c-5.794-7.018-15.296-10.945-25.667-7.035V54.47c0-18.456 15.015-33.47 33.471-33.47h252.562c18.456 0 33.471 15.015 33.471 33.47zm-214.036-.397a5 5 0 0 0 5 5h72.876a5 5 0 1 0 0-10h-72.876a5 5 0 0 0-5 5zm-4.413 43.721a5 5 0 0 0 5 5h144.459a5 5 0 1 0 0-10H268.402a5 5 0 0 0-5 5zm149.459 38.72h-29.22a5 5 0 1 0 0 10h29.22a5 5 0 1 0 0-10zm-160.369 5.001a5 5 0 0 0 5 5h92.7a5 5 0 1 0 0-10h-92.7a5 5 0 0 0-5 5zm18.947 43.72a5 5 0 0 0-5-5h-30.841a5 5 0 1 0 0 10h30.841a5 5 0 0 0 5-5zm147.31.001a5 5 0 0 0-5-5H301.745a5 5 0 1 0 0 10h112.004a5 5 0 0 0 5-5zm0-131.164a5 5 0 0 0-5-5h-31.731a5 5 0 1 0 0 10h31.731a5 5 0 0 0 5-5zM314.009 440h158.992c-10.055-35.035-42.403-59.797-79.448-59.819l-.047.001-.048-.001c-37.046.021-69.396 24.783-79.45 59.819zm-126.324-40.879c10.459 11.322 18.216 25.258 22.115 40.879h92.325c3.903-15.645 11.674-29.602 22.154-40.936-15.447-22.622-40.628-36.008-68.222-36.026l-.054.001-.055-.001c-27.622.017-52.82 13.426-68.262 36.084z"
            fill="#000000" opacity="1" data-original="#000000" class=""></path>
    </g>
</svg>