<?xml version="1.0" encoding="UTF-8"?>
<!DOCTYPE svg PUBLIC "-//W3C//DTD SVG 1.1//EN" "http://www.w3.org/Graphics/SVG/1.1/DTD/svg11.dtd">
<svg xmlns="http://www.w3.org/2000/svg" version="1.1" width="840px" height="840px" style="shape-rendering:geometricPrecision; text-rendering:geometricPrecision; image-rendering:optimizeQuality; fill-rule:evenodd; clip-rule:evenodd" xmlns:xlink="http://www.w3.org/1999/xlink">
<g><path style="opacity:1" fill="#fefefe" d="M -0.5,-0.5 C 279.5,-0.5 559.5,-0.5 839.5,-0.5C 839.5,279.5 839.5,559.5 839.5,839.5C 559.5,839.5 279.5,839.5 -0.5,839.5C -0.5,559.5 -0.5,279.5 -0.5,-0.5 Z"/></g>
<g><path style="opacity:1" fill="#f4a010" d="M 430.5,424.5 C 423.084,427.658 420.084,433.325 421.5,441.5C 420.084,449.675 423.084,455.342 430.5,458.5C 430.5,468.833 430.5,479.167 430.5,489.5C 418.557,489.079 409.39,483.746 403,473.5C 395.757,461.197 392.257,447.863 392.5,433.5C 397.5,433.5 402.5,433.5 407.5,433.5C 407.462,439.229 409.462,444.062 413.5,448C 414.448,448.483 415.448,448.649 416.5,448.5C 419.458,429.458 411.458,421.458 392.5,424.5C 392.667,413.162 392.5,401.828 392,390.5C 389.874,386.184 386.374,384.017 381.5,384C 359.463,383.067 337.463,383.401 315.5,385C 311.982,387.186 310.148,390.353 310,394.5C 309.5,403.16 309.334,411.827 309.5,420.5C 326.047,419.716 342.38,421.049 358.5,424.5C 355.528,426.641 353.028,429.308 351,432.5C 350.5,441.16 350.334,449.827 350.5,458.5C 345.167,458.5 339.833,458.5 334.5,458.5C 333.452,454.281 330.785,451.447 326.5,450C 320.175,449.5 313.842,449.334 307.5,449.5C 307.5,444.167 307.5,438.833 307.5,433.5C 313.5,433.5 319.5,433.5 325.5,433.5C 325.66,435.199 325.494,436.866 325,438.5C 319.929,438.868 315.595,440.868 312,444.5C 311.51,445.793 311.343,447.127 311.5,448.5C 317.29,448.904 322.956,448.404 328.5,447C 336.981,438.847 336.314,431.514 326.5,425C 319.833,424.333 313.167,424.333 306.5,425C 303.417,425.786 301.251,427.619 300,430.5C 298.414,437.057 298.08,443.724 299,450.5C 300.387,454.322 302.887,456.989 306.5,458.5C 302.768,471.495 295.101,481.328 283.5,488C 279.855,488.719 276.188,489.219 272.5,489.5C 272.5,478.5 272.5,467.5 272.5,456.5C 273.473,456.987 274.473,457.487 275.5,458C 281.157,458.499 286.824,458.666 292.5,458.5C 292.256,454.077 289.922,451.244 285.5,450C 282.5,449.667 279.5,449.333 276.5,449C 288.122,449.378 293.622,443.878 293,432.5C 288.247,425.002 281.414,422.335 272.5,424.5C 272.333,411.496 272.5,398.496 273,385.5C 278.474,365.36 291.307,352.526 311.5,347C 338.165,345.011 364.832,345.011 391.5,347C 410.927,352.094 423.427,364.261 429,383.5C 430.362,397.126 430.862,410.792 430.5,424.5 Z"/></g>
<g><path style="opacity:1" fill="#58abfe" d="M 588.5,425.5 C 576.546,424.374 564.546,424.208 552.5,425C 548.781,426.263 546.281,428.763 545,432.5C 544.501,436.486 544.334,440.486 544.5,444.5C 542.833,444.5 541.167,444.5 539.5,444.5C 540.357,438.325 539.19,432.658 536,427.5C 534.581,426.54 533.081,425.707 531.5,425C 508.689,419.15 499.522,427.65 504,450.5C 505.167,454.333 507.667,456.833 511.5,458C 518.167,458.667 524.833,458.667 531.5,458C 534.987,457.011 537.32,454.845 538.5,451.5C 540.5,451.5 542.5,451.5 544.5,451.5C 544.192,453.924 544.526,456.257 545.5,458.5C 548.909,457.091 551.243,454.758 552.5,451.5C 554.302,452.458 556.302,453.125 558.5,453.5C 558.916,459.382 560.916,459.715 564.5,454.5C 578.892,459.066 589.392,468.066 596,481.5C 596.226,484.095 596.726,486.595 597.5,489C 571.784,489.963 546.117,489.629 520.5,488C 505.499,482.832 494.833,472.998 488.5,458.5C 491.833,458.5 495.167,458.5 498.5,458.5C 496.713,452.074 492.38,449.074 485.5,449.5C 484.744,444.112 485.41,438.779 487.5,433.5C 492.855,433.144 496.521,430.478 498.5,425.5C 496.955,424.548 495.288,424.215 493.5,424.5C 500.556,417.633 508.89,412.799 518.5,410C 530.357,407.481 542.357,406.148 554.5,406C 561.595,400.072 562.262,393.406 556.5,386C 553.956,384.908 551.289,384.241 548.5,384C 528.833,383.333 509.167,383.333 489.5,384C 482.473,384.028 478.64,387.528 478,394.5C 477.5,404.494 477.334,414.494 477.5,424.5C 470.65,423.672 465.817,426.339 463,432.5C 462.333,438.5 462.333,444.5 463,450.5C 464.391,454.725 467.224,457.392 471.5,458.5C 468.055,468.774 462.388,477.608 454.5,485C 450.234,487.811 445.567,489.311 440.5,489.5C 440.5,479.167 440.5,468.833 440.5,458.5C 453.049,459.745 458.715,454.078 457.5,441.5C 458.715,428.922 453.049,423.255 440.5,424.5C 440.333,411.496 440.5,398.496 441,385.5C 446.474,365.36 459.307,352.526 479.5,347C 506.165,345.011 532.832,345.011 559.5,347C 592.185,358.389 604.018,380.889 595,414.5C 593.326,418.524 591.159,422.191 588.5,425.5 Z"/></g>
<g><path style="opacity:1" fill="#fefefe" d="M 392.5,424.5 C 383.875,425.129 379.875,429.795 380.5,438.5C 377.786,435.785 374.786,433.451 371.5,431.5C 373.2,429.79 374.533,427.79 375.5,425.5C 369.872,424.505 364.206,424.171 358.5,424.5C 342.38,421.049 326.047,419.716 309.5,420.5C 309.334,411.827 309.5,403.16 310,394.5C 310.148,390.353 311.982,387.186 315.5,385C 337.463,383.401 359.463,383.067 381.5,384C 386.374,384.017 389.874,386.184 392,390.5C 392.5,401.828 392.667,413.162 392.5,424.5 Z"/></g>
<g><path style="opacity:1" fill="#fefffe" d="M 493.5,424.5 C 488.167,424.5 482.833,424.5 477.5,424.5C 477.334,414.494 477.5,404.494 478,394.5C 478.64,387.528 482.473,384.028 489.5,384C 509.167,383.333 528.833,383.333 548.5,384C 551.289,384.241 553.956,384.908 556.5,386C 562.262,393.406 561.595,400.072 554.5,406C 542.357,406.148 530.357,407.481 518.5,410C 508.89,412.799 500.556,417.633 493.5,424.5 Z"/></g>
<g><path style="opacity:1" fill="#171717" d="M 190.5,413.5 C 191.5,413.5 192.5,413.5 193.5,413.5C 193.671,420.192 190.671,424.525 184.5,426.5C 184.208,421.015 186.208,416.681 190.5,413.5 Z"/></g>
<g><path style="opacity:1" fill="#171717" d="M 728.5,413.5 C 729.5,413.5 730.5,413.5 731.5,413.5C 731.671,420.192 728.671,424.525 722.5,426.5C 722.208,421.015 724.208,416.681 728.5,413.5 Z"/></g>
<g><path style="opacity:1" fill="#060606" d="M 28.5,424.5 C 35.175,424.334 41.8417,424.5 48.5,425C 52.2189,426.263 54.7189,428.763 56,432.5C 56.8319,441.186 56.6652,449.853 55.5,458.5C 51.3671,456.867 48.8671,453.867 48,449.5C 47.5006,444.177 47.334,438.844 47.5,433.5C 41.4908,433.334 35.4908,433.501 29.5,434C 28.5562,436.719 28.2229,439.552 28.5,442.5C 35.2514,441.295 41.0847,442.962 46,447.5C 46.49,448.793 46.6567,450.127 46.5,451.5C 40.1667,451.5 33.8333,451.5 27.5,451.5C 26.8333,455.5 24.5,457.833 20.5,458.5C 20.3336,449.827 20.5002,441.16 21,432.5C 22.3532,428.65 24.8532,425.983 28.5,424.5 Z"/></g>
<g><path style="opacity:1" fill="#050505" d="M 69.5,424.5 C 76.175,424.334 82.8417,424.5 89.5,425C 98.2525,430.137 99.7525,436.971 94,445.5C 92.5806,446.46 91.0806,447.293 89.5,448C 83.4724,448.83 77.4724,448.664 71.5,447.5C 74.9553,441.386 80.2886,438.553 87.5,439C 88.8333,437.333 88.8333,435.667 87.5,434C 81.8333,433.333 76.1667,433.333 70.5,434C 69.6911,439.417 69.1911,444.917 69,450.5C 67.75,453.916 65.5833,456.583 62.5,458.5C 61.3348,449.853 61.1681,441.186 62,432.5C 63.3532,428.65 65.8532,425.983 69.5,424.5 Z"/></g>
<g><path style="opacity:1" fill="#0b0b0b" d="M 102.5,424.5 C 106.02,425.183 108.52,427.183 110,430.5C 111.37,436.742 111.87,443.075 111.5,449.5C 117.176,449.666 122.843,449.499 128.5,449C 129.309,443.583 129.809,438.083 130,432.5C 131.447,428.215 134.281,425.548 138.5,424.5C 138.945,433.94 138.445,443.274 137,452.5C 132.918,457.92 127.418,459.92 120.5,458.5C 112.482,460.237 106.648,457.57 103,450.5C 102.5,441.84 102.334,433.173 102.5,424.5 Z"/></g>
<g><path style="opacity:1" fill="#080808" d="M 143.5,424.5 C 147.02,425.183 149.52,427.183 151,430.5C 152.37,436.742 152.87,443.075 152.5,449.5C 159.379,449.222 166.212,449.555 173,450.5C 176.504,452.162 178.671,454.829 179.5,458.5C 170.161,458.666 160.827,458.5 151.5,458C 147.667,456.833 145.167,454.333 144,450.5C 143.5,441.84 143.334,433.173 143.5,424.5 Z"/></g>
<g><path style="opacity:1" fill="#020202" d="M 190.5,424.5 C 191.826,428.614 192.493,433.114 192.5,438C 192.333,442.5 192.167,447 192,451.5C 191.061,454.94 188.895,457.273 185.5,458.5C 184.335,450.187 184.168,441.853 185,433.5C 185.837,429.843 187.67,426.843 190.5,424.5 Z"/></g>
<g><path style="opacity:1" fill="#090909" d="M 206.5,424.5 C 213.175,424.334 219.842,424.5 226.5,425C 230.219,426.263 232.719,428.763 234,432.5C 234.832,441.186 234.665,449.853 233.5,458.5C 229.367,456.867 226.867,453.867 226,449.5C 225.501,444.177 225.334,438.844 225.5,433.5C 219.5,433.5 213.5,433.5 207.5,433.5C 207.5,438.833 207.5,444.167 207.5,449.5C 212.599,449.175 217.599,449.675 222.5,451C 225.308,452.793 226.974,455.293 227.5,458.5C 220.492,458.666 213.492,458.5 206.5,458C 202.667,456.833 200.167,454.333 199,450.5C 198.333,444.5 198.333,438.5 199,432.5C 200.353,428.65 202.853,425.983 206.5,424.5 Z"/></g>
<g><path style="opacity:1" fill="#040302" d="M 272.5,424.5 C 281.414,422.335 288.247,425.002 293,432.5C 293.622,443.878 288.122,449.378 276.5,449C 279.5,449.333 282.5,449.667 285.5,450C 289.922,451.244 292.256,454.077 292.5,458.5C 286.824,458.666 281.157,458.499 275.5,458C 274.473,457.487 273.473,456.987 272.5,456.5C 266.048,451.333 266.048,446.333 272.5,441.5C 276.295,439.857 280.295,439.191 284.5,439.5C 284.5,437.5 284.5,435.5 284.5,433.5C 280.5,433.5 276.5,433.5 272.5,433.5C 270.208,433.244 268.041,433.577 266,434.5C 265.667,439.833 265.333,445.167 265,450.5C 263.75,453.916 261.583,456.583 258.5,458.5C 257.335,449.853 257.168,441.186 258,432.5C 260.817,426.339 265.65,423.672 272.5,424.5 Z"/></g>
<g><path style="opacity:1" fill="#060300" d="M 334.5,458.5 C 325.167,458.5 315.833,458.5 306.5,458.5C 302.887,456.989 300.387,454.322 299,450.5C 298.08,443.724 298.414,437.057 300,430.5C 301.251,427.619 303.417,425.786 306.5,425C 313.167,424.333 319.833,424.333 326.5,425C 336.314,431.514 336.981,438.847 328.5,447C 322.956,448.404 317.29,448.904 311.5,448.5C 311.343,447.127 311.51,445.793 312,444.5C 315.595,440.868 319.929,438.868 325,438.5C 325.494,436.866 325.66,435.199 325.5,433.5C 319.5,433.5 313.5,433.5 307.5,433.5C 307.5,438.833 307.5,444.167 307.5,449.5C 313.842,449.334 320.175,449.5 326.5,450C 330.785,451.447 333.452,454.281 334.5,458.5 Z"/></g>
<g><path style="opacity:1" fill="#090500" d="M 347.5,424.5 C 349.604,424.201 351.604,424.534 353.5,425.5C 350.629,431.602 345.963,433.935 339.5,432.5C 341.242,428.758 343.908,426.091 347.5,424.5 Z"/></g>
<g><path style="opacity:1" fill="#0d0700" d="M 358.5,424.5 C 364.206,424.171 369.872,424.505 375.5,425.5C 374.533,427.79 373.2,429.79 371.5,431.5C 367.691,432.661 363.857,433.661 360,434.5C 359.74,440.551 359.073,446.551 358,452.5C 356.64,455.023 354.807,457.023 352.5,458.5C 351.833,458.5 351.167,458.5 350.5,458.5C 350.334,449.827 350.5,441.16 351,432.5C 353.028,429.308 355.528,426.641 358.5,424.5 Z"/></g>
<g><path style="opacity:1" fill="#030201" d="M 392.5,424.5 C 411.458,421.458 419.458,429.458 416.5,448.5C 415.448,448.649 414.448,448.483 413.5,448C 409.462,444.062 407.462,439.229 407.5,433.5C 402.5,433.5 397.5,433.5 392.5,433.5C 391.178,433.33 390.011,433.663 389,434.5C 388.753,440.882 388.253,447.215 387.5,453.5C 386.167,455.5 384.5,457.167 382.5,458.5C 381.833,458.5 381.167,458.5 380.5,458.5C 380.5,451.833 380.5,445.167 380.5,438.5C 379.875,429.795 383.875,425.129 392.5,424.5 Z"/></g>
<g><path style="opacity:1" fill="#060504" d="M 430.5,424.5 C 433.833,424.5 437.167,424.5 440.5,424.5C 453.049,423.255 458.715,428.922 457.5,441.5C 458.715,454.078 453.049,459.745 440.5,458.5C 437.167,458.5 433.833,458.5 430.5,458.5C 423.084,455.342 420.084,449.675 421.5,441.5C 420.084,433.325 423.084,427.658 430.5,424.5 Z"/></g>
<g><path style="opacity:1" fill="#030406" d="M 477.5,424.5 C 482.833,424.5 488.167,424.5 493.5,424.5C 495.288,424.215 496.955,424.548 498.5,425.5C 496.521,430.478 492.855,433.144 487.5,433.5C 484.167,433.5 480.833,433.5 477.5,433.5C 475.5,433.5 473.5,433.5 471.5,433.5C 471.5,438.833 471.5,444.167 471.5,449.5C 472.5,449.5 473.5,449.5 474.5,449.5C 478.167,449.5 481.833,449.5 485.5,449.5C 492.38,449.074 496.713,452.074 498.5,458.5C 495.167,458.5 491.833,458.5 488.5,458.5C 482.833,458.5 477.167,458.5 471.5,458.5C 467.224,457.392 464.391,454.725 463,450.5C 462.333,444.5 462.333,438.5 463,432.5C 465.817,426.339 470.65,423.672 477.5,424.5 Z"/></g>
<g><path style="opacity:1" fill="#040608" d="M 539.5,444.5 C 539.702,446.95 539.369,449.283 538.5,451.5C 537.32,454.845 534.987,457.011 531.5,458C 524.833,458.667 518.167,458.667 511.5,458C 507.667,456.833 505.167,454.333 504,450.5C 499.522,427.65 508.689,419.15 531.5,425C 533.081,425.707 534.581,426.54 536,427.5C 539.19,432.658 540.357,438.325 539.5,444.5 Z"/></g>
<g><path style="opacity:1" fill="#070708" d="M 588.5,425.5 C 590.796,427.401 592.629,429.734 594,432.5C 594.5,441.16 594.666,449.827 594.5,458.5C 590.255,457.424 587.422,454.758 586,450.5C 585.667,445.167 585.333,439.833 585,434.5C 583.644,433.62 582.144,433.286 580.5,433.5C 580.831,441.86 580.498,450.193 579.5,458.5C 576.132,457.298 573.966,454.965 573,451.5C 572.501,447.514 572.334,443.514 572.5,439.5C 573.592,434.877 571.925,433.044 567.5,434C 566.565,436.381 566.232,438.881 566.5,441.5C 566.85,446.031 566.183,450.364 564.5,454.5C 560.916,459.715 558.916,459.382 558.5,453.5C 558.5,450.5 558.5,447.5 558.5,444.5C 558.5,440.833 558.5,437.167 558.5,433.5C 556.833,433.5 555.167,433.5 553.5,433.5C 553.5,437.167 553.5,440.833 553.5,444.5C 552.532,446.607 552.198,448.941 552.5,451.5C 551.243,454.758 548.909,457.091 545.5,458.5C 544.526,456.257 544.192,453.924 544.5,451.5C 544.5,449.167 544.5,446.833 544.5,444.5C 544.334,440.486 544.501,436.486 545,432.5C 546.281,428.763 548.781,426.263 552.5,425C 564.546,424.208 576.546,424.374 588.5,425.5 Z"/></g>
<g><path style="opacity:1" fill="#050505" d="M 607.5,424.5 C 614.175,424.334 620.842,424.5 627.5,425C 636.252,430.137 637.752,436.971 632,445.5C 630.581,446.46 629.081,447.293 627.5,448C 621.472,448.83 615.472,448.664 609.5,447.5C 612.955,441.386 618.289,438.553 625.5,439C 626.833,437.333 626.833,435.667 625.5,434C 619.833,433.333 614.167,433.333 608.5,434C 607.691,439.417 607.191,444.917 607,450.5C 605.75,453.916 603.583,456.583 600.5,458.5C 599.335,449.853 599.168,441.186 600,432.5C 601.353,428.65 603.853,425.983 607.5,424.5 Z"/></g>
<g><path style="opacity:1" fill="#0b0b0b" d="M 640.5,424.5 C 644.02,425.183 646.52,427.183 648,430.5C 649.37,436.742 649.87,443.075 649.5,449.5C 655.176,449.666 660.843,449.499 666.5,449C 667.309,443.583 667.809,438.083 668,432.5C 669.447,428.215 672.281,425.548 676.5,424.5C 676.945,433.94 676.445,443.274 675,452.5C 670.918,457.92 665.418,459.92 658.5,458.5C 650.482,460.237 644.648,457.57 641,450.5C 640.5,441.84 640.334,433.173 640.5,424.5 Z"/></g>
<g><path style="opacity:1" fill="#0c0c0c" d="M 689.5,424.5 C 691.604,424.201 693.604,424.534 695.5,425.5C 692.646,431.262 687.979,433.929 681.5,433.5C 682.424,428.911 685.091,425.911 689.5,424.5 Z"/></g>
<g><path style="opacity:1" fill="#0d0d0d" d="M 700.5,424.5 C 706.206,424.171 711.872,424.505 717.5,425.5C 716.747,427.753 715.414,429.587 713.5,431C 709.78,432.644 705.947,433.81 702,434.5C 701.74,440.551 701.073,446.551 700,452.5C 698.488,455.857 695.988,457.857 692.5,458.5C 692.334,449.827 692.5,441.16 693,432.5C 694.69,428.979 697.19,426.312 700.5,424.5 Z"/></g>
<g><path style="opacity:1" fill="#020202" d="M 728.5,424.5 C 729.826,428.614 730.493,433.114 730.5,438C 730.333,442.5 730.167,447 730,451.5C 729.061,454.94 726.895,457.273 723.5,458.5C 722.335,450.187 722.168,441.853 723,433.5C 723.837,429.843 725.67,426.843 728.5,424.5 Z"/></g>
<g><path style="opacity:1" fill="#070707" d="M 744.5,424.5 C 751.175,424.334 757.842,424.5 764.5,425C 768.219,426.263 770.719,428.763 772,432.5C 772.832,441.186 772.665,449.853 771.5,458.5C 767.367,456.867 764.867,453.867 764,449.5C 763.501,444.177 763.334,438.844 763.5,433.5C 757.491,433.334 751.491,433.501 745.5,434C 744.69,439.751 744.19,445.584 744,451.5C 743.034,454.965 740.868,457.298 737.5,458.5C 736.335,449.853 736.168,441.186 737,432.5C 738.353,428.65 740.853,425.983 744.5,424.5 Z"/></g>
<g><path style="opacity:1" fill="#070707" d="M 785.5,424.5 C 810.319,419.814 819.153,429.481 812,453.5C 810.363,455.81 808.196,457.31 805.5,458C 800.511,458.499 795.511,458.666 790.5,458.5C 790.081,455.675 791.081,453.509 793.5,452C 797.22,450.356 801.053,449.19 805,448.5C 805.802,443.581 805.635,438.748 804.5,434C 798.584,433.193 792.75,433.359 787,434.5C 786.333,442.833 786.333,451.167 787,459.5C 794.421,460.316 801.921,460.816 809.5,461C 810.833,461.667 812.167,462.333 813.5,463C 814.641,468.75 814.807,474.584 814,480.5C 812.581,481.46 811.081,482.293 809.5,483C 798.839,483.5 788.172,483.667 777.5,483.5C 778.548,479.281 781.215,476.447 785.5,475C 793.159,474.5 800.826,474.334 808.5,474.5C 808.5,472.833 808.5,471.167 808.5,469.5C 800.826,469.666 793.159,469.5 785.5,469C 782.829,467.75 780.663,465.917 779,463.5C 777.383,453.266 777.05,442.933 778,432.5C 779.69,428.979 782.19,426.312 785.5,424.5 Z"/></g>
<g><path style="opacity:1" fill="#f3a010" d="M 371.5,431.5 C 374.786,433.451 377.786,435.785 380.5,438.5C 380.5,445.167 380.5,451.833 380.5,458.5C 371.167,458.5 361.833,458.5 352.5,458.5C 354.807,457.023 356.64,455.023 358,452.5C 359.073,446.551 359.74,440.551 360,434.5C 363.857,433.661 367.691,432.661 371.5,431.5 Z"/></g>
<g><path style="opacity:1" fill="#ee9c10" d="M 272.5,433.5 C 276.5,433.5 280.5,433.5 284.5,433.5C 284.5,435.5 284.5,437.5 284.5,439.5C 280.295,439.191 276.295,439.857 272.5,441.5C 272.5,438.833 272.5,436.167 272.5,433.5 Z"/></g>
<g><path style="opacity:1" fill="#fdfdfd" d="M 440.5,433.5 C 440.5,438.833 440.5,444.167 440.5,449.5C 437.167,449.5 433.833,449.5 430.5,449.5C 430.5,444.167 430.5,438.833 430.5,433.5C 433.833,433.5 437.167,433.5 440.5,433.5 Z"/></g>
<g><path style="opacity:1" fill="#59acff" d="M 440.5,433.5 C 447.494,431.828 450.161,434.494 448.5,441.5C 450.161,448.506 447.494,451.172 440.5,449.5C 440.5,444.167 440.5,438.833 440.5,433.5 Z"/></g>
<g><path style="opacity:1" fill="#58aafc" d="M 477.5,433.5 C 477.008,438.959 476.008,444.292 474.5,449.5C 473.5,449.5 472.5,449.5 471.5,449.5C 471.5,444.167 471.5,438.833 471.5,433.5C 473.5,433.5 475.5,433.5 477.5,433.5 Z"/></g>
<g><path style="opacity:1" fill="#fefffe" d="M 477.5,433.5 C 480.833,433.5 484.167,433.5 487.5,433.5C 485.41,438.779 484.744,444.112 485.5,449.5C 481.833,449.5 478.167,449.5 474.5,449.5C 476.008,444.292 477.008,438.959 477.5,433.5 Z"/></g>
<g><path style="opacity:1" fill="#58abfe" d="M 530.5,444.5 C 524.201,443.836 523.201,445.503 527.5,449.5C 522.5,449.5 517.5,449.5 512.5,449.5C 512.5,444.167 512.5,438.833 512.5,433.5C 518.176,433.334 523.843,433.501 529.5,434C 530.456,437.394 530.789,440.894 530.5,444.5 Z"/></g>
<g><path style="opacity:1" fill="#54a3f2" d="M 558.5,444.5 C 556.833,444.5 555.167,444.5 553.5,444.5C 553.5,440.833 553.5,437.167 553.5,433.5C 555.167,433.5 556.833,433.5 558.5,433.5C 558.5,437.167 558.5,440.833 558.5,444.5 Z"/></g>
<g><path style="opacity:1" fill="#519eeb" d="M 572.5,439.5 C 570.5,440.167 568.5,440.833 566.5,441.5C 566.232,438.881 566.565,436.381 567.5,434C 571.925,433.044 573.592,434.877 572.5,439.5 Z"/></g>
<g><path style="opacity:1" fill="#fefffe" d="M 530.5,444.5 C 531.084,447.285 530.084,448.952 527.5,449.5C 523.201,445.503 524.201,443.836 530.5,444.5 Z"/></g>
<g><path style="opacity:1" fill="#fefefe" d="M 539.5,444.5 C 541.167,444.5 542.833,444.5 544.5,444.5C 544.5,446.833 544.5,449.167 544.5,451.5C 542.5,451.5 540.5,451.5 538.5,451.5C 539.369,449.283 539.702,446.95 539.5,444.5 Z"/></g>
<g><path style="opacity:1" fill="#eaeaea" d="M 553.5,444.5 C 555.167,444.5 556.833,444.5 558.5,444.5C 558.5,447.5 558.5,450.5 558.5,453.5C 556.302,453.125 554.302,452.458 552.5,451.5C 552.198,448.941 552.532,446.607 553.5,444.5 Z"/></g>
<g><path style="opacity:1" fill="#e5960f" d="M 387.5,453.5 C 388.301,455.042 388.634,456.708 388.5,458.5C 386.5,458.5 384.5,458.5 382.5,458.5C 384.5,457.167 386.167,455.5 387.5,453.5 Z"/></g>
</svg>
