<svg width="840" height="169" viewBox="0 0 840 169" fill="none" xmlns="http://www.w3.org/2000/svg">
<path fill-rule="evenodd" clip-rule="evenodd" d="M433.063 90.9918C425.647 94.1498 422.647 99.8168 424.063 107.992C422.647 116.167 425.647 121.834 433.063 124.992C433.063 135.325 433.063 145.659 433.063 155.992C421.12 155.571 411.953 150.238 405.563 139.992C398.32 127.689 394.82 114.355 395.063 99.9918C400.063 99.9918 405.063 99.9918 410.063 99.9918C410.025 105.721 412.025 110.554 416.063 114.492C417.011 114.975 418.011 115.141 419.063 114.992C422.021 95.9498 414.021 87.9498 395.063 90.9918C395.23 79.6538 395.063 68.3197 394.563 56.9917C392.437 52.6757 388.937 50.5087 384.063 50.4917C362.026 49.5587 340.026 49.8927 318.063 51.4917C314.545 53.6777 312.711 56.8447 312.563 60.9917C312.063 69.6517 311.897 78.3188 312.063 86.9918C328.61 86.2078 344.943 87.5408 361.063 90.9918C358.091 93.1328 355.591 95.7998 353.563 98.9918C353.063 107.652 352.897 116.319 353.063 124.992C347.73 124.992 342.396 124.992 337.063 124.992C336.015 120.773 333.348 117.939 329.063 116.492C322.738 115.992 316.405 115.826 310.063 115.992C310.063 110.659 310.063 105.325 310.063 99.9918C316.063 99.9918 322.063 99.9918 328.063 99.9918C328.223 101.691 328.057 103.358 327.563 104.992C322.492 105.36 318.158 107.36 314.563 110.992C314.073 112.285 313.906 113.619 314.063 114.992C319.853 115.396 325.519 114.896 331.063 113.492C339.544 105.339 338.877 98.0058 329.063 91.4918C322.396 90.8248 315.73 90.8248 309.063 91.4918C305.98 92.2778 303.814 94.1108 302.563 96.9918C300.977 103.549 300.643 110.216 301.563 116.992C302.95 120.814 305.45 123.481 309.063 124.992C305.331 137.987 297.664 147.82 286.063 154.492C282.418 155.211 278.751 155.711 275.063 155.992C275.063 144.992 275.063 133.992 275.063 122.992C276.036 123.479 277.036 123.979 278.063 124.492C283.72 124.991 289.387 125.158 295.063 124.992C294.819 120.569 292.485 117.736 288.063 116.492C285.063 116.159 282.063 115.825 279.063 115.492C290.685 115.87 296.185 110.37 295.563 98.9918C290.81 91.4938 283.977 88.8268 275.063 90.9918C274.896 77.9878 275.063 64.9877 275.563 51.9917C281.037 31.8517 293.87 19.0178 314.063 13.4918C340.728 11.5028 367.395 11.5028 394.063 13.4918C413.49 18.5857 425.99 30.7527 431.563 49.9917C432.925 63.6177 433.425 77.2838 433.063 90.9918Z" fill="#F4A010"/>
<path fill-rule="evenodd" clip-rule="evenodd" d="M591.063 91.9918C579.109 90.8658 567.109 90.6998 555.063 91.4918C551.344 92.7548 548.844 95.2548 547.563 98.9918C547.064 102.978 546.897 106.978 547.063 110.992C545.396 110.992 543.73 110.992 542.063 110.992C542.92 104.817 541.753 99.1498 538.563 93.9918C537.144 93.0318 535.644 92.1988 534.063 91.4918C511.252 85.6418 502.085 94.1418 506.563 116.992C507.73 120.825 510.23 123.325 514.063 124.492C520.73 125.159 527.396 125.159 534.063 124.492C537.55 123.503 539.883 121.337 541.063 117.992C543.063 117.992 545.063 117.992 547.063 117.992C546.755 120.416 547.089 122.749 548.063 124.992C551.472 123.583 553.806 121.25 555.063 117.992C556.865 118.95 558.865 119.617 561.063 119.992C561.479 125.874 563.479 126.207 567.063 120.992C581.455 125.558 591.955 134.558 598.563 147.992C598.789 150.587 599.289 153.087 600.063 155.492C574.347 156.455 548.68 156.121 523.063 154.492C508.062 149.324 497.396 139.49 491.063 124.992C494.396 124.992 497.73 124.992 501.063 124.992C499.276 118.566 494.943 115.566 488.063 115.992C487.307 110.604 487.973 105.271 490.063 99.9918C495.418 99.6358 499.084 96.9698 501.063 91.9918C499.518 91.0398 497.851 90.7068 496.063 90.9918C503.119 84.1248 511.453 79.2908 521.063 76.4918C532.92 73.9728 544.92 72.6397 557.063 72.4917C564.158 66.5637 564.825 59.8977 559.063 52.4917C556.519 51.3997 553.852 50.7327 551.063 50.4917C531.396 49.8247 511.73 49.8247 492.063 50.4917C485.036 50.5197 481.203 54.0197 480.563 60.9917C480.063 70.9857 479.897 80.9858 480.063 90.9918C473.213 90.1638 468.38 92.8308 465.563 98.9918C464.896 104.992 464.896 110.992 465.563 116.992C466.954 121.217 469.787 123.884 474.063 124.992C470.618 135.266 464.951 144.1 457.063 151.492C452.797 154.303 448.13 155.803 443.063 155.992C443.063 145.659 443.063 135.325 443.063 124.992C455.612 126.237 461.278 120.57 460.063 107.992C461.278 95.4138 455.612 89.7468 443.063 90.9918C442.896 77.9878 443.063 64.9877 443.563 51.9917C449.037 31.8517 461.87 19.0178 482.063 13.4918C508.728 11.5028 535.395 11.5028 562.063 13.4918C594.748 24.8807 606.581 47.3808 597.563 80.9918C595.889 85.0158 593.722 88.6828 591.063 91.9918Z" fill="#58ABFE"/>
<path fill-rule="evenodd" clip-rule="evenodd" d="M395.063 90.9915C386.438 91.6205 382.438 96.2865 383.063 104.991C380.349 102.276 377.349 99.9425 374.063 97.9915C375.763 96.2815 377.096 94.2815 378.063 91.9915C372.435 90.9965 366.769 90.6625 361.063 90.9915C344.943 87.5405 328.61 86.2075 312.063 86.9915C311.897 78.3185 312.063 69.6515 312.563 60.9915C312.711 56.8445 314.545 53.6775 318.063 51.4915C340.026 49.8925 362.026 49.5585 384.063 50.4915C388.937 50.5085 392.437 52.6755 394.563 56.9915C395.063 68.3195 395.23 79.6535 395.063 90.9915Z" fill="#FEFEFE"/>
<path fill-rule="evenodd" clip-rule="evenodd" d="M496.063 90.992C490.73 90.992 485.396 90.992 480.063 90.992C479.897 80.986 480.063 70.9859 480.563 60.9919C481.203 54.0199 485.036 50.5199 492.063 50.4919C511.73 49.8249 531.396 49.8249 551.063 50.4919C553.852 50.7329 556.519 51.3999 559.063 52.4919C564.825 59.8979 564.158 66.5639 557.063 72.4919C544.92 72.6399 532.92 73.9729 521.063 76.4919C511.453 79.2909 503.119 84.125 496.063 90.992Z" fill="#FEFFFE"/>
<path fill-rule="evenodd" clip-rule="evenodd" d="M193.063 79.9917C194.063 79.9917 195.063 79.9917 196.063 79.9917C196.234 86.6837 193.234 91.0167 187.063 92.9917C186.771 87.5067 188.771 83.1727 193.063 79.9917Z" fill="#171717"/>
<path fill-rule="evenodd" clip-rule="evenodd" d="M731.063 79.9917C732.063 79.9917 733.063 79.9917 734.063 79.9917C734.234 86.6837 731.234 91.0167 725.063 92.9917C724.771 87.5067 726.771 83.1727 731.063 79.9917Z" fill="#171717"/>
<path fill-rule="evenodd" clip-rule="evenodd" d="M31.0624 90.9919C37.7374 90.8259 44.4041 90.9919 51.0624 91.4919C54.7813 92.7549 57.2813 95.2549 58.5624 98.9919C59.3943 107.678 59.2276 116.345 58.0624 124.992C53.9295 123.359 51.4295 120.359 50.5624 115.992C50.063 110.669 49.8964 105.336 50.0624 99.9919C44.0532 99.8259 38.0532 99.9929 32.0624 100.492C31.1186 103.211 30.7853 106.044 31.0624 108.992C37.8138 107.787 43.6471 109.454 48.5624 113.992C49.0524 115.285 49.2191 116.619 49.0624 117.992C42.7291 117.992 36.3957 117.992 30.0624 117.992C29.3957 121.992 27.0624 124.325 23.0624 124.992C22.896 116.319 23.0626 107.652 23.5624 98.9919C24.9156 95.1419 27.4156 92.4749 31.0624 90.9919Z" fill="#060606"/>
<path fill-rule="evenodd" clip-rule="evenodd" d="M72.0623 90.9919C78.7373 90.8259 85.404 90.9919 92.0623 91.4919C100.815 96.6289 102.315 103.463 96.5623 111.992C95.1429 112.952 93.6429 113.785 92.0623 114.492C86.0347 115.322 80.0347 115.156 74.0623 113.992C77.5176 107.878 82.8509 105.045 90.0623 105.492C91.3956 103.825 91.3956 102.159 90.0623 100.492C84.3956 99.8249 78.729 99.8249 73.0623 100.492C72.2534 105.909 71.7534 111.409 71.5623 116.992C70.3123 120.408 68.1456 123.075 65.0623 124.992C63.8971 116.345 63.7304 107.678 64.5623 98.9919C65.9155 95.1419 68.4155 92.4749 72.0623 90.9919Z" fill="#050505"/>
<path fill-rule="evenodd" clip-rule="evenodd" d="M105.063 90.9917C108.583 91.6747 111.083 93.6747 112.563 96.9917C113.933 103.234 114.433 109.567 114.063 115.992C119.739 116.158 125.406 115.991 131.063 115.492C131.872 110.075 132.372 104.575 132.563 98.9917C134.01 94.7067 136.844 92.0397 141.063 90.9917C141.508 100.432 141.008 109.766 139.563 118.992C135.481 124.412 129.981 126.412 123.063 124.992C115.045 126.729 109.211 124.062 105.563 116.992C105.063 108.332 104.897 99.6647 105.063 90.9917Z" fill="#0B0B0B"/>
<path fill-rule="evenodd" clip-rule="evenodd" d="M146.063 90.9917C149.583 91.6747 152.083 93.6747 153.563 96.9917C154.933 103.234 155.433 109.567 155.063 115.992C161.942 115.714 168.775 116.047 175.563 116.992C179.067 118.654 181.234 121.321 182.063 124.992C172.724 125.158 163.39 124.992 154.063 124.492C150.23 123.325 147.73 120.825 146.563 116.992C146.063 108.332 145.897 99.6647 146.063 90.9917Z" fill="#080808"/>
<path fill-rule="evenodd" clip-rule="evenodd" d="M193.063 90.9917C194.389 95.1057 195.056 99.6057 195.063 104.492C194.896 108.992 194.73 113.492 194.563 117.992C193.624 121.432 191.458 123.765 188.063 124.992C186.898 116.679 186.731 108.345 187.563 99.9917C188.4 96.3347 190.233 93.3347 193.063 90.9917Z" fill="#020202"/>
<path fill-rule="evenodd" clip-rule="evenodd" d="M209.063 90.9919C215.738 90.8259 222.405 90.9919 229.063 91.4919C232.782 92.7549 235.282 95.2549 236.563 98.9919C237.395 107.678 237.228 116.345 236.063 124.992C231.93 123.359 229.43 120.359 228.563 115.992C228.064 110.669 227.897 105.336 228.063 99.9919C222.063 99.9919 216.063 99.9919 210.063 99.9919C210.063 105.325 210.063 110.659 210.063 115.992C215.162 115.667 220.162 116.167 225.063 117.492C227.871 119.285 229.537 121.785 230.063 124.992C223.055 125.158 216.055 124.992 209.063 124.492C205.23 123.325 202.73 120.825 201.563 116.992C200.896 110.992 200.896 104.992 201.563 98.9919C202.916 95.1419 205.416 92.4749 209.063 90.9919Z" fill="#090909"/>
<path fill-rule="evenodd" clip-rule="evenodd" d="M275.063 90.9917C283.977 88.8267 290.81 91.4937 295.563 98.9917C296.185 110.37 290.685 115.87 279.063 115.492C282.063 115.825 285.063 116.159 288.063 116.492C292.485 117.736 294.819 120.569 295.063 124.992C289.387 125.158 283.72 124.991 278.063 124.492C277.036 123.979 276.036 123.479 275.063 122.992C268.611 117.825 268.611 112.825 275.063 107.992C278.858 106.349 282.858 105.683 287.063 105.992C287.063 103.992 287.063 101.992 287.063 99.9917C283.063 99.9917 279.063 99.9917 275.063 99.9917C272.771 99.7357 270.604 100.069 268.563 100.992C268.23 106.325 267.896 111.659 267.563 116.992C266.313 120.408 264.146 123.075 261.063 124.992C259.898 116.345 259.731 107.678 260.563 98.9917C263.38 92.8307 268.213 90.1637 275.063 90.9917Z" fill="#040302"/>
<path fill-rule="evenodd" clip-rule="evenodd" d="M337.062 124.992C327.729 124.992 318.395 124.992 309.062 124.992C305.449 123.481 302.949 120.814 301.562 116.992C300.642 110.216 300.976 103.549 302.562 96.9919C303.813 94.1109 305.979 92.2779 309.062 91.4919C315.729 90.8249 322.395 90.8249 329.062 91.4919C338.876 98.0059 339.543 105.339 331.062 113.492C325.518 114.896 319.852 115.396 314.062 114.992C313.905 113.619 314.072 112.285 314.562 110.992C318.157 107.36 322.491 105.36 327.562 104.992C328.056 103.358 328.222 101.691 328.062 99.9919C322.062 99.9919 316.062 99.9919 310.062 99.9919C310.062 105.325 310.062 110.659 310.062 115.992C316.404 115.826 322.737 115.992 329.062 116.492C333.347 117.939 336.014 120.773 337.062 124.992Z" fill="#060300"/>
<path fill-rule="evenodd" clip-rule="evenodd" d="M350.062 90.9918C352.167 90.6928 354.166 91.0258 356.062 91.9918C353.191 98.0938 348.525 100.427 342.062 98.9918C343.804 95.2498 346.47 92.5828 350.062 90.9918Z" fill="#090500"/>
<path fill-rule="evenodd" clip-rule="evenodd" d="M361.063 90.9916C366.769 90.6626 372.435 90.9966 378.063 91.9916C377.096 94.2816 375.763 96.2816 374.063 97.9916C370.254 99.1526 366.42 100.153 362.563 100.992C362.303 107.043 361.636 113.043 360.563 118.992C359.203 121.515 357.37 123.515 355.063 124.992C354.396 124.992 353.73 124.992 353.063 124.992C352.897 116.319 353.063 107.652 353.563 98.9916C355.591 95.7996 358.091 93.1326 361.063 90.9916Z" fill="#0D0700"/>
<path fill-rule="evenodd" clip-rule="evenodd" d="M395.062 90.9918C414.02 87.9498 422.02 95.9498 419.062 114.992C418.01 115.141 417.01 114.975 416.062 114.492C412.024 110.554 410.024 105.721 410.062 99.9918C405.062 99.9918 400.062 99.9918 395.062 99.9918C393.74 99.8218 392.573 100.155 391.562 100.992C391.315 107.374 390.815 113.707 390.062 119.992C388.729 121.992 387.062 123.659 385.062 124.992C384.395 124.992 383.729 124.992 383.062 124.992C383.062 118.325 383.062 111.659 383.062 104.992C382.437 96.2868 386.437 91.6208 395.062 90.9918Z" fill="#030201"/>
<path fill-rule="evenodd" clip-rule="evenodd" d="M433.063 90.9919C436.396 90.9919 439.73 90.9919 443.063 90.9919C455.612 89.7469 461.278 95.4139 460.063 107.992C461.278 120.57 455.612 126.237 443.063 124.992C439.73 124.992 436.396 124.992 433.063 124.992C425.647 121.834 422.647 116.167 424.063 107.992C422.647 99.8169 425.647 94.1499 433.063 90.9919Z" fill="#060504"/>
<path fill-rule="evenodd" clip-rule="evenodd" d="M480.063 90.9918C485.396 90.9918 490.73 90.9918 496.063 90.9918C497.851 90.7068 499.518 91.0398 501.063 91.9918C499.084 96.9698 495.418 99.6358 490.063 99.9918C486.73 99.9918 483.396 99.9918 480.063 99.9918C478.063 99.9918 476.063 99.9918 474.063 99.9918C474.063 105.325 474.063 110.659 474.063 115.992C475.063 115.992 476.063 115.992 477.063 115.992C480.73 115.992 484.396 115.992 488.063 115.992C494.943 115.566 499.276 118.566 501.063 124.992C497.73 124.992 494.396 124.992 491.063 124.992C485.396 124.992 479.73 124.992 474.063 124.992C469.787 123.884 466.954 121.217 465.563 116.992C464.896 110.992 464.896 104.992 465.563 98.9918C468.38 92.8308 473.213 90.1638 480.063 90.9918Z" fill="#030406"/>
<path fill-rule="evenodd" clip-rule="evenodd" d="M542.063 110.992C542.265 113.442 541.932 115.775 541.063 117.992C539.883 121.337 537.55 123.503 534.063 124.492C527.396 125.159 520.73 125.159 514.063 124.492C510.23 123.325 507.73 120.825 506.563 116.992C502.085 94.1418 511.252 85.6418 534.063 91.4918C535.644 92.1988 537.144 93.0318 538.563 93.9918C541.753 99.1498 542.92 104.817 542.063 110.992Z" fill="#040608"/>
<path fill-rule="evenodd" clip-rule="evenodd" d="M591.063 91.9919C593.359 93.8929 595.192 96.2259 596.563 98.9919C597.063 107.652 597.229 116.319 597.063 124.992C592.818 123.916 589.985 121.25 588.563 116.992C588.23 111.659 587.896 106.325 587.563 100.992C586.207 100.112 584.707 99.7779 583.063 99.9919C583.394 108.352 583.061 116.685 582.063 124.992C578.695 123.79 576.529 121.457 575.563 117.992C575.064 114.006 574.897 110.006 575.063 105.992C576.155 101.369 574.488 99.5359 570.063 100.492C569.128 102.873 568.795 105.373 569.063 107.992C569.413 112.523 568.746 116.856 567.063 120.992C563.479 126.207 561.479 125.874 561.063 119.992C561.063 116.992 561.063 113.992 561.063 110.992C561.063 107.325 561.063 103.659 561.063 99.9919C559.396 99.9919 557.73 99.9919 556.063 99.9919C556.063 103.659 556.063 107.325 556.063 110.992C555.095 113.099 554.761 115.433 555.063 117.992C553.806 121.25 551.472 123.583 548.063 124.992C547.089 122.749 546.755 120.416 547.063 117.992C547.063 115.659 547.063 113.325 547.063 110.992C546.897 106.978 547.064 102.978 547.563 98.9919C548.844 95.2549 551.344 92.7549 555.063 91.4919C567.109 90.6999 579.109 90.8659 591.063 91.9919Z" fill="#070708"/>
<path fill-rule="evenodd" clip-rule="evenodd" d="M610.063 90.9919C616.738 90.8259 623.405 90.9919 630.063 91.4919C638.815 96.6289 640.315 103.463 634.563 111.992C633.144 112.952 631.644 113.785 630.063 114.492C624.035 115.322 618.035 115.156 612.063 113.992C615.518 107.878 620.852 105.045 628.063 105.492C629.396 103.825 629.396 102.159 628.063 100.492C622.396 99.8249 616.73 99.8249 611.063 100.492C610.254 105.909 609.754 111.409 609.563 116.992C608.313 120.408 606.146 123.075 603.063 124.992C601.898 116.345 601.731 107.678 602.563 98.9919C603.916 95.1419 606.416 92.4749 610.063 90.9919Z" fill="#050505"/>
<path fill-rule="evenodd" clip-rule="evenodd" d="M643.063 90.9917C646.583 91.6747 649.083 93.6747 650.563 96.9917C651.933 103.234 652.433 109.567 652.063 115.992C657.739 116.158 663.406 115.991 669.063 115.492C669.872 110.075 670.372 104.575 670.563 98.9917C672.01 94.7067 674.844 92.0397 679.063 90.9917C679.508 100.432 679.008 109.766 677.563 118.992C673.481 124.412 667.981 126.412 661.063 124.992C653.045 126.729 647.211 124.062 643.563 116.992C643.063 108.332 642.897 99.6647 643.063 90.9917Z" fill="#0B0B0B"/>
<path fill-rule="evenodd" clip-rule="evenodd" d="M692.062 90.9918C694.167 90.6928 696.166 91.0258 698.062 91.9918C695.208 97.7538 690.542 100.421 684.062 99.9918C684.987 95.4028 687.654 92.4028 692.062 90.9918Z" fill="#0C0C0C"/>
<path fill-rule="evenodd" clip-rule="evenodd" d="M703.063 90.9916C708.769 90.6626 714.435 90.9966 720.063 91.9916C719.31 94.2446 717.977 96.0786 716.063 97.4916C712.343 99.1356 708.51 100.302 704.563 100.992C704.303 107.043 703.636 113.043 702.563 118.992C701.051 122.349 698.551 124.349 695.063 124.992C694.897 116.319 695.063 107.652 695.563 98.9916C697.253 95.4706 699.753 92.8036 703.063 90.9916Z" fill="#0D0D0D"/>
<path fill-rule="evenodd" clip-rule="evenodd" d="M731.063 90.9917C732.389 95.1057 733.056 99.6057 733.063 104.492C732.896 108.992 732.73 113.492 732.563 117.992C731.624 121.432 729.458 123.765 726.063 124.992C724.898 116.679 724.731 108.345 725.563 99.9917C726.4 96.3347 728.233 93.3347 731.063 90.9917Z" fill="#020202"/>
<path fill-rule="evenodd" clip-rule="evenodd" d="M747.063 90.9919C753.738 90.8259 760.405 90.9919 767.063 91.4919C770.782 92.7549 773.282 95.2549 774.563 98.9919C775.395 107.678 775.228 116.345 774.063 124.992C769.93 123.359 767.43 120.359 766.563 115.992C766.064 110.669 765.897 105.336 766.063 99.9919C760.054 99.8259 754.054 99.9929 748.063 100.492C747.253 106.243 746.753 112.076 746.563 117.992C745.597 121.457 743.431 123.79 740.063 124.992C738.898 116.345 738.731 107.678 739.563 98.9919C740.916 95.1419 743.416 92.4749 747.063 90.9919Z" fill="#070707"/>
<path fill-rule="evenodd" clip-rule="evenodd" d="M788.063 90.9917C812.882 86.3057 821.716 95.9727 814.563 119.992C812.926 122.302 810.759 123.802 808.063 124.492C803.074 124.991 798.074 125.158 793.063 124.992C792.644 122.167 793.644 120.001 796.063 118.492C799.783 116.848 803.616 115.682 807.563 114.992C808.365 110.073 808.198 105.24 807.063 100.492C801.147 99.6847 795.313 99.8507 789.563 100.992C788.896 109.325 788.896 117.659 789.563 125.992C796.984 126.808 804.484 127.308 812.063 127.492C813.396 128.159 814.73 128.825 816.063 129.492C817.204 135.242 817.37 141.076 816.563 146.992C815.144 147.952 813.644 148.785 812.063 149.492C801.402 149.992 790.735 150.159 780.063 149.992C781.111 145.773 783.778 142.939 788.063 141.492C795.722 140.992 803.389 140.826 811.063 140.992C811.063 139.325 811.063 137.659 811.063 135.992C803.389 136.158 795.722 135.992 788.063 135.492C785.392 134.242 783.226 132.409 781.563 129.992C779.946 119.758 779.613 109.425 780.563 98.9917C782.253 95.4707 784.753 92.8037 788.063 90.9917Z" fill="#070707"/>
<path fill-rule="evenodd" clip-rule="evenodd" d="M374.062 97.9917C377.349 99.9427 380.349 102.277 383.062 104.992C383.062 111.659 383.062 118.325 383.062 124.992C373.729 124.992 364.396 124.992 355.062 124.992C357.369 123.515 359.202 121.515 360.562 118.992C361.635 113.043 362.303 107.043 362.562 100.992C366.42 100.153 370.253 99.1527 374.062 97.9917Z" fill="#F3A010"/>
<path fill-rule="evenodd" clip-rule="evenodd" d="M275.062 99.9917C279.062 99.9917 283.062 99.9917 287.062 99.9917C287.062 101.992 287.062 103.992 287.062 105.992C282.858 105.683 278.858 106.349 275.062 107.992C275.062 105.325 275.062 102.659 275.062 99.9917Z" fill="#EE9C10"/>
<path fill-rule="evenodd" clip-rule="evenodd" d="M443.062 99.9917C443.062 105.325 443.062 110.659 443.062 115.992C439.73 115.992 436.395 115.992 433.062 115.992C433.062 110.659 433.062 105.325 433.062 99.9917C436.395 99.9917 439.73 99.9917 443.062 99.9917Z" fill="#FDFDFD"/>
<path fill-rule="evenodd" clip-rule="evenodd" d="M443.062 99.9916C450.056 98.3196 452.724 100.986 451.062 107.992C452.724 114.998 450.056 117.664 443.062 115.992C443.062 110.659 443.062 105.325 443.062 99.9916Z" fill="#59ACFF"/>
<path fill-rule="evenodd" clip-rule="evenodd" d="M480.062 99.9917C479.57 105.451 478.571 110.784 477.062 115.992C476.062 115.992 475.062 115.992 474.062 115.992C474.062 110.659 474.062 105.325 474.062 99.9917C476.062 99.9917 478.062 99.9917 480.062 99.9917Z" fill="#58AAFC"/>
<path fill-rule="evenodd" clip-rule="evenodd" d="M480.062 99.9917C483.395 99.9917 486.73 99.9917 490.062 99.9917C487.973 105.271 487.307 110.604 488.062 115.992C484.395 115.992 480.73 115.992 477.062 115.992C478.571 110.784 479.57 105.451 480.062 99.9917Z" fill="#FEFFFE"/>
<path fill-rule="evenodd" clip-rule="evenodd" d="M533.062 110.992C526.764 110.328 525.764 111.995 530.062 115.992C525.062 115.992 520.062 115.992 515.062 115.992C515.062 110.659 515.062 105.325 515.062 99.9918C520.739 99.8258 526.405 99.9928 532.062 100.492C533.018 103.886 533.352 107.386 533.062 110.992Z" fill="#58ABFE"/>
<path fill-rule="evenodd" clip-rule="evenodd" d="M561.062 110.992C559.395 110.992 557.73 110.992 556.062 110.992C556.062 107.325 556.062 103.659 556.062 99.9917C557.73 99.9917 559.395 99.9917 561.062 99.9917C561.062 103.659 561.062 107.325 561.062 110.992Z" fill="#54A3F2"/>
<path fill-rule="evenodd" clip-rule="evenodd" d="M575.062 105.992C573.062 106.659 571.062 107.325 569.062 107.992C568.794 105.373 569.127 102.873 570.062 100.492C574.487 99.5359 576.154 101.369 575.062 105.992Z" fill="#519EEB"/>
<path fill-rule="evenodd" clip-rule="evenodd" d="M533.063 110.991C533.647 113.776 532.647 115.443 530.063 115.991C525.764 111.994 526.764 110.327 533.063 110.991Z" fill="#FEFFFE"/>
<path fill-rule="evenodd" clip-rule="evenodd" d="M542.062 110.992C543.73 110.992 545.395 110.992 547.062 110.992C547.062 113.325 547.062 115.659 547.062 117.992C545.062 117.992 543.062 117.992 541.062 117.992C541.932 115.775 542.265 113.442 542.062 110.992Z" fill="#FEFEFE"/>
<path fill-rule="evenodd" clip-rule="evenodd" d="M556.063 110.992C557.73 110.992 559.396 110.992 561.063 110.992C561.063 113.992 561.063 116.992 561.063 119.992C558.865 119.617 556.865 118.95 555.063 117.992C554.761 115.433 555.095 113.099 556.063 110.992Z" fill="#EAEAEA"/>
<path fill-rule="evenodd" clip-rule="evenodd" d="M390.062 119.992C390.863 121.534 391.197 123.2 391.062 124.992C389.062 124.992 387.062 124.992 385.062 124.992C387.062 123.659 388.73 121.992 390.062 119.992Z" fill="#E5960F"/>
</svg>
