<?xml version="1.0" encoding="UTF-8" standalone="no"?>
<!-- Created with Inkscape (http://www.inkscape.org/) -->

<svg
   version="1.1"
   id="svg2"
   width="302.36133"
   height="302.36133"
   viewBox="0 0 302.36133 302.36133"
   xmlns="http://www.w3.org/2000/svg"
   xmlns:svg="http://www.w3.org/2000/svg">
  <defs
     id="defs6">
    <clipPath
       clipPathUnits="userSpaceOnUse"
       id="clipPath16">
      <path
         d="M 0,226.771 H 226.771 V 0 H 0 Z"
         id="path14" />
    </clipPath>
  </defs>
  <g
     id="g8"
     transform="matrix(1.3333333,0,0,-1.3333333,0,302.36133)">
    <g
       id="g10">
      <g
         id="g12"
         clip-path="url(#clipPath16)">
        <g
           id="g18"
           transform="translate(89.6128,106.6953)">
          <path
             d="m 0,0 h 19.124 v 48.083 c 0,2.676 -1.062,5.093 -2.825,6.816 l -28.337,28.336 c -1.722,1.763 -4.14,2.826 -6.816,2.826 H -66.936 V 66.936 h 52.593 C -6.422,66.936 0,60.514 0,52.593 Z"
             style="fill:#127bca;fill-opacity:1;fill-rule:nonzero;stroke:none"
             id="path20" />
        </g>
        <g
           id="g22"
           transform="translate(137.1592,106.6953)">
          <path
             d="m 0,0 h -19.124 v 48.083 c 0,2.676 1.062,5.093 2.824,6.816 l 28.337,28.336 c 1.723,1.763 4.14,2.826 6.816,2.826 H 66.936 V 66.936 H 14.343 C 6.422,66.936 0,60.514 0,52.593 Z"
             style="fill:#127bca;fill-opacity:1;fill-rule:nonzero;stroke:none"
             id="path24" />
        </g>
        <g
           id="g26"
           transform="translate(22.6772,68.8623)">
          <path
             d="m 0,0 h 4.519 v -4.064 h 0.102 c 1.29,2.737 4.078,4.699 6.867,4.699 1.446,0 2.169,-0.155 3.201,-0.362 V -4.064 C 13.812,-3.703 12.831,-3.6 12.005,-3.6 7.667,-3.6 4.827,-7.73 4.827,-14.354 V -26.343 H 0 Z"
             style="fill:#127bca;fill-opacity:1;fill-rule:nonzero;stroke:none"
             id="path28" />
        </g>
        <g
           id="g30"
           transform="translate(156.874,62.8731)">
          <path
             d="m 0,0 c 1.963,1.682 4.902,2.733 7.634,2.733 4.845,0 6.495,-2.366 6.495,-6.907 -1.908,0.104 -3.247,0.104 -5.155,0.104 -5,0 -12.228,-2.061 -12.228,-8.679 0,-5.783 3.978,-8.244 9.651,-8.244 4.433,0 7.01,2.409 8.143,3.999 h 0.104 v -3.355 h 4.312 V -4.257 C 18.956,2.938 15.927,6.63 8.407,6.63 5.057,6.63 2.169,5.604 -0.258,4.168 Z m 14.129,-10.106 c 0,-3.972 -2.525,-6.991 -7.32,-6.992 -2.217,0 -4.898,1.51 -4.898,4.321 0,4.684 6.496,5.101 9.125,5.101 1.031,0 2.062,-0.104 3.093,-0.104 z"
             style="fill:#127bca;fill-opacity:1;fill-rule:nonzero;stroke:none"
             id="path32" />
        </g>
        <g
           id="g34"
           transform="translate(39.6963,62.8731)">
          <path
             d="m 0,0 c 1.962,1.682 4.901,2.733 7.633,2.733 4.846,0 6.496,-2.366 6.496,-6.907 -1.908,0.104 -3.249,0.104 -5.155,0.104 -5.001,0 -12.228,-2.061 -12.228,-8.679 0,-5.783 3.977,-8.244 9.65,-8.244 4.433,0 7.011,2.409 8.144,3.999 h 0.103 v -3.355 h 4.313 V -4.257 C 18.956,2.938 15.925,6.63 8.406,6.63 5.055,6.63 2.169,5.604 -0.258,4.168 Z m 14.129,-10.106 c 0,-3.972 -2.526,-6.991 -7.321,-6.992 -2.217,0 -4.897,1.51 -4.897,4.321 0,4.684 6.495,5.101 9.125,5.101 1.03,0 2.061,-0.104 3.093,-0.104 z"
             style="fill:#127bca;fill-opacity:1;fill-rule:nonzero;stroke:none"
             id="path36" />
        </g>
        <g
           id="g38"
           transform="translate(62.604,68.8574)">
          <path
             d="m 0,0 h 4.672 v -4.132 h 0.103 c 1.449,2.983 4.967,4.778 8.641,4.778 6.815,0 9.845,-4.209 9.845,-11.3 v -15.684 h -4.826 v 13.665 c 0,6.16 -1.346,9.162 -5.589,9.422 -5.536,0 -8.019,-4.452 -8.019,-10.899 V -26.338 H 0 Z"
             style="fill:#127bca;fill-opacity:1;fill-rule:nonzero;stroke:none"
             id="path40" />
        </g>
        <g
           id="g42"
           transform="translate(117.4287,47.6445)">
          <path
             d="m 0,0 c 1.911,-1.246 4.648,-1.868 6.039,-1.868 2.215,0 4.945,0.933 4.945,3.789 0,4.828 -11.398,4.412 -11.398,11.836 0,5.487 4.081,8.101 9.287,8.101 2.267,0 4.126,-0.462 6.037,-1.042 l -0.413,-4.205 c -1.085,0.676 -3.976,1.351 -5.109,1.351 -2.473,0 -4.636,-1.039 -4.636,-3.22 0,-5.398 11.397,-3.841 11.397,-12.302 0,-5.641 -4.493,-8.205 -9.183,-8.205 -2.473,0 -5.004,0.256 -7.225,1.436 z"
             style="fill:#127bca;fill-opacity:1;fill-rule:nonzero;stroke:none"
             id="path44" />
        </g>
        <g
           id="g46"
           transform="translate(152.0381,64.9658)">
          <path
             d="m 0,0 h -6.971 v -14.471 c 0,-3.059 1.859,-4.719 4.079,-4.719 1.497,0 2.582,0.467 3.305,0.934 v -4.112 c -1.085,-0.308 -2.582,-0.718 -4.131,-0.718 -5,0 -8.081,2.357 -8.081,7.631 V 0 h -5.937 v 3.896 h 5.937 v 6.095 l 4.828,1.549 V 3.896 l 6.971,0 z"
             style="fill:#127bca;fill-opacity:1;fill-rule:nonzero;stroke:none"
             id="path48" />
        </g>
        <g
           id="g50"
           transform="translate(199.4727,42.5244)">
          <path
             d="M 0,0 H 4.622 V 38.725 H -0.204 V 22.771 h -0.104 c -1.496,2.413 -4.126,4.208 -8.716,4.208 -7.635,0 -11.355,-6.227 -11.355,-13.32 0,-7.241 3.358,-14.304 11.304,-14.304 4.692,0 7.683,2.358 8.972,4.312 l 0.103,0 z m -15.214,13.27 c -0.102,4.828 1.96,9.812 7.222,9.812 5.26,0 7.788,-5.036 7.788,-9.968 0,-4.412 -2.271,-9.863 -7.737,-9.863 -5.209,0 -7.375,5.866 -7.273,10.019"
             style="fill:#127bca;fill-opacity:1;fill-rule:nonzero;stroke:none"
             id="path52" />
        </g>
        <g
           id="g54"
           transform="translate(109.54,42.5244)">
          <path
             d="M 0,0 H 4.621 V 38.725 H -0.205 V 22.771 h -0.103 c -1.496,2.413 -4.127,4.208 -8.717,4.208 -7.635,0 -11.354,-6.227 -11.354,-13.32 0,-7.241 3.357,-14.304 11.303,-14.304 4.693,0 7.684,2.358 8.973,4.312 l 0.103,0 z m -15.214,13.27 c -0.103,4.828 1.96,9.812 7.221,9.812 5.261,0 7.788,-5.036 7.788,-9.968 0,-4.412 -2.27,-9.863 -7.737,-9.863 -5.209,0 -7.375,5.866 -7.272,10.019"
             style="fill:#127bca;fill-opacity:1;fill-rule:nonzero;stroke:none"
             id="path56" />
        </g>
      </g>
    </g>
  </g>
</svg>
